<?xml version="1.0" encoding="UTF-8" standalone="no"?>
<!-- Created with Inkscape (http://www.inkscape.org/) -->

<svg
   xmlns:dc="http://purl.org/dc/elements/1.1/"
   xmlns:cc="http://creativecommons.org/ns#"
   xmlns:rdf="http://www.w3.org/1999/02/22-rdf-syntax-ns#"
   xmlns:svg="http://www.w3.org/2000/svg"
   xmlns="http://www.w3.org/2000/svg"
   xmlns:xlink="http://www.w3.org/1999/xlink"
   xmlns:sodipodi="http://sodipodi.sourceforge.net/DTD/sodipodi-0.dtd"
   xmlns:inkscape="http://www.inkscape.org/namespaces/inkscape"
   version="1.1"
   id="svg2"
   xml:space="preserve"
   width="483.78"
   height="362.83466"
   viewBox="0 0 483.78 362.83466"
   sodipodi:docname="surfer.svg"
   inkscape:version="0.92.2 5c3e80d, 2017-08-06"><metadata
     id="metadata8"><rdf:RDF><cc:Work
         rdf:about=""><dc:format>image/svg+xml</dc:format><dc:type
           rdf:resource="http://purl.org/dc/dcmitype/StillImage" /><dc:title /></cc:Work></rdf:RDF></metadata><defs
     id="defs6"><pattern
       inkscape:collect="always"
       xlink:href="#Strips1_1white"
       id="pattern2797"
       patternTransform="matrix(-1.9861568,-1.6727965,25.757382,-30.582441,38.570383,220.0265)" /><pattern
       inkscape:isstock="true"
       inkscape:stockid="Stripes 1:1 white"
       id="Strips1_1white"
       patternTransform="translate(0,0) scale(10,10)"
       height="1"
       width="2"
       patternUnits="userSpaceOnUse"
       inkscape:collect="always"><rect
         id="rect2068"
         height="2"
         width="1"
         y="-0.5"
         x="0"
         style="fill:white;stroke:none" /></pattern></defs><sodipodi:namedview
     pagecolor="#ffffff"
     bordercolor="#666666"
     borderopacity="1"
     objecttolerance="10"
     gridtolerance="10"
     guidetolerance="10"
     inkscape:pageopacity="0"
     inkscape:pageshadow="2"
     inkscape:window-width="640"
     inkscape:window-height="480"
     id="namedview4"
     showgrid="false"
     inkscape:zoom="2.2461216"
     inkscape:cx="147.32985"
     inkscape:cy="175.36779"
     inkscape:current-layer="g10" /><g
     id="g10"
     inkscape:groupmode="layer"
     inkscape:label="Surfing"
     transform="matrix(1.3333333,0,0,-1.3333333,0,362.83467)"><path
       sodipodi:nodetypes="ccc"
       inkscape:connector-curvature="0"
       id="path2799"
       d="m 44.778163,191.95398 c 10.461024,-35.47079 58.208517,-86.78384 85.715907,-85.26628 -13.48748,6.58572 -87.658081,110.58 -85.715907,85.26628 z"
       style="fill:#b22234;fill-opacity:1;fill-rule:evenodd;stroke:none;stroke-width:0.75px;stroke-linecap:butt;stroke-linejoin:miter;stroke-opacity:1" /><path
       style="fill:url(#pattern2797);fill-opacity:1;fill-rule:evenodd;stroke:none;stroke-width:0.75px;stroke-linecap:butt;stroke-linejoin:miter;stroke-opacity:1"
       d="m 44.778163,191.95398 c 10.461024,-35.47079 58.208517,-86.78384 85.715907,-85.26628 -13.48748,6.58572 -87.658081,110.58 -85.715907,85.26628 z"
       id="path1005"
       inkscape:connector-curvature="0"
       sodipodi:nodetypes="ccc" /><path
       inkscape:connector-curvature="0"
       id="path1054"
       style="fill:#edd425;fill-opacity:1;fill-rule:nonzero;stroke:none"
       d="m 112.04159,162.57304 c 4.53437,-5.43629 4.86356,-22.24379 -11.34636,-23.22745 -16.231411,-0.96545 -58.085288,44.31429 -11.866812,53.05884 10.373506,-26.35185 11.771292,-11.45258 23.213172,-29.83139 z" /><path
       inkscape:connector-curvature="0"
       id="path1058"
       style="fill:#edd425;fill-opacity:1;fill-rule:nonzero;stroke:none"
       d="m 99.354955,186.5001 c 6.322725,7.46764 16.291015,9.42084 22.265125,4.36265 5.97411,-5.05818 5.69149,-15.21207 -0.63124,-22.67971 -6.32273,-7.46765 -16.29099,-9.42085 -22.265104,-4.36267 -5.974112,5.05818 -5.691515,15.21208 0.631219,22.67973 z" /><path
       inkscape:connector-curvature="0"
       id="path1062"
       style="fill:#df8020;fill-opacity:1;fill-rule:nonzero;stroke:none"
       d="m 120.34591,167.6874 c -4.06485,5.59588 -6.01616,-1.18355 -12.77186,7.025 8.3668,-26.39783 13.84931,-11.7628 12.77186,-7.025 z" /><path
       inkscape:connector-curvature="0"
       id="path1066"
       style="fill:#fffdd9;fill-opacity:1;fill-rule:nonzero;stroke:none"
       d="m 111.02018,178.54407 c 0.67747,1.83594 2.28982,2.93193 3.60134,2.44797 1.31151,-0.48396 1.82552,-2.36457 1.14805,-4.20051 -0.67747,-1.83595 -2.28984,-2.93195 -3.60133,-2.44799 -1.31152,0.48395 -1.82552,2.36456 -1.14806,4.20053 z" /><path
       inkscape:connector-curvature="0"
       id="path1070"
       style="fill:#000000;fill-opacity:1;fill-rule:nonzero;stroke:none"
       d="m 111.54945,178.04675 c 0.38695,1.04863 1.12575,1.74182 1.65016,1.5483 0.52443,-0.19351 0.6359,-1.20046 0.24894,-2.24909 -0.38694,-1.04861 -1.12574,-1.74182 -1.65017,-1.54829 -0.5244,0.19351 -0.63587,1.20046 -0.24893,2.24908 z" /><path
       inkscape:connector-curvature="0"
       id="path1074"
       style="fill:#fffdd9;fill-opacity:1;fill-rule:nonzero;stroke:none"
       d="m 118.74691,174.86209 c 0.6195,1.67885 2.05753,2.6945 3.21194,2.26851 1.15441,-0.42598 1.58807,-2.13225 0.96858,-3.8111 -0.6195,-1.67885 -2.05752,-2.6945 -3.21194,-2.26851 -1.1544,0.42597 -1.58806,2.13224 -0.96858,3.8111 z" /><path
       inkscape:connector-curvature="0"
       id="path1078"
       style="fill:#000000;fill-opacity:1;fill-rule:nonzero;stroke:none"
       d="m 119.18072,174.39959 c 0.34849,0.9444 0.97144,1.58437 1.39143,1.4294 0.41997,-0.15499 0.47793,-1.04619 0.12945,-1.99061 -0.34848,-0.94441 -0.97144,-1.58438 -1.39142,-1.42939 -0.41998,0.15498 -0.47794,1.04619 -0.12946,1.9906 z" /><path
       inkscape:connector-curvature="0"
       id="path1082"
       style="fill:#b22234;fill-opacity:1;fill-rule:nonzero;stroke:none"
       d="m 118.50743,181.18549 c 5.98931,14.05346 -12.31369,12.82146 -17.41517,7.01578 9.60255,12.71426 33.61006,8.51442 19.80048,-8.17732 0,0 -2.36517,1.11104 -2.38531,1.16154 z" /><path
       d="m 106.02277,140.40309 c 0,0 -3.3013,-0.93454 -5.32754,-1.0575 -2.028926,-0.12068 -4.458204,0.48122 -7.065772,1.64402 -2.607568,1.1628 -5.393427,2.8865 -8.135517,5.00942 -2.74209,2.12292 -5.44041,4.64507 -7.872901,7.40475 -2.432491,2.75968 -4.599152,5.7569 -6.277924,8.82998 -1.678771,3.07308 -2.869653,6.22202 -3.350585,9.28514 -0.480932,3.06312 -0.25191,6.04042 0.909115,8.77021 0.580514,1.3649 2.468307,3.88886 2.468307,3.88886 4.296301,-7.75846 34.652817,-43.77488 34.652817,-43.77488 z"
       style="fill:#3c3b6e;fill-opacity:1;fill-rule:nonzero;stroke:none"
       id="path2801"
       inkscape:connector-curvature="0"
       sodipodi:nodetypes="ccsssssscc" /><path
       style="fill:#ffffff;stroke-width:0.12499994"
       d="m 73.003312,179.83806 -2.160754,-3.36409 -0.229274,3.99167 2.531727,-3.09456 -3.867146,1.01544 z"
       id="s"
       inkscape:connector-curvature="0" /><use
       transform="translate(11.845012,15.460858)"
       style="fill:#7cfc00;stroke-width:7.13605738"
       id="use100"
       y="420"
       xlink:href="#s"
       x="0"
       width="100%"
       height="100%" /><use
       transform="translate(11.845012,15.460858)"
       style="fill:#7cfc00;stroke-width:7.13605738"
       id="use102"
       y="840"
       xlink:href="#s"
       x="0"
       width="100%"
       height="100%" /><use
       transform="translate(11.845012,15.460858)"
       style="fill:#7cfc00;stroke-width:7.13605738"
       id="use104"
       y="1260"
       xlink:href="#s"
       x="0"
       width="100%"
       height="100%" /><use
       height="100%"
       width="100%"
       x="0"
       xlink:href="#s"
       y="1680"
       id="use107"
       style="fill:#7cfc00;stroke-width:7.13605738"
       transform="translate(11.845015,15.460861)" /><path
       inkscape:connector-curvature="0"
       id="path3615"
       d="m 331.84833,405.29892 -2.16076,-3.36409 -0.22927,3.99167 2.53173,-3.09456 -3.86715,1.01544 z"
       style="fill:#7cfc00;stroke-width:0.12499994" /><use
       transform="translate(258.84501,225.46086)"
       height="100%"
       width="100%"
       x="0"
       xlink:href="#s"
       y="420"
       id="use3617"
       style="fill:#7cfc00;stroke-width:7.13605738" /><use
       transform="translate(258.84501,225.46086)"
       height="100%"
       width="100%"
       x="0"
       xlink:href="#s"
       y="840"
       id="use3619"
       style="fill:#7cfc00;stroke-width:7.13605738" /><use
       transform="translate(258.84501,225.46086)"
       height="100%"
       width="100%"
       x="0"
       xlink:href="#s"
       y="1260"
       id="use3621"
       style="fill:#7cfc00;stroke-width:7.13605738" /><path
       inkscape:connector-curvature="0"
       id="path3471"
       d="m 578.84833,195.29892 -2.16076,-3.36409 -0.22927,3.99167 2.53173,-3.09456 -3.86715,1.01544 z"
       style="fill:#7cfc00;stroke-width:0.12499994" /><use
       transform="translate(505.84501,15.460858)"
       height="100%"
       width="100%"
       x="0"
       xlink:href="#s"
       y="420"
       id="use3473"
       style="fill:#7cfc00;stroke-width:7.13605738" /><use
       transform="translate(505.84501,15.460858)"
       height="100%"
       width="100%"
       x="0"
       xlink:href="#s"
       y="840"
       id="use3475"
       style="fill:#7cfc00;stroke-width:7.13605738" /><use
       transform="translate(505.84501,15.460858)"
       height="100%"
       width="100%"
       x="0"
       xlink:href="#s"
       y="1260"
       id="use3477"
       style="fill:#7cfc00;stroke-width:7.13605738" /><use
       style="fill:#7cfc00;stroke-width:7.13605738"
       id="use3481"
       y="1680"
       xlink:href="#s"
       x="0"
       width="100%"
       height="100%"
       transform="translate(505.84501,15.460861)" /><path
       inkscape:connector-curvature="0"
       id="path3625"
       d="m 825.84833,405.29892 -2.16076,-3.36409 -0.22927,3.99167 2.53173,-3.09456 -3.86715,1.01544 z"
       style="fill:#7cfc00;stroke-width:0.12499994" /><use
       transform="translate(752.84501,225.46086)"
       height="100%"
       width="100%"
       x="0"
       xlink:href="#s"
       y="420"
       id="use3627"
       style="fill:#7cfc00;stroke-width:7.13605738" /><use
       transform="translate(752.84501,225.46086)"
       height="100%"
       width="100%"
       x="0"
       xlink:href="#s"
       y="840"
       id="use3629"
       style="fill:#7cfc00;stroke-width:7.13605738" /><use
       transform="translate(752.84501,225.46086)"
       height="100%"
       width="100%"
       x="0"
       xlink:href="#s"
       y="1260"
       id="use3631"
       style="fill:#7cfc00;stroke-width:7.13605738" /><path
       inkscape:connector-curvature="0"
       id="path3421"
       d="m 1072.8483,195.29892 -2.1608,-3.36409 -0.2293,3.99167 2.5318,-3.09456 -3.8672,1.01544 z"
       style="fill:#7cfc00;stroke-width:0.12499994" /><use
       height="100%"
       width="100%"
       x="0"
       xlink:href="#s"
       y="420"
       id="use3423"
       style="fill:#7cfc00;stroke-width:7.13605738"
       transform="translate(999.84496,15.460858)" /><use
       height="100%"
       width="100%"
       x="0"
       xlink:href="#s"
       y="840"
       id="use3425"
       style="fill:#7cfc00;stroke-width:7.13605738"
       transform="translate(999.84496,15.460858)" /><use
       height="100%"
       width="100%"
       x="0"
       xlink:href="#s"
       y="1260"
       id="use3427"
       style="fill:#7cfc00;stroke-width:7.13605738"
       transform="translate(999.84496,15.460858)" /><use
       transform="translate(999.84496,15.460858)"
       style="fill:#7cfc00;stroke-width:7.13605738"
       id="use3431"
       y="1680"
       xlink:href="#s"
       x="0"
       width="100%"
       height="100%" /><path
       inkscape:connector-curvature="0"
       id="path3605"
       d="m 1319.8483,405.29892 -2.1608,-3.36409 -0.2293,3.99167 2.5318,-3.09456 -3.8672,1.01544 z"
       style="fill:#7cfc00;stroke-width:0.12499994" /><use
       transform="translate(1246.8449,225.46086)"
       height="100%"
       width="100%"
       x="0"
       xlink:href="#s"
       y="420"
       id="use3607"
       style="fill:#7cfc00;stroke-width:7.13605738" /><use
       transform="translate(1246.8449,225.46086)"
       height="100%"
       width="100%"
       x="0"
       xlink:href="#s"
       y="840"
       id="use3609"
       style="fill:#7cfc00;stroke-width:7.13605738" /><use
       transform="translate(1246.8449,225.46086)"
       height="100%"
       width="100%"
       x="0"
       xlink:href="#s"
       y="1260"
       id="use3611"
       style="fill:#7cfc00;stroke-width:7.13605738" /><path
       style="fill:#7cfc00;stroke-width:0.12499994"
       d="m 1566.8483,195.29892 -2.1608,-3.36409 -0.2293,3.99167 2.5318,-3.09456 -3.8672,1.01544 z"
       id="path3489"
       inkscape:connector-curvature="0" /><use
       style="fill:#7cfc00;stroke-width:7.13605738"
       id="use3491"
       y="420"
       xlink:href="#s"
       x="0"
       width="100%"
       height="100%"
       transform="translate(1493.8449,15.460858)" /><use
       style="fill:#7cfc00;stroke-width:7.13605738"
       id="use3493"
       y="840"
       xlink:href="#s"
       x="0"
       width="100%"
       height="100%"
       transform="translate(1493.8449,15.460858)" /><use
       style="fill:#7cfc00;stroke-width:7.13605738"
       id="use3495"
       y="1260"
       xlink:href="#s"
       x="0"
       width="100%"
       height="100%"
       transform="translate(1493.8449,15.460858)" /><use
       transform="translate(1493.8449,15.460858)"
       height="100%"
       width="100%"
       x="0"
       xlink:href="#s"
       y="1680"
       id="use3499"
       style="fill:#7cfc00;stroke-width:7.13605738" /><path
       inkscape:connector-curvature="0"
       id="path3595"
       d="m 1813.8483,405.29892 -2.1608,-3.36409 -0.2293,3.99167 2.5318,-3.09456 -3.8672,1.01544 z"
       style="fill:#7cfc00;stroke-width:0.12499994" /><use
       transform="translate(1740.8449,225.46086)"
       height="100%"
       width="100%"
       x="0"
       xlink:href="#s"
       y="420"
       id="use3597"
       style="fill:#7cfc00;stroke-width:7.13605738" /><use
       transform="translate(1740.8449,225.46086)"
       height="100%"
       width="100%"
       x="0"
       xlink:href="#s"
       y="840"
       id="use3599"
       style="fill:#7cfc00;stroke-width:7.13605738" /><use
       transform="translate(1740.8449,225.46086)"
       height="100%"
       width="100%"
       x="0"
       xlink:href="#s"
       y="1260"
       id="use3601"
       style="fill:#7cfc00;stroke-width:7.13605738" /><path
       inkscape:connector-curvature="0"
       id="path3453"
       d="m 2060.8483,195.29892 -2.1608,-3.36409 -0.2293,3.99167 2.5318,-3.09456 -3.8672,1.01544 z"
       style="fill:#7cfc00;stroke-width:0.12499994" /><use
       height="100%"
       width="100%"
       x="0"
       xlink:href="#s"
       y="420"
       id="use3455"
       style="fill:#7cfc00;stroke-width:7.13605738"
       transform="translate(1987.8449,15.460858)" /><use
       height="100%"
       width="100%"
       x="0"
       xlink:href="#s"
       y="840"
       id="use3457"
       style="fill:#7cfc00;stroke-width:7.13605738"
       transform="translate(1987.8449,15.460858)" /><use
       height="100%"
       width="100%"
       x="0"
       xlink:href="#s"
       y="1260"
       id="use3459"
       style="fill:#7cfc00;stroke-width:7.13605738"
       transform="translate(1987.8449,15.460858)" /><use
       transform="translate(1987.8449,15.460858)"
       style="fill:#7cfc00;stroke-width:7.13605738"
       id="use3463"
       y="1680"
       xlink:href="#s"
       x="0"
       width="100%"
       height="100%" /><path
       inkscape:connector-curvature="0"
       id="path3585"
       d="m 2307.8483,405.29892 -2.1608,-3.36409 -0.2293,3.99167 2.5318,-3.09456 -3.8672,1.01544 z"
       style="fill:#7cfc00;stroke-width:0.12499994" /><use
       transform="translate(2234.8449,225.46086)"
       height="100%"
       width="100%"
       x="0"
       xlink:href="#s"
       y="420"
       id="use3587"
       style="fill:#7cfc00;stroke-width:7.13605738" /><use
       transform="translate(2234.8449,225.46086)"
       height="100%"
       width="100%"
       x="0"
       xlink:href="#s"
       y="840"
       id="use3589"
       style="fill:#7cfc00;stroke-width:7.13605738" /><use
       transform="translate(2234.8449,225.46086)"
       height="100%"
       width="100%"
       x="0"
       xlink:href="#s"
       y="1260"
       id="use3591"
       style="fill:#7cfc00;stroke-width:7.13605738" /><path
       inkscape:connector-curvature="0"
       id="path3533"
       d="m 2554.8483,195.29892 -2.1608,-3.36409 -0.2293,3.99167 2.5318,-3.09456 -3.8672,1.01544 z"
       style="fill:#7cfc00;stroke-width:0.12499994" /><use
       height="100%"
       width="100%"
       x="0"
       xlink:href="#s"
       y="420"
       id="use3535"
       style="fill:#7cfc00;stroke-width:7.13605738"
       transform="translate(2481.8449,15.460858)" /><use
       height="100%"
       width="100%"
       x="0"
       xlink:href="#s"
       y="840"
       id="use3537"
       style="fill:#7cfc00;stroke-width:7.13605738"
       transform="translate(2481.8449,15.460858)" /><use
       height="100%"
       width="100%"
       x="0"
       xlink:href="#s"
       y="1260"
       id="use3539"
       style="fill:#7cfc00;stroke-width:7.13605738"
       transform="translate(2481.8449,15.460858)" /><use
       transform="translate(2481.8449,15.460858)"
       style="fill:#7cfc00;stroke-width:7.13605738"
       id="use3543"
       y="1680"
       xlink:href="#s"
       x="0"
       width="100%"
       height="100%" /><use
       height="100%"
       width="100%"
       x="0"
       xlink:href="#s"
       y="420"
       id="use2805"
       style="fill:#7cfc00;stroke-width:7.13605738"
       transform="translate(38.692506,-24.103859)" /><use
       height="100%"
       width="100%"
       x="0"
       xlink:href="#s"
       y="840"
       id="use2807"
       style="fill:#7cfc00;stroke-width:7.13605738"
       transform="translate(38.692506,-24.103859)" /><use
       height="100%"
       width="100%"
       x="0"
       xlink:href="#s"
       y="1260"
       id="use2809"
       style="fill:#7cfc00;stroke-width:7.13605738"
       transform="translate(38.692506,-24.103859)" /><use
       style="fill:#7cfc00;stroke-width:7.13605738"
       id="use2813"
       y="1680"
       xlink:href="#s"
       x="0"
       width="100%"
       height="100%"
       transform="translate(38.692506,-24.103859)" /><g
       transform="matrix(0.01109173,-0.01355755,-0.01355755,-0.01109173,357.17634,370.08117)"
       style="fill:#7cfc00;stroke-width:7.13605738"
       id="use2817"><path
         style="fill:#7cfc00;stroke-width:7.13605738"
         d="M 247,90 317.53423,307.08204 132.87322,172.91796 H 361.12678 L 176.46577,307.08204 Z"
         id="path3641"
         inkscape:connector-curvature="0" /><use
         transform="matrix(36.149003,-44.185345,-44.185345,-36.149003,5554.2097,9816.6432)"
         style="fill:#7cfc00;stroke-width:7.13605738"
         id="use3643"
         y="420"
         xlink:href="#s"
         x="0"
         width="100%"
         height="100%" /><use
         transform="matrix(36.149003,-44.185345,-44.185345,-36.149003,5554.2097,9816.6432)"
         style="fill:#7cfc00;stroke-width:7.13605738"
         id="use3645"
         y="840"
         xlink:href="#s"
         x="0"
         width="100%"
         height="100%" /><use
         transform="matrix(36.149003,-44.185345,-44.185345,-36.149003,5554.2097,9816.6432)"
         style="fill:#7cfc00;stroke-width:7.13605738"
         id="use3647"
         y="1260"
         xlink:href="#s"
         x="0"
         width="100%"
         height="100%" /></g><path
       inkscape:connector-curvature="0"
       id="path3719"
       d="m 73.003312,179.83806 -2.160754,-3.36409 -0.229274,3.99167 2.531727,-3.09456 -3.867146,1.01544 z"
       style="fill:#ffffff;stroke-width:0.12499994" /><path
       style="fill:#ffffff;stroke-width:0.12499994"
       d="m 75.995737,175.47411 -2.160754,-3.36409 -0.229274,3.99167 2.531727,-3.09456 -3.867146,1.01544 z"
       id="path3729"
       inkscape:connector-curvature="0" /><path
       inkscape:connector-curvature="0"
       id="path3731"
       d="m 79.611584,170.86079 -2.160754,-3.36409 -0.229274,3.99167 2.531727,-3.09456 -3.867146,1.01544 z"
       style="fill:#ffffff;stroke-width:0.12499994" /><path
       style="fill:#ffffff;stroke-width:0.12499994"
       d="m 83.22743,166.62152 -2.160754,-3.36409 -0.229274,3.99167 2.531727,-3.09456 -3.867146,1.01544 z"
       id="path3733"
       inkscape:connector-curvature="0" /><path
       inkscape:connector-curvature="0"
       id="path3735"
       d="m 87.092645,161.88352 -2.160754,-3.36409 -0.229274,3.99167 2.531727,-3.09456 -3.867146,1.01544 z"
       style="fill:#ffffff;stroke-width:0.12499994" /><path
       style="fill:#ffffff;stroke-width:0.12499994"
       d="m 90.708493,157.39488 -2.160754,-3.36409 -0.229274,3.99167 2.531727,-3.09456 -3.867146,1.01544 z"
       id="path3737"
       inkscape:connector-curvature="0" /><path
       style="fill:#ffffff;stroke-width:0.12499994"
       d="m 94.698393,152.90624 -2.160754,-3.36409 -0.229274,3.99167 2.531727,-3.09456 -3.867146,1.01544 z"
       id="path3739"
       inkscape:connector-curvature="0" /><path
       inkscape:connector-curvature="0"
       id="path3741"
       d="m 98.06487,148.66697 -2.160754,-3.36409 -0.229274,3.99167 2.531727,-3.09456 -3.867146,1.01544 z"
       style="fill:#ffffff;stroke-width:0.12499994" /><path
       style="fill:#ffffff;stroke-width:0.12499994"
       d="m 101.43135,144.30302 -2.160756,-3.36409 -0.229274,3.99167 2.53173,-3.09456 -3.867149,1.01544 z"
       id="path3743"
       inkscape:connector-curvature="0" /><path
       style="fill:#ffffff;stroke-width:0.12499994"
       d="m 71.257731,175.10005 -2.160754,-3.36409 -0.229274,3.99167 2.531727,-3.09456 -3.867146,1.01544 z"
       id="path3747"
       inkscape:connector-curvature="0" /><path
       inkscape:connector-curvature="0"
       id="path3749"
       d="m 74.250156,170.7361 -2.160754,-3.36409 -0.229274,3.99167 2.531727,-3.09456 -3.867146,1.01544 z"
       style="fill:#ffffff;stroke-width:0.12499994" /><path
       style="fill:#ffffff;stroke-width:0.12499994"
       d="m 77.866003,166.12278 -2.160754,-3.36409 -0.229274,3.99167 2.531727,-3.09456 -3.867146,1.01544 z"
       id="path3751"
       inkscape:connector-curvature="0" /><path
       inkscape:connector-curvature="0"
       id="path3753"
       d="m 81.481849,161.88351 -2.160754,-3.36409 -0.229274,3.99167 2.531727,-3.09456 -3.867146,1.01544 z"
       style="fill:#ffffff;stroke-width:0.12499994" /><path
       style="fill:#ffffff;stroke-width:0.12499994"
       d="m 85.347064,157.14551 -2.160754,-3.36409 -0.229274,3.99167 2.531727,-3.09456 -3.867146,1.01544 z"
       id="path3755"
       inkscape:connector-curvature="0" /><path
       inkscape:connector-curvature="0"
       id="path3757"
       d="m 88.962912,152.65687 -2.160754,-3.36409 -0.229274,3.99167 2.531727,-3.09456 -3.867146,1.01544 z"
       style="fill:#ffffff;stroke-width:0.12499994" /><path
       inkscape:connector-curvature="0"
       id="path3759"
       d="m 92.952812,148.16823 -2.160754,-3.36409 -0.229274,3.99167 2.531727,-3.09456 -3.867146,1.01544 z"
       style="fill:#ffffff;stroke-width:0.12499994" /><path
       style="fill:#ffffff;stroke-width:0.12499994"
       d="m 96.319289,143.92896 -2.160754,-3.36409 -0.229274,3.99167 2.531727,-3.09456 -3.867146,1.01544 z"
       id="path3761"
       inkscape:connector-curvature="0" /><path
       style="fill:#ffffff;stroke-width:0.12499994"
       d="m 73.252681,166.12278 -2.160754,-3.36409 -0.229274,3.99167 2.531727,-3.09456 -3.867146,1.01544 z"
       id="path3765"
       inkscape:connector-curvature="0" /><path
       inkscape:connector-curvature="0"
       id="path3767"
       d="m 76.868528,161.50946 -2.160754,-3.36409 -0.229274,3.99167 2.531727,-3.09456 -3.867146,1.01544 z"
       style="fill:#ffffff;stroke-width:0.12499994" /><path
       style="fill:#ffffff;stroke-width:0.12499994"
       d="m 80.484374,157.27019 -2.160754,-3.36409 -0.229274,3.99167 2.531727,-3.09456 -3.867146,1.01544 z"
       id="path3769"
       inkscape:connector-curvature="0" /><path
       inkscape:connector-curvature="0"
       id="path3771"
       d="m 84.349589,152.53219 -2.160754,-3.36409 -0.229274,3.99167 2.531727,-3.09456 -3.867146,1.01544 z"
       style="fill:#ffffff;stroke-width:0.12499994" /><path
       style="fill:#ffffff;stroke-width:0.12499994"
       d="m 87.965437,148.04355 -2.160754,-3.36409 -0.229274,3.99167 2.531727,-3.09456 -3.867146,1.01544 z"
       id="path3773"
       inkscape:connector-curvature="0" /></g></svg>