<?xml version="1.0" encoding="UTF-8" standalone="no"?>
<!-- Created with Inkscape (http://www.inkscape.org/) -->

<svg
   xmlns:dc="http://purl.org/dc/elements/1.1/"
   xmlns:cc="http://creativecommons.org/ns#"
   xmlns:rdf="http://www.w3.org/1999/02/22-rdf-syntax-ns#"
   xmlns:svg="http://www.w3.org/2000/svg"
   xmlns="http://www.w3.org/2000/svg"
   xmlns:sodipodi="http://sodipodi.sourceforge.net/DTD/sodipodi-0.dtd"
   xmlns:inkscape="http://www.inkscape.org/namespaces/inkscape"
   version="1.1"
   id="svg2"
   xml:space="preserve"
   width="467.29401"
   height="256.73062"
   viewBox="0 0 467.29401 256.73061"
   sodipodi:docname="stone.svg"
   inkscape:version="0.92.2 5c3e80d, 2017-08-06"><metadata
     id="metadata8"><rdf:RDF><cc:Work
         rdf:about=""><dc:format>image/svg+xml</dc:format><dc:type
           rdf:resource="http://purl.org/dc/dcmitype/StillImage" /><dc:title></dc:title></cc:Work></rdf:RDF></metadata><defs
     id="defs6"><inkscape:path-effect
       effect="spiro"
       id="path-effect500"
       is_visible="true" /><inkscape:path-effect
       effect="simplify"
       id="path-effect498"
       is_visible="true"
       steps="1"
       threshold="0.00672131"
       smooth_angles="360"
       helper_size="0"
       simplify_individual_paths="false"
       simplify_just_coalesce="false"
       simplifyindividualpaths="false"
       simplifyJustCoalesce="false" /><inkscape:path-effect
       effect="spiro"
       id="path-effect494"
       is_visible="true" /><inkscape:path-effect
       effect="simplify"
       id="path-effect492"
       is_visible="true"
       steps="1"
       threshold="0.00672131"
       smooth_angles="360"
       helper_size="0"
       simplify_individual_paths="false"
       simplify_just_coalesce="false"
       simplifyindividualpaths="false"
       simplifyJustCoalesce="false" /><inkscape:perspective
       sodipodi:type="inkscape:persp3d"
       inkscape:vp_x="0 : 80.393399 : 1"
       inkscape:vp_y="0 : 999.99998 : 0"
       inkscape:vp_z="467.29401 : 80.393399 : 1"
       inkscape:persp3d-origin="233.64701 : 53.595599 : 1"
       id="perspective306" /></defs><sodipodi:namedview
     pagecolor="#ffffff"
     bordercolor="#666666"
     borderopacity="1"
     objecttolerance="10"
     gridtolerance="10"
     guidetolerance="10"
     inkscape:pageopacity="0"
     inkscape:pageshadow="2"
     inkscape:window-width="640"
     inkscape:window-height="480"
     id="namedview4"
     showgrid="false"
     inkscape:zoom="2.2697061"
     inkscape:cx="358.09718"
     inkscape:cy="121.84638"
     inkscape:current-layer="g10"
     inkscape:snap-global="false"
     fit-margin-top="0"
     fit-margin-left="0"
     fit-margin-right="0"
     fit-margin-bottom="0" /><g
     id="g10"
     inkscape:groupmode="layer"
     inkscape:label="document"
     transform="matrix(1.3333333,0,0,-1.3333333,-249.78768,245.31698)"><g
       id="g20"
       transform="translate(-2.353,-2.835)" /><g
       id="g22"
       transform="translate(-2.353,-2.835)" /><g
       id="g24"
       transform="translate(-2.353,-2.835)" /><g
       id="g26"
       transform="translate(-2.353,-2.835)" /><g
       id="g1060"
       transform="translate(346.94264,-107.03569)" /><g
       id="g1062"
       transform="translate(346.94264,-107.03569)" /><g
       id="g1064"
       transform="translate(346.94264,-107.03569)" /><g
       id="g1066"
       transform="translate(346.94264,-107.03569)" /><g
       id="g2090"
       transform="matrix(0.75148833,0,0,0.75148833,-75.681952,97.928399)"
       style="stroke-width:1.33069265"><g
         id="g2060"
         transform="translate(346.94264,-107.03569)"
         style="stroke-width:1.33069265"><path
           d="M 14.54192,32.4572 C 7.56854,31.23831 -3.54333,18.62376 8.19225,7.39856 19.956,-3.82664 81.15709,3.68521 51.53429,40.22429 26.58939,26.81604 35.15019,39.09018 14.54192,32.4572 Z"
           style="fill:#edd425;fill-opacity:1;fill-rule:nonzero;stroke:none;stroke-width:1.33069265"
           id="path2058"
           inkscape:connector-curvature="0" /></g><g
         id="g2064"
         transform="translate(346.94264,-107.03569)"
         style="stroke-width:1.33069265"><path
           d="m 39.68533,42.5202 c 0,9.78481 -6.34555,17.71675 -14.1734,17.71675 -7.82785,0 -14.17338,-7.93194 -14.17338,-17.71675 0,-9.78482 6.34553,-17.71675 14.17338,-17.71675 7.82785,0 14.1734,7.93193 14.1734,17.71675 z"
           style="fill:#edd425;fill-opacity:1;fill-rule:nonzero;stroke:none;stroke-width:1.33069265"
           id="path2062"
           inkscape:connector-curvature="0" /></g><g
         id="g2068"
         transform="translate(346.94264,-107.03569)"
         style="stroke-width:1.33069265"><path
           d="m 11.50896,41.72649 c 6.71817,1.64408 3.82667,-4.79078 14.28672,-2.89151 C 2.35255,24.09494 7.6252,38.80685 11.50896,41.72649 Z"
           style="fill:#df8020;fill-opacity:1;fill-rule:nonzero;stroke:none;stroke-width:1.33069265"
           id="path2066"
           inkscape:connector-curvature="0" /></g><g
         id="g2072"
         transform="translate(346.94264,-107.03569)"
         style="stroke-width:1.33069265"><path
           d="m 25.64157,43.98607 c 0.66931,1.83893 0.14699,3.71725 -1.16667,4.19537 -1.31365,0.47812 -2.92114,-0.625 -3.59045,-2.46393 -0.66932,-1.83894 -0.14699,-3.71727 1.16665,-4.19538 1.31365,-0.47813 2.92114,0.625 3.59047,2.46394 z"
           style="fill:#fffdd9;fill-opacity:1;fill-rule:nonzero;stroke:none;stroke-width:1.33069265"
           id="path2070"
           inkscape:connector-curvature="0" /></g><g
         id="g2076"
         transform="translate(346.94264,-107.03569)"
         style="stroke-width:1.33069265"><path
           d="m 24.91628,43.94853 c 0.38229,1.05034 0.26637,2.05677 -0.2589,2.24794 -0.52528,0.19119 -1.26102,-0.50527 -1.6433,-1.55562 -0.38228,-1.05032 -0.26637,-2.05676 0.25892,-2.24794 0.52526,-0.19117 1.261,0.50529 1.64328,1.55562 z"
           style="fill:#000000;fill-opacity:1;fill-rule:nonzero;stroke:none;stroke-width:1.33069265"
           id="path2074"
           inkscape:connector-curvature="0" /></g><g
         id="g2080"
         transform="translate(346.94264,-107.03569)"
         style="stroke-width:1.33069265"><path
           d="m 17.36542,46.16888 c 0.61204,1.68158 0.17085,3.38593 -0.98545,3.80678 -1.15629,0.42085 -2.58981,-0.60113 -3.20185,-2.28271 -0.61205,-1.68158 -0.17086,-3.38593 0.98544,-3.80678 1.15628,-0.42085 2.5898,0.60113 3.20186,2.28271 z"
           style="fill:#fffdd9;fill-opacity:1;fill-rule:nonzero;stroke:none;stroke-width:1.33069265"
           id="path2078"
           inkscape:connector-curvature="0" /></g><g
         id="g2084"
         transform="translate(346.94264,-107.03569)"
         style="stroke-width:1.33069265"><path
           d="m 16.73549,46.09622 c 0.34428,0.94594 0.28239,1.8369 -0.13828,1.99001 -0.42067,0.15309 -1.04078,-0.48961 -1.38508,-1.43556 -0.3443,-0.94594 -0.2824,-1.8369 0.13827,-1.98999 0.42067,-0.15311 1.04079,0.4896 1.38509,1.43554 z"
           style="fill:#000000;fill-opacity:1;fill-rule:nonzero;stroke:none;stroke-width:1.33069265"
           id="path2082"
           inkscape:connector-curvature="0" /></g><g
         id="g2088"
         transform="translate(346.94264,-107.03569)"
         style="fill:#2d2d2d;fill-opacity:1;stroke-width:1.33069265"><path
           d="m 44.043782,36.746448 c 0,0 -1.158082,7.392302 -3.125282,13.753212 -5.0542,16.31924 -31.44508,13.65783 -29.27936,-6.77745 0.2777,3.97115 4.49581,10.68932 4.49581,10.68932 0,0 7.88907,-2.24789 15.1345,-3.8297 -0.63237,-4.48973 -2.057948,-20.201508 -2.057948,-20.201508 2.34133,-1.57617 14.83228,6.366126 14.83228,6.366126 z"
           style="fill:#f5f5f5;fill-opacity:1;fill-rule:nonzero;stroke:none;stroke-width:1.33069265"
           id="path2086"
           inkscape:connector-curvature="0"
           sodipodi:nodetypes="ccccccc" /></g></g><g
       style="stroke-width:1.33069265"
       transform="matrix(0.75148833,0,0,0.75148833,-30.976935,104.39177)"
       id="g2124"><g
         style="stroke-width:1.33069265"
         transform="translate(346.94264,-107.03569)"
         id="g2094"><path
           inkscape:connector-curvature="0"
           id="path2092"
           style="fill:#edd425;fill-opacity:1;fill-rule:nonzero;stroke:none;stroke-width:1.33069265"
           d="M 14.54192,32.4572 C 7.56854,31.23831 -3.54333,18.62376 8.19225,7.39856 19.956,-3.82664 81.15709,3.68521 51.53429,40.22429 26.58939,26.81604 35.15019,39.09018 14.54192,32.4572 Z" /></g><g
         style="stroke-width:1.33069265"
         transform="translate(346.94264,-107.03569)"
         id="g2098"><path
           inkscape:connector-curvature="0"
           id="path2096"
           style="fill:#edd425;fill-opacity:1;fill-rule:nonzero;stroke:none;stroke-width:1.33069265"
           d="m 39.68533,42.5202 c 0,9.78481 -6.34555,17.71675 -14.1734,17.71675 -7.82785,0 -14.17338,-7.93194 -14.17338,-17.71675 0,-9.78482 6.34553,-17.71675 14.17338,-17.71675 7.82785,0 14.1734,7.93193 14.1734,17.71675 z" /></g><g
         style="stroke-width:1.33069265"
         transform="translate(346.94264,-107.03569)"
         id="g2102"><path
           inkscape:connector-curvature="0"
           id="path2100"
           style="fill:#df8020;fill-opacity:1;fill-rule:nonzero;stroke:none;stroke-width:1.33069265"
           d="m 11.50896,41.72649 c 6.71817,1.64408 3.82667,-4.79078 14.28672,-2.89151 C 2.35255,24.09494 7.6252,38.80685 11.50896,41.72649 Z" /></g><g
         style="stroke-width:1.33069265"
         transform="translate(346.94264,-107.03569)"
         id="g2106"><path
           inkscape:connector-curvature="0"
           id="path2104"
           style="fill:#fffdd9;fill-opacity:1;fill-rule:nonzero;stroke:none;stroke-width:1.33069265"
           d="m 25.64157,43.98607 c 0.66931,1.83893 0.14699,3.71725 -1.16667,4.19537 -1.31365,0.47812 -2.92114,-0.625 -3.59045,-2.46393 -0.66932,-1.83894 -0.14699,-3.71727 1.16665,-4.19538 1.31365,-0.47813 2.92114,0.625 3.59047,2.46394 z" /></g><g
         style="stroke-width:1.33069265"
         transform="translate(346.94264,-107.03569)"
         id="g2110"><path
           inkscape:connector-curvature="0"
           id="path2108"
           style="fill:#000000;fill-opacity:1;fill-rule:nonzero;stroke:none;stroke-width:1.33069265"
           d="m 24.91628,43.94853 c 0.38229,1.05034 0.26637,2.05677 -0.2589,2.24794 -0.52528,0.19119 -1.26102,-0.50527 -1.6433,-1.55562 -0.38228,-1.05032 -0.26637,-2.05676 0.25892,-2.24794 0.52526,-0.19117 1.261,0.50529 1.64328,1.55562 z" /></g><g
         style="stroke-width:1.33069265"
         transform="translate(346.94264,-107.03569)"
         id="g2114"><path
           inkscape:connector-curvature="0"
           id="path2112"
           style="fill:#fffdd9;fill-opacity:1;fill-rule:nonzero;stroke:none;stroke-width:1.33069265"
           d="m 17.36542,46.16888 c 0.61204,1.68158 0.17085,3.38593 -0.98545,3.80678 -1.15629,0.42085 -2.58981,-0.60113 -3.20185,-2.28271 -0.61205,-1.68158 -0.17086,-3.38593 0.98544,-3.80678 1.15628,-0.42085 2.5898,0.60113 3.20186,2.28271 z" /></g><g
         style="stroke-width:1.33069265"
         transform="translate(346.94264,-107.03569)"
         id="g2118"><path
           inkscape:connector-curvature="0"
           id="path2116"
           style="fill:#000000;fill-opacity:1;fill-rule:nonzero;stroke:none;stroke-width:1.33069265"
           d="m 16.73549,46.09622 c 0.34428,0.94594 0.28239,1.8369 -0.13828,1.99001 -0.42067,0.15309 -1.04078,-0.48961 -1.38508,-1.43556 -0.3443,-0.94594 -0.2824,-1.8369 0.13827,-1.98999 0.42067,-0.15311 1.04079,0.4896 1.38509,1.43554 z" /></g><g
         style="fill:#2d2d2d;fill-opacity:1;stroke-width:1.33069265"
         transform="translate(346.94264,-107.03569)"
         id="g2122"><path
           sodipodi:nodetypes="ccccccc"
           inkscape:connector-curvature="0"
           id="path2120"
           style="fill:#f5f5f5;fill-opacity:1;fill-rule:nonzero;stroke:none;stroke-width:1.33069265"
           d="m 44.043782,36.746448 c 0,0 -1.158082,7.392302 -3.125282,13.753212 -5.0542,16.31924 -31.44508,13.65783 -29.27936,-6.77745 0.2777,3.97115 4.49581,10.68932 4.49581,10.68932 0,0 7.88907,-2.24789 15.1345,-3.8297 -0.63237,-4.48973 -2.057948,-20.201508 -2.057948,-20.201508 2.34133,-1.57617 14.83228,6.366126 14.83228,6.366126 z" /></g></g><g
       id="g2158"
       transform="matrix(0.75148833,0,0,0.75148833,16.95977,111.93238)"
       style="stroke-width:1.33069265"><g
         id="g2128"
         transform="translate(346.94264,-107.03569)"
         style="stroke-width:1.33069265"><path
           d="M 14.54192,32.4572 C 7.56854,31.23831 -3.54333,18.62376 8.19225,7.39856 19.956,-3.82664 81.15709,3.68521 51.53429,40.22429 26.58939,26.81604 35.15019,39.09018 14.54192,32.4572 Z"
           style="fill:#edd425;fill-opacity:1;fill-rule:nonzero;stroke:none;stroke-width:1.33069265"
           id="path2126"
           inkscape:connector-curvature="0" /></g><g
         id="g2132"
         transform="translate(346.94264,-107.03569)"
         style="stroke-width:1.33069265"><path
           d="m 39.68533,42.5202 c 0,9.78481 -6.34555,17.71675 -14.1734,17.71675 -7.82785,0 -14.17338,-7.93194 -14.17338,-17.71675 0,-9.78482 6.34553,-17.71675 14.17338,-17.71675 7.82785,0 14.1734,7.93193 14.1734,17.71675 z"
           style="fill:#edd425;fill-opacity:1;fill-rule:nonzero;stroke:none;stroke-width:1.33069265"
           id="path2130"
           inkscape:connector-curvature="0" /></g><g
         id="g2136"
         transform="translate(346.94264,-107.03569)"
         style="stroke-width:1.33069265"><path
           d="m 11.50896,41.72649 c 6.71817,1.64408 3.82667,-4.79078 14.28672,-2.89151 C 2.35255,24.09494 7.6252,38.80685 11.50896,41.72649 Z"
           style="fill:#df8020;fill-opacity:1;fill-rule:nonzero;stroke:none;stroke-width:1.33069265"
           id="path2134"
           inkscape:connector-curvature="0" /></g><g
         id="g2140"
         transform="translate(346.94264,-107.03569)"
         style="stroke-width:1.33069265"><path
           d="m 25.64157,43.98607 c 0.66931,1.83893 0.14699,3.71725 -1.16667,4.19537 -1.31365,0.47812 -2.92114,-0.625 -3.59045,-2.46393 -0.66932,-1.83894 -0.14699,-3.71727 1.16665,-4.19538 1.31365,-0.47813 2.92114,0.625 3.59047,2.46394 z"
           style="fill:#fffdd9;fill-opacity:1;fill-rule:nonzero;stroke:none;stroke-width:1.33069265"
           id="path2138"
           inkscape:connector-curvature="0" /></g><g
         id="g2144"
         transform="translate(346.94264,-107.03569)"
         style="stroke-width:1.33069265"><path
           d="m 24.91628,43.94853 c 0.38229,1.05034 0.26637,2.05677 -0.2589,2.24794 -0.52528,0.19119 -1.26102,-0.50527 -1.6433,-1.55562 -0.38228,-1.05032 -0.26637,-2.05676 0.25892,-2.24794 0.52526,-0.19117 1.261,0.50529 1.64328,1.55562 z"
           style="fill:#000000;fill-opacity:1;fill-rule:nonzero;stroke:none;stroke-width:1.33069265"
           id="path2142"
           inkscape:connector-curvature="0" /></g><g
         id="g2148"
         transform="translate(346.94264,-107.03569)"
         style="stroke-width:1.33069265"><path
           d="m 17.36542,46.16888 c 0.61204,1.68158 0.17085,3.38593 -0.98545,3.80678 -1.15629,0.42085 -2.58981,-0.60113 -3.20185,-2.28271 -0.61205,-1.68158 -0.17086,-3.38593 0.98544,-3.80678 1.15628,-0.42085 2.5898,0.60113 3.20186,2.28271 z"
           style="fill:#fffdd9;fill-opacity:1;fill-rule:nonzero;stroke:none;stroke-width:1.33069265"
           id="path2146"
           inkscape:connector-curvature="0" /></g><g
         id="g2152"
         transform="translate(346.94264,-107.03569)"
         style="stroke-width:1.33069265"><path
           d="m 16.73549,46.09622 c 0.34428,0.94594 0.28239,1.8369 -0.13828,1.99001 -0.42067,0.15309 -1.04078,-0.48961 -1.38508,-1.43556 -0.3443,-0.94594 -0.2824,-1.8369 0.13827,-1.98999 0.42067,-0.15311 1.04079,0.4896 1.38509,1.43554 z"
           style="fill:#000000;fill-opacity:1;fill-rule:nonzero;stroke:none;stroke-width:1.33069265"
           id="path2150"
           inkscape:connector-curvature="0" /></g><g
         id="g2156"
         transform="translate(346.94264,-107.03569)"
         style="fill:#2d2d2d;fill-opacity:1;stroke-width:1.33069265"><path
           d="m 44.043782,36.746448 c 0,0 -1.158082,7.392302 -3.125282,13.753212 -5.0542,16.31924 -31.44508,13.65783 -29.27936,-6.77745 0.2777,3.97115 4.49581,10.68932 4.49581,10.68932 0,0 7.88907,-2.24789 15.1345,-3.8297 -0.63237,-4.48973 -2.057948,-20.201508 -2.057948,-20.201508 2.34133,-1.57617 14.83228,6.366126 14.83228,6.366126 z"
           style="fill:#f5f5f5;fill-opacity:1;fill-rule:nonzero;stroke:none;stroke-width:1.33069265"
           id="path2154"
           inkscape:connector-curvature="0"
           sodipodi:nodetypes="ccccccc" /></g></g><g
       style="stroke-width:1.33069265"
       transform="matrix(0.75148833,0,0,0.75148833,64.357861,120.0116)"
       id="g2192"><g
         style="stroke-width:1.33069265"
         transform="translate(346.94264,-107.03569)"
         id="g2162"><path
           inkscape:connector-curvature="0"
           id="path2160"
           style="fill:#edd425;fill-opacity:1;fill-rule:nonzero;stroke:none;stroke-width:1.33069265"
           d="M 14.54192,32.4572 C 7.56854,31.23831 -3.54333,18.62376 8.19225,7.39856 19.956,-3.82664 81.15709,3.68521 51.53429,40.22429 26.58939,26.81604 35.15019,39.09018 14.54192,32.4572 Z" /></g><g
         style="stroke-width:1.33069265"
         transform="translate(346.94264,-107.03569)"
         id="g2166"><path
           inkscape:connector-curvature="0"
           id="path2164"
           style="fill:#edd425;fill-opacity:1;fill-rule:nonzero;stroke:none;stroke-width:1.33069265"
           d="m 39.68533,42.5202 c 0,9.78481 -6.34555,17.71675 -14.1734,17.71675 -7.82785,0 -14.17338,-7.93194 -14.17338,-17.71675 0,-9.78482 6.34553,-17.71675 14.17338,-17.71675 7.82785,0 14.1734,7.93193 14.1734,17.71675 z" /></g><g
         style="stroke-width:1.33069265"
         transform="translate(346.94264,-107.03569)"
         id="g2170"><path
           inkscape:connector-curvature="0"
           id="path2168"
           style="fill:#df8020;fill-opacity:1;fill-rule:nonzero;stroke:none;stroke-width:1.33069265"
           d="m 11.50896,41.72649 c 6.71817,1.64408 3.82667,-4.79078 14.28672,-2.89151 C 2.35255,24.09494 7.6252,38.80685 11.50896,41.72649 Z" /></g><g
         style="stroke-width:1.33069265"
         transform="translate(346.94264,-107.03569)"
         id="g2174"><path
           inkscape:connector-curvature="0"
           id="path2172"
           style="fill:#fffdd9;fill-opacity:1;fill-rule:nonzero;stroke:none;stroke-width:1.33069265"
           d="m 25.64157,43.98607 c 0.66931,1.83893 0.14699,3.71725 -1.16667,4.19537 -1.31365,0.47812 -2.92114,-0.625 -3.59045,-2.46393 -0.66932,-1.83894 -0.14699,-3.71727 1.16665,-4.19538 1.31365,-0.47813 2.92114,0.625 3.59047,2.46394 z" /></g><g
         style="stroke-width:1.33069265"
         transform="translate(346.94264,-107.03569)"
         id="g2178"><path
           inkscape:connector-curvature="0"
           id="path2176"
           style="fill:#000000;fill-opacity:1;fill-rule:nonzero;stroke:none;stroke-width:1.33069265"
           d="m 24.91628,43.94853 c 0.38229,1.05034 0.26637,2.05677 -0.2589,2.24794 -0.52528,0.19119 -1.26102,-0.50527 -1.6433,-1.55562 -0.38228,-1.05032 -0.26637,-2.05676 0.25892,-2.24794 0.52526,-0.19117 1.261,0.50529 1.64328,1.55562 z" /></g><g
         style="stroke-width:1.33069265"
         transform="translate(346.94264,-107.03569)"
         id="g2182"><path
           inkscape:connector-curvature="0"
           id="path2180"
           style="fill:#fffdd9;fill-opacity:1;fill-rule:nonzero;stroke:none;stroke-width:1.33069265"
           d="m 17.36542,46.16888 c 0.61204,1.68158 0.17085,3.38593 -0.98545,3.80678 -1.15629,0.42085 -2.58981,-0.60113 -3.20185,-2.28271 -0.61205,-1.68158 -0.17086,-3.38593 0.98544,-3.80678 1.15628,-0.42085 2.5898,0.60113 3.20186,2.28271 z" /></g><g
         style="stroke-width:1.33069265"
         transform="translate(346.94264,-107.03569)"
         id="g2186"><path
           inkscape:connector-curvature="0"
           id="path2184"
           style="fill:#000000;fill-opacity:1;fill-rule:nonzero;stroke:none;stroke-width:1.33069265"
           d="m 16.73549,46.09622 c 0.34428,0.94594 0.28239,1.8369 -0.13828,1.99001 -0.42067,0.15309 -1.04078,-0.48961 -1.38508,-1.43556 -0.3443,-0.94594 -0.2824,-1.8369 0.13827,-1.98999 0.42067,-0.15311 1.04079,0.4896 1.38509,1.43554 z" /></g><g
         style="fill:#2d2d2d;fill-opacity:1;stroke-width:1.33069265"
         transform="translate(346.94264,-107.03569)"
         id="g2190"><path
           sodipodi:nodetypes="ccccccc"
           inkscape:connector-curvature="0"
           id="path2188"
           style="fill:#f5f5f5;fill-opacity:1;fill-rule:nonzero;stroke:none;stroke-width:1.33069265"
           d="m 44.043782,36.746448 c 0,0 -1.158082,7.392302 -3.125282,13.753212 -5.0542,16.31924 -31.44508,13.65783 -29.27936,-6.77745 0.2777,3.97115 4.49581,10.68932 4.49581,10.68932 0,0 7.88907,-2.24789 15.1345,-3.8297 -0.63237,-4.48973 -2.057948,-20.201508 -2.057948,-20.201508 2.34133,-1.57617 14.83228,6.366126 14.83228,6.366126 z" /></g></g><rect
       transform="matrix(0.99102437,0.13368131,0.48150838,-0.87644149,0,0)"
       y="-6.8197904"
       x="206.03661"
       height="2.3544745"
       width="197.125"
       id="rect2332"
       style="opacity:1;fill:#660000;fill-opacity:1;fill-rule:nonzero;stroke:none;stroke-width:0.38824296;stroke-linecap:butt;stroke-linejoin:miter;stroke-miterlimit:4;stroke-dasharray:none;stroke-dashoffset:0;stroke-opacity:1" /><g
       id="g2226"
       transform="matrix(0.75148833,0,0,0.75148833,-47.67399,69.920436)"
       style="stroke-width:1.33069265"><g
         id="g2196"
         transform="translate(346.94264,-107.03569)"
         style="stroke-width:1.33069265"><path
           d="M 14.54192,32.4572 C 7.56854,31.23831 -3.54333,18.62376 8.19225,7.39856 19.956,-3.82664 81.15709,3.68521 51.53429,40.22429 26.58939,26.81604 35.15019,39.09018 14.54192,32.4572 Z"
           style="fill:#edd425;fill-opacity:1;fill-rule:nonzero;stroke:none;stroke-width:1.33069265"
           id="path2194"
           inkscape:connector-curvature="0" /></g><g
         id="g2200"
         transform="translate(346.94264,-107.03569)"
         style="stroke-width:1.33069265"><path
           d="m 39.68533,42.5202 c 0,9.78481 -6.34555,17.71675 -14.1734,17.71675 -7.82785,0 -14.17338,-7.93194 -14.17338,-17.71675 0,-9.78482 6.34553,-17.71675 14.17338,-17.71675 7.82785,0 14.1734,7.93193 14.1734,17.71675 z"
           style="fill:#edd425;fill-opacity:1;fill-rule:nonzero;stroke:none;stroke-width:1.33069265"
           id="path2198"
           inkscape:connector-curvature="0" /></g><g
         id="g2204"
         transform="translate(346.94264,-107.03569)"
         style="stroke-width:1.33069265"><path
           d="m 11.50896,41.72649 c 6.71817,1.64408 3.82667,-4.79078 14.28672,-2.89151 C 2.35255,24.09494 7.6252,38.80685 11.50896,41.72649 Z"
           style="fill:#df8020;fill-opacity:1;fill-rule:nonzero;stroke:none;stroke-width:1.33069265"
           id="path2202"
           inkscape:connector-curvature="0" /></g><g
         id="g2208"
         transform="translate(346.94264,-107.03569)"
         style="stroke-width:1.33069265"><path
           d="m 25.64157,43.98607 c 0.66931,1.83893 0.14699,3.71725 -1.16667,4.19537 -1.31365,0.47812 -2.92114,-0.625 -3.59045,-2.46393 -0.66932,-1.83894 -0.14699,-3.71727 1.16665,-4.19538 1.31365,-0.47813 2.92114,0.625 3.59047,2.46394 z"
           style="fill:#fffdd9;fill-opacity:1;fill-rule:nonzero;stroke:none;stroke-width:1.33069265"
           id="path2206"
           inkscape:connector-curvature="0" /></g><g
         id="g2212"
         transform="translate(346.94264,-107.03569)"
         style="stroke-width:1.33069265"><path
           d="m 24.91628,43.94853 c 0.38229,1.05034 0.26637,2.05677 -0.2589,2.24794 -0.52528,0.19119 -1.26102,-0.50527 -1.6433,-1.55562 -0.38228,-1.05032 -0.26637,-2.05676 0.25892,-2.24794 0.52526,-0.19117 1.261,0.50529 1.64328,1.55562 z"
           style="fill:#000000;fill-opacity:1;fill-rule:nonzero;stroke:none;stroke-width:1.33069265"
           id="path2210"
           inkscape:connector-curvature="0" /></g><g
         id="g2216"
         transform="translate(346.94264,-107.03569)"
         style="stroke-width:1.33069265"><path
           d="m 17.36542,46.16888 c 0.61204,1.68158 0.17085,3.38593 -0.98545,3.80678 -1.15629,0.42085 -2.58981,-0.60113 -3.20185,-2.28271 -0.61205,-1.68158 -0.17086,-3.38593 0.98544,-3.80678 1.15628,-0.42085 2.5898,0.60113 3.20186,2.28271 z"
           style="fill:#fffdd9;fill-opacity:1;fill-rule:nonzero;stroke:none;stroke-width:1.33069265"
           id="path2214"
           inkscape:connector-curvature="0" /></g><g
         id="g2220"
         transform="translate(346.94264,-107.03569)"
         style="stroke-width:1.33069265"><path
           d="m 16.73549,46.09622 c 0.34428,0.94594 0.28239,1.8369 -0.13828,1.99001 -0.42067,0.15309 -1.04078,-0.48961 -1.38508,-1.43556 -0.3443,-0.94594 -0.2824,-1.8369 0.13827,-1.98999 0.42067,-0.15311 1.04079,0.4896 1.38509,1.43554 z"
           style="fill:#000000;fill-opacity:1;fill-rule:nonzero;stroke:none;stroke-width:1.33069265"
           id="path2218"
           inkscape:connector-curvature="0" /></g><g
         id="g2224"
         transform="translate(346.94264,-107.03569)"
         style="fill:#2d2d2d;fill-opacity:1;stroke-width:1.33069265"><path
           d="m 44.043782,36.746448 c 0,0 -1.158082,7.392302 -3.125282,13.753212 -5.0542,16.31924 -31.44508,13.65783 -29.27936,-6.77745 0.2777,3.97115 4.49581,10.68932 4.49581,10.68932 0,0 7.88907,-2.24789 15.1345,-3.8297 -0.63237,-4.48973 -2.057948,-20.201508 -2.057948,-20.201508 2.34133,-1.57617 14.83228,6.366126 14.83228,6.366126 z"
           style="fill:#f5f5f5;fill-opacity:1;fill-rule:nonzero;stroke:none;stroke-width:1.33069265"
           id="path2222"
           inkscape:connector-curvature="0"
           sodipodi:nodetypes="ccccccc" /></g></g><g
       style="stroke-width:1.33069265"
       transform="matrix(0.75148833,0,0,0.75148833,-0.27589893,79.076886)"
       id="g2260"><g
         style="stroke-width:1.33069265"
         transform="translate(346.94264,-107.03569)"
         id="g2230"><path
           inkscape:connector-curvature="0"
           id="path2228"
           style="fill:#edd425;fill-opacity:1;fill-rule:nonzero;stroke:none;stroke-width:1.33069265"
           d="M 14.54192,32.4572 C 7.56854,31.23831 -3.54333,18.62376 8.19225,7.39856 19.956,-3.82664 81.15709,3.68521 51.53429,40.22429 26.58939,26.81604 35.15019,39.09018 14.54192,32.4572 Z" /></g><g
         style="stroke-width:1.33069265"
         transform="translate(346.94264,-107.03569)"
         id="g2234"><path
           inkscape:connector-curvature="0"
           id="path2232"
           style="fill:#edd425;fill-opacity:1;fill-rule:nonzero;stroke:none;stroke-width:1.33069265"
           d="m 39.68533,42.5202 c 0,9.78481 -6.34555,17.71675 -14.1734,17.71675 -7.82785,0 -14.17338,-7.93194 -14.17338,-17.71675 0,-9.78482 6.34553,-17.71675 14.17338,-17.71675 7.82785,0 14.1734,7.93193 14.1734,17.71675 z" /></g><g
         style="stroke-width:1.33069265"
         transform="translate(346.94264,-107.03569)"
         id="g2238"><path
           inkscape:connector-curvature="0"
           id="path2236"
           style="fill:#df8020;fill-opacity:1;fill-rule:nonzero;stroke:none;stroke-width:1.33069265"
           d="m 11.50896,41.72649 c 6.71817,1.64408 3.82667,-4.79078 14.28672,-2.89151 C 2.35255,24.09494 7.6252,38.80685 11.50896,41.72649 Z" /></g><g
         style="stroke-width:1.33069265"
         transform="translate(346.94264,-107.03569)"
         id="g2242"><path
           inkscape:connector-curvature="0"
           id="path2240"
           style="fill:#fffdd9;fill-opacity:1;fill-rule:nonzero;stroke:none;stroke-width:1.33069265"
           d="m 25.64157,43.98607 c 0.66931,1.83893 0.14699,3.71725 -1.16667,4.19537 -1.31365,0.47812 -2.92114,-0.625 -3.59045,-2.46393 -0.66932,-1.83894 -0.14699,-3.71727 1.16665,-4.19538 1.31365,-0.47813 2.92114,0.625 3.59047,2.46394 z" /></g><g
         style="stroke-width:1.33069265"
         transform="translate(346.94264,-107.03569)"
         id="g2246"><path
           inkscape:connector-curvature="0"
           id="path2244"
           style="fill:#000000;fill-opacity:1;fill-rule:nonzero;stroke:none;stroke-width:1.33069265"
           d="m 24.91628,43.94853 c 0.38229,1.05034 0.26637,2.05677 -0.2589,2.24794 -0.52528,0.19119 -1.26102,-0.50527 -1.6433,-1.55562 -0.38228,-1.05032 -0.26637,-2.05676 0.25892,-2.24794 0.52526,-0.19117 1.261,0.50529 1.64328,1.55562 z" /></g><g
         style="stroke-width:1.33069265"
         transform="translate(346.94264,-107.03569)"
         id="g2250"><path
           inkscape:connector-curvature="0"
           id="path2248"
           style="fill:#fffdd9;fill-opacity:1;fill-rule:nonzero;stroke:none;stroke-width:1.33069265"
           d="m 17.36542,46.16888 c 0.61204,1.68158 0.17085,3.38593 -0.98545,3.80678 -1.15629,0.42085 -2.58981,-0.60113 -3.20185,-2.28271 -0.61205,-1.68158 -0.17086,-3.38593 0.98544,-3.80678 1.15628,-0.42085 2.5898,0.60113 3.20186,2.28271 z" /></g><g
         style="stroke-width:1.33069265"
         transform="translate(346.94264,-107.03569)"
         id="g2254"><path
           inkscape:connector-curvature="0"
           id="path2252"
           style="fill:#000000;fill-opacity:1;fill-rule:nonzero;stroke:none;stroke-width:1.33069265"
           d="m 16.73549,46.09622 c 0.34428,0.94594 0.28239,1.8369 -0.13828,1.99001 -0.42067,0.15309 -1.04078,-0.48961 -1.38508,-1.43556 -0.3443,-0.94594 -0.2824,-1.8369 0.13827,-1.98999 0.42067,-0.15311 1.04079,0.4896 1.38509,1.43554 z" /></g><g
         style="fill:#2d2d2d;fill-opacity:1;stroke-width:1.33069265"
         transform="translate(346.94264,-107.03569)"
         id="g2258"><path
           sodipodi:nodetypes="ccccccc"
           inkscape:connector-curvature="0"
           id="path2256"
           style="fill:#f5f5f5;fill-opacity:1;fill-rule:nonzero;stroke:none;stroke-width:1.33069265"
           d="m 44.043782,36.746448 c 0,0 -1.158082,7.392302 -3.125282,13.753212 -5.0542,16.31924 -31.44508,13.65783 -29.27936,-6.77745 0.2777,3.97115 4.49581,10.68932 4.49581,10.68932 0,0 7.88907,-2.24789 15.1345,-3.8297 -0.63237,-4.48973 -2.057948,-20.201508 -2.057948,-20.201508 2.34133,-1.57617 14.83228,6.366126 14.83228,6.366126 z" /></g></g><g
       id="g2294"
       transform="matrix(0.75148833,0,0,0.75148833,46.583577,88.77195)"
       style="stroke-width:1.33069265"><g
         id="g2264"
         transform="translate(346.94264,-107.03569)"
         style="stroke-width:1.33069265"><path
           d="M 14.54192,32.4572 C 7.56854,31.23831 -3.54333,18.62376 8.19225,7.39856 19.956,-3.82664 81.15709,3.68521 51.53429,40.22429 26.58939,26.81604 35.15019,39.09018 14.54192,32.4572 Z"
           style="fill:#edd425;fill-opacity:1;fill-rule:nonzero;stroke:none;stroke-width:1.33069265"
           id="path2262"
           inkscape:connector-curvature="0" /></g><g
         id="g2268"
         transform="translate(346.94264,-107.03569)"
         style="stroke-width:1.33069265"><path
           d="m 39.68533,42.5202 c 0,9.78481 -6.34555,17.71675 -14.1734,17.71675 -7.82785,0 -14.17338,-7.93194 -14.17338,-17.71675 0,-9.78482 6.34553,-17.71675 14.17338,-17.71675 7.82785,0 14.1734,7.93193 14.1734,17.71675 z"
           style="fill:#edd425;fill-opacity:1;fill-rule:nonzero;stroke:none;stroke-width:1.33069265"
           id="path2266"
           inkscape:connector-curvature="0" /></g><g
         id="g2272"
         transform="translate(346.94264,-107.03569)"
         style="stroke-width:1.33069265"><path
           d="m 11.50896,41.72649 c 6.71817,1.64408 3.82667,-4.79078 14.28672,-2.89151 C 2.35255,24.09494 7.6252,38.80685 11.50896,41.72649 Z"
           style="fill:#df8020;fill-opacity:1;fill-rule:nonzero;stroke:none;stroke-width:1.33069265"
           id="path2270"
           inkscape:connector-curvature="0" /></g><g
         id="g2276"
         transform="translate(346.94264,-107.03569)"
         style="stroke-width:1.33069265"><path
           d="m 25.64157,43.98607 c 0.66931,1.83893 0.14699,3.71725 -1.16667,4.19537 -1.31365,0.47812 -2.92114,-0.625 -3.59045,-2.46393 -0.66932,-1.83894 -0.14699,-3.71727 1.16665,-4.19538 1.31365,-0.47813 2.92114,0.625 3.59047,2.46394 z"
           style="fill:#fffdd9;fill-opacity:1;fill-rule:nonzero;stroke:none;stroke-width:1.33069265"
           id="path2274"
           inkscape:connector-curvature="0" /></g><g
         id="g2280"
         transform="translate(346.94264,-107.03569)"
         style="stroke-width:1.33069265"><path
           d="m 24.91628,43.94853 c 0.38229,1.05034 0.26637,2.05677 -0.2589,2.24794 -0.52528,0.19119 -1.26102,-0.50527 -1.6433,-1.55562 -0.38228,-1.05032 -0.26637,-2.05676 0.25892,-2.24794 0.52526,-0.19117 1.261,0.50529 1.64328,1.55562 z"
           style="fill:#000000;fill-opacity:1;fill-rule:nonzero;stroke:none;stroke-width:1.33069265"
           id="path2278"
           inkscape:connector-curvature="0" /></g><g
         id="g2284"
         transform="translate(346.94264,-107.03569)"
         style="stroke-width:1.33069265"><path
           d="m 17.36542,46.16888 c 0.61204,1.68158 0.17085,3.38593 -0.98545,3.80678 -1.15629,0.42085 -2.58981,-0.60113 -3.20185,-2.28271 -0.61205,-1.68158 -0.17086,-3.38593 0.98544,-3.80678 1.15628,-0.42085 2.5898,0.60113 3.20186,2.28271 z"
           style="fill:#fffdd9;fill-opacity:1;fill-rule:nonzero;stroke:none;stroke-width:1.33069265"
           id="path2282"
           inkscape:connector-curvature="0" /></g><g
         id="g2288"
         transform="translate(346.94264,-107.03569)"
         style="stroke-width:1.33069265"><path
           d="m 16.73549,46.09622 c 0.34428,0.94594 0.28239,1.8369 -0.13828,1.99001 -0.42067,0.15309 -1.04078,-0.48961 -1.38508,-1.43556 -0.3443,-0.94594 -0.2824,-1.8369 0.13827,-1.98999 0.42067,-0.15311 1.04079,0.4896 1.38509,1.43554 z"
           style="fill:#000000;fill-opacity:1;fill-rule:nonzero;stroke:none;stroke-width:1.33069265"
           id="path2286"
           inkscape:connector-curvature="0" /></g><g
         id="g2292"
         transform="translate(346.94264,-107.03569)"
         style="fill:#2d2d2d;fill-opacity:1;stroke-width:1.33069265"><path
           d="m 44.043782,36.746448 c 0,0 -1.158082,7.392302 -3.125282,13.753212 -5.0542,16.31924 -31.44508,13.65783 -29.27936,-6.77745 0.2777,3.97115 4.49581,10.68932 4.49581,10.68932 0,0 7.88907,-2.24789 15.1345,-3.8297 -0.63237,-4.48973 -2.057948,-20.201508 -2.057948,-20.201508 2.34133,-1.57617 14.83228,6.366126 14.83228,6.366126 z"
           style="fill:#f5f5f5;fill-opacity:1;fill-rule:nonzero;stroke:none;stroke-width:1.33069265"
           id="path2290"
           inkscape:connector-curvature="0"
           sodipodi:nodetypes="ccccccc" /></g></g><g
       style="stroke-width:1.33069265"
       transform="matrix(0.75148833,0,0,0.75148833,91.288595,96.312555)"
       id="g2328"><g
         style="stroke-width:1.33069265"
         transform="translate(346.94264,-107.03569)"
         id="g2298"><path
           inkscape:connector-curvature="0"
           id="path2296"
           style="fill:#edd425;fill-opacity:1;fill-rule:nonzero;stroke:none;stroke-width:1.33069265"
           d="M 14.54192,32.4572 C 7.56854,31.23831 -3.54333,18.62376 8.19225,7.39856 19.956,-3.82664 81.15709,3.68521 51.53429,40.22429 26.58939,26.81604 35.15019,39.09018 14.54192,32.4572 Z" /></g><g
         style="stroke-width:1.33069265"
         transform="translate(346.94264,-107.03569)"
         id="g2302"><path
           inkscape:connector-curvature="0"
           id="path2300"
           style="fill:#edd425;fill-opacity:1;fill-rule:nonzero;stroke:none;stroke-width:1.33069265"
           d="m 39.68533,42.5202 c 0,9.78481 -6.34555,17.71675 -14.1734,17.71675 -7.82785,0 -14.17338,-7.93194 -14.17338,-17.71675 0,-9.78482 6.34553,-17.71675 14.17338,-17.71675 7.82785,0 14.1734,7.93193 14.1734,17.71675 z" /></g><g
         style="stroke-width:1.33069265"
         transform="translate(346.94264,-107.03569)"
         id="g2306"><path
           inkscape:connector-curvature="0"
           id="path2304"
           style="fill:#df8020;fill-opacity:1;fill-rule:nonzero;stroke:none;stroke-width:1.33069265"
           d="m 11.50896,41.72649 c 6.71817,1.64408 3.82667,-4.79078 14.28672,-2.89151 C 2.35255,24.09494 7.6252,38.80685 11.50896,41.72649 Z" /></g><g
         style="stroke-width:1.33069265"
         transform="translate(346.94264,-107.03569)"
         id="g2310"><path
           inkscape:connector-curvature="0"
           id="path2308"
           style="fill:#fffdd9;fill-opacity:1;fill-rule:nonzero;stroke:none;stroke-width:1.33069265"
           d="m 25.64157,43.98607 c 0.66931,1.83893 0.14699,3.71725 -1.16667,4.19537 -1.31365,0.47812 -2.92114,-0.625 -3.59045,-2.46393 -0.66932,-1.83894 -0.14699,-3.71727 1.16665,-4.19538 1.31365,-0.47813 2.92114,0.625 3.59047,2.46394 z" /></g><g
         style="stroke-width:1.33069265"
         transform="translate(346.94264,-107.03569)"
         id="g2314"><path
           inkscape:connector-curvature="0"
           id="path2312"
           style="fill:#000000;fill-opacity:1;fill-rule:nonzero;stroke:none;stroke-width:1.33069265"
           d="m 24.91628,43.94853 c 0.38229,1.05034 0.26637,2.05677 -0.2589,2.24794 -0.52528,0.19119 -1.26102,-0.50527 -1.6433,-1.55562 -0.38228,-1.05032 -0.26637,-2.05676 0.25892,-2.24794 0.52526,-0.19117 1.261,0.50529 1.64328,1.55562 z" /></g><g
         style="stroke-width:1.33069265"
         transform="translate(346.94264,-107.03569)"
         id="g2318"><path
           inkscape:connector-curvature="0"
           id="path2316"
           style="fill:#fffdd9;fill-opacity:1;fill-rule:nonzero;stroke:none;stroke-width:1.33069265"
           d="m 17.36542,46.16888 c 0.61204,1.68158 0.17085,3.38593 -0.98545,3.80678 -1.15629,0.42085 -2.58981,-0.60113 -3.20185,-2.28271 -0.61205,-1.68158 -0.17086,-3.38593 0.98544,-3.80678 1.15628,-0.42085 2.5898,0.60113 3.20186,2.28271 z" /></g><g
         style="stroke-width:1.33069265"
         transform="translate(346.94264,-107.03569)"
         id="g2322"><path
           inkscape:connector-curvature="0"
           id="path2320"
           style="fill:#000000;fill-opacity:1;fill-rule:nonzero;stroke:none;stroke-width:1.33069265"
           d="m 16.73549,46.09622 c 0.34428,0.94594 0.28239,1.8369 -0.13828,1.99001 -0.42067,0.15309 -1.04078,-0.48961 -1.38508,-1.43556 -0.3443,-0.94594 -0.2824,-1.8369 0.13827,-1.98999 0.42067,-0.15311 1.04079,0.4896 1.38509,1.43554 z" /></g><g
         style="fill:#2d2d2d;fill-opacity:1;stroke-width:1.33069265"
         transform="translate(346.94264,-107.03569)"
         id="g2326"><path
           sodipodi:nodetypes="ccccccc"
           inkscape:connector-curvature="0"
           id="path2324"
           style="fill:#f5f5f5;fill-opacity:1;fill-rule:nonzero;stroke:none;stroke-width:1.33069265"
           d="m 44.043782,36.746448 c 0,0 -1.158082,7.392302 -3.125282,13.753212 -5.0542,16.31924 -31.44508,13.65783 -29.27936,-6.77745 0.2777,3.97115 4.49581,10.68932 4.49581,10.68932 0,0 7.88907,-2.24789 15.1345,-3.8297 -0.63237,-4.48973 -2.057948,-20.201508 -2.057948,-20.201508 2.34133,-1.57617 14.83228,6.366126 14.83228,6.366126 z" /></g></g><rect
       style="opacity:1;fill:#660000;fill-opacity:1;fill-rule:nonzero;stroke:none;stroke-width:0.39143479;stroke-linecap:butt;stroke-linejoin:miter;stroke-miterlimit:4;stroke-dasharray:none;stroke-dashoffset:0;stroke-opacity:1"
       id="rect2330"
       width="231.0101"
       height="2.079649"
       x="206.31038"
       y="44.595699"
       transform="matrix(0.98021475,0.19793696,0.57087315,-0.82103827,0,0)" /><path
       sodipodi:nodetypes="cczcczc"
       inkscape:connector-curvature="0"
       id="path2336"
       d="m 409.22644,82.467329 -10.49755,1.528914 c -8.84528,-50.51518 5.68929,-41.476265 48.08864,-31.453032 42.39935,10.023233 30.85842,16.903249 36.82491,32.480924 L 472.1325,84.77104 c -5.68744,-5.968097 6.33367,-13.444959 -29.39208,-22.501623 -35.72573,-9.056662 -36.4411,-11.134186 -33.51398,20.197912 z"
       style="fill:#660000;fill-opacity:1;fill-rule:evenodd;stroke:none;stroke-width:0.75px;stroke-linecap:butt;stroke-linejoin:miter;stroke-opacity:1" /><path
       style="fill:#fff8dc;fill-rule:evenodd;stroke:#808080;stroke-width:0.75px;stroke-linecap:butt;stroke-linejoin:miter;stroke-opacity:1"
       d="m 413.60392,55.827135 56.09555,-9.393989 46.43314,12.346386 v 49.385548 l -45.09115,3.48919 -57.70593,-2.4156 z"
       id="path2338"
       inkscape:connector-curvature="0"
       sodipodi:nodetypes="ccccccc" /><path
       style="fill:none;fill-rule:evenodd;stroke:#808080;stroke-width:0.75px;stroke-linecap:butt;stroke-linejoin:miter;stroke-opacity:1"
       d="m 413.33553,109.23867 56.05553,-5.36799 0.30841,-57.437534"
       id="path2340"
       inkscape:connector-curvature="0"
       sodipodi:nodetypes="ccc" /><path
       style="fill:none;fill-rule:evenodd;stroke:#808080;stroke-width:0.75px;stroke-linecap:butt;stroke-linejoin:miter;stroke-opacity:1"
       d="m 469.39106,103.87068 46.74155,4.2944"
       id="path2342"
       inkscape:connector-curvature="0"
       sodipodi:nodetypes="cc" /><path
       style="fill:#660000;fill-opacity:1;fill-rule:evenodd;stroke:none;stroke-width:0.75px;stroke-linecap:butt;stroke-linejoin:miter;stroke-opacity:1"
       d="M 459.42923,74.33427 448.3722,75.944668 C 439.05551,22.73725 454.36471,32.2579 499.02376,42.815327 543.68281,53.372755 531.5268,60.619446 537.81128,77.027343 L 525.68791,76.760759 C 519.69735,70.474588 532.35913,62.599242 494.72936,53.059898 457.0996,43.520555 456.34611,41.332308 459.42923,74.33427 Z"
       id="path2334"
       inkscape:connector-curvature="0"
       sodipodi:nodetypes="cczcczc" /><g
       style="stroke-width:1.53108144"
       id="g214"
       transform="matrix(0.65313311,0,0,0.65313311,469.13478,104.16885)"><path
         d="m -0.70892,5.66927 c 0,1.40895 -2.9189,2.5511 -6.51964,2.5511 -3.60074,0 -6.51964,-1.14215 -6.51964,-2.5511 0,-1.40896 2.9189,-2.55111 6.51964,-2.55111 3.60074,0 6.51964,1.14215 6.51964,2.55111 z"
         style="fill:#604020;fill-opacity:1;fill-rule:nonzero;stroke:none;stroke-width:1.53108144"
         id="path216"
         inkscape:connector-curvature="0" /></g><g
       style="stroke-width:1.53108144"
       id="g218"
       transform="matrix(0.65313311,0,0,0.65313311,469.13478,104.16885)"><path
         d="m 13.7482,5.66927 c 0,1.40895 -2.9189,2.5511 -6.51964,2.5511 -3.60074,0 -6.51964,-1.14215 -6.51964,-2.5511 0,-1.40896 2.9189,-2.55111 6.51964,-2.55111 3.60074,0 6.51964,1.14215 6.51964,2.55111 z"
         style="fill:#604020;fill-opacity:1;fill-rule:nonzero;stroke:none;stroke-width:1.53108144"
         id="path220"
         inkscape:connector-curvature="0" /></g><g
       style="stroke-width:1.53108144"
       id="g222"
       transform="matrix(0.65313311,0,0,0.65313311,469.13478,104.16885)"><path
         d="m 9.77966,57.54398 c 0,2.0353 -1.14215,3.68522 -2.5511,3.68522 -1.40895,0 -2.5511,-1.64992 -2.5511,-3.68522 0,-2.0353 1.14215,-3.68522 2.5511,-3.68522 1.40895,0 2.5511,1.64992 2.5511,3.68522 z"
         style="fill:#604020;fill-opacity:1;fill-rule:nonzero;stroke:none;stroke-width:1.53108144"
         id="path224"
         inkscape:connector-curvature="0" /></g><g
       style="stroke-width:1.53108144"
       id="g226"
       transform="matrix(0.65313311,0,0,0.65313311,469.13478,104.16885)"><path
         d="m -4.67746,57.54398 c 0,2.0353 -1.14215,3.68522 -2.5511,3.68522 -1.40895,0 -2.5511,-1.64992 -2.5511,-3.68522 0,-2.0353 1.14215,-3.68522 2.5511,-3.68522 1.40895,0 2.5511,1.64992 2.5511,3.68522 z"
         style="fill:#604020;fill-opacity:1;fill-rule:nonzero;stroke:none;stroke-width:1.53108144"
         id="path228"
         inkscape:connector-curvature="0" /></g><g
       style="stroke-width:1.53108144"
       id="g230"
       transform="matrix(0.65313311,0,0,0.65313311,469.13478,104.16885)"><path
         d="M 25.08675,18.9923 C 24.52013,11.33855 9.77966,6.80338 9.49635,12.47266 c -0.56705,3.40147 3.11817,1.98405 6.80297,2.5511 3.4019,0.28332 8.78743,5.38597 8.78743,3.96854 z"
         style="fill:#604020;fill-opacity:1;fill-rule:nonzero;stroke:none;stroke-width:1.53108144"
         id="path232"
         inkscape:connector-curvature="0" /></g><g
       style="stroke-width:1.53108144"
       id="g234"
       transform="matrix(0.65313311,0,0,0.65313311,469.13478,104.16885)"><path
         d="M 16.86638,26.079 C 16.86638,7.37 10.06299,5.1022 0,5.1022 -10.06299,5.1022 -16.86638,7.37 -16.86638,26.079 -17.14967,44.788 -9.49635,59.81177 0,59.81177 9.49635,59.81177 17.14967,44.788 16.86638,26.079 Z"
         style="fill:#bf8040;fill-opacity:1;fill-rule:nonzero;stroke:none;stroke-width:1.53108144"
         id="path236"
         inkscape:connector-curvature="0" /></g><g
       style="stroke-width:1.53108144"
       id="g238"
       transform="matrix(0.65313311,0,0,0.65313311,469.13478,104.16885)"><path
         d="m 12.04747,20.1264 c 0,-8.50412 -5.10265,-9.63823 -12.04747,-9.63823 -6.94482,0 -12.04747,1.13411 -12.04747,9.63823 0,8.50371 5.66928,15.59041 12.04747,15.59041 6.37819,0 12.04747,-7.0867 12.04747,-15.59041 z"
         style="fill:#dfbf9f;fill-opacity:1;fill-rule:nonzero;stroke:none;stroke-width:1.53108144"
         id="path240"
         inkscape:connector-curvature="0" /></g><g
       style="stroke-width:1.53108144"
       id="g242"
       transform="matrix(-0.51581943,0.40064096,-0.40064096,-0.51581943,496.84067,135.03853)"
       inkscape:transform-center-x="-5.4085849"
       inkscape:transform-center-y="-1.9357051"><path
         d="M 13.24028,32.75542 C 11.32771,33.45154 8.7355,31.1536 7.45038,27.62273 6.16525,24.09187 6.67387,20.6653 8.58644,19.9692 c 1.91256,-0.69613 4.50476,1.60181 5.7899,5.13268 1.28513,3.53086 0.77649,6.95743 -1.13606,7.65354 z"
         style="fill:#604020;fill-opacity:1;fill-rule:nonzero;stroke:none;stroke-width:1.53108144"
         id="path244"
         inkscape:connector-curvature="0" /></g><g
       style="stroke-width:1.53108144"
       id="g246"
       transform="matrix(0.65313311,0,0,0.65313311,469.13478,104.16885)"><path
         d="m -8.58644,19.9692 c 1.91257,0.6961 2.42119,4.12267 1.13606,7.65353 -1.28512,3.53087 -3.87733,5.82881 -5.7899,5.13269 -1.91255,-0.69611 -2.42119,-4.12268 -1.13606,-7.65354 1.28514,-3.53087 3.87734,-5.82881 5.7899,-5.13268 z"
         style="fill:#604020;fill-opacity:1;fill-rule:nonzero;stroke:none;stroke-width:1.53108144"
         id="path248"
         inkscape:connector-curvature="0" /></g><g
       style="stroke-width:1.53108144"
       id="g250"
       transform="matrix(0.65313311,0,0,0.65313311,469.13478,104.16885)"><path
         d="m 6.51964,41.66983 c 0,2.03531 -2.9189,3.68523 -6.51964,3.68523 -3.60074,0 -6.51964,-1.64992 -6.51964,-3.68523 0,-2.03529 2.9189,-3.68521 6.51964,-3.68521 3.60074,0 6.51964,1.64992 6.51964,3.68521 z"
         style="fill:#dfbf9f;fill-opacity:1;fill-rule:nonzero;stroke:none;stroke-width:1.53108144"
         id="path252"
         inkscape:connector-curvature="0" /></g><g
       style="stroke-width:1.53108144"
       id="g254"
       transform="matrix(0.65313311,0,0,0.65313311,469.13478,104.16885)"><path
         d="m 2.26778,45.35506 c 0,1.25247 -1.01531,2.26777 -2.26778,2.26777 -1.25247,0 -2.26778,-1.0153 -2.26778,-2.26777 0,-1.25249 1.01531,-2.26779 2.26778,-2.26779 1.25247,0 2.26778,1.0153 2.26778,2.26779 z"
         style="fill:#604020;fill-opacity:1;fill-rule:nonzero;stroke:none;stroke-width:1.53108144"
         id="path256"
         inkscape:connector-curvature="0" /></g><g
       style="stroke-width:1.53108144"
       id="g258"
       transform="matrix(0.65313311,0,0,0.65313311,469.13478,104.16885)"><path
         d="m -2.97629,50.17395 c 0,0.78284 -0.63458,1.41742 -1.4174,1.41742 -0.78284,0 -1.41742,-0.63458 -1.41742,-1.41742 0,-0.78282 0.63458,-1.41742 1.41742,-1.41742 0.78282,0 1.4174,0.6346 1.4174,1.41742 z"
         style="fill:#604020;fill-opacity:1;fill-rule:nonzero;stroke:none;stroke-width:1.53108144"
         id="path260"
         inkscape:connector-curvature="0" /></g><g
       style="stroke-width:1.53108144"
       id="g262"
       transform="matrix(0.65313311,0,0,0.65313311,469.13478,104.16885)"><path
         d="m 5.81111,50.17395 c 0,0.78284 -0.63458,1.41742 -1.41742,1.41742 -0.78282,0 -1.4174,-0.63458 -1.4174,-1.41742 0,-0.78282 0.63458,-1.41742 1.4174,-1.41742 0.78284,0 1.41742,0.6346 1.41742,1.41742 z"
         style="fill:#604020;fill-opacity:1;fill-rule:nonzero;stroke:none;stroke-width:1.53108144"
         id="path264"
         inkscape:connector-curvature="0" /></g><g
       style="stroke-width:1.53108144"
       id="g266"
       transform="matrix(0.65313311,0,0,0.65313311,469.13478,104.16885)"><path
         d="m 4.1104,42.80351 c -0.8567,-2.35386 -3.45949,-3.56749 -5.81334,-2.71078 -1.25965,0.45849 -2.25231,1.45115 -2.7108,2.71078 h 0.44522 v 0 c 0.77102,-2.11839 3.1134,-3.21061 5.23178,-2.43961 1.13362,0.41264 2.02699,1.30599 2.43962,2.43961 z"
         style="fill:#604020;fill-opacity:1;fill-rule:nonzero;stroke:none;stroke-width:1.53108144"
         id="path268"
         inkscape:connector-curvature="0" /></g><g
       id="g270"
       style="stroke-width:1.53108144"
       transform="matrix(0.65313311,0,0,0.65313311,467.15215,104.49929)" /><path
       style="fill:none;fill-rule:evenodd;stroke:#000000;stroke-width:0.75px;stroke-linecap:butt;stroke-linejoin:miter;stroke-opacity:1"
       d="m 514.1452,163.59863 c 1.98687,-0.8947 4.29192,-1.06188 6.3871,-0.46326 2.09518,0.59863 3.96398,1.95834 5.17827,3.76766 1.10705,1.64953 1.6657,3.65187 1.62325,5.638 -0.0425,1.98613 -0.67878,3.94898 -1.76718,5.61088 -1.0884,1.66189 -2.62136,3.02207 -4.37742,3.95092 -1.75606,0.92885 -3.73042,1.42922 -5.7157,1.50091 -3.97058,0.14338 -7.90577,-1.44316 -10.93755,-4.0111 -3.03178,-2.56795 -5.19729,-6.06243 -6.54183,-9.80118 -2.10387,-5.8502 -2.2545,-12.18694 -3.02299,-18.35626 -0.57979,-4.65445 -1.54125,-9.31932 -3.58539,-13.54088 -2.04245,-4.21808 -5.15394,-7.91325 -8.96272,-10.644"
       id="path496"
       inkscape:connector-curvature="0"
       inkscape:path-effect="#path-effect498;#path-effect500"
       inkscape:original-d="m 514.1452,163.59863 c 2.77499,1.11665 13.85555,-0.13087 11.56537,3.3044 -17.23201,10.72469 -32.14268,6.14298 -33.37436,-8.26098 4.18561,-11.09443 8.82328,-22.72449 -2.97396,-20.48724 -0.48002,0.38402 -3.96526,-7.80925 -6.93921,-10.90449"
       sodipodi:nodetypes="ccccc" /></g></svg>