<?xml version="1.0" encoding="UTF-8" standalone="no"?>
<!-- Created with Inkscape (http://www.inkscape.org/) -->

<svg
   xmlns:dc="http://purl.org/dc/elements/1.1/"
   xmlns:cc="http://creativecommons.org/ns#"
   xmlns:rdf="http://www.w3.org/1999/02/22-rdf-syntax-ns#"
   xmlns:svg="http://www.w3.org/2000/svg"
   xmlns="http://www.w3.org/2000/svg"
   xmlns:sodipodi="http://sodipodi.sourceforge.net/DTD/sodipodi-0.dtd"
   xmlns:inkscape="http://www.inkscape.org/namespaces/inkscape"
   version="1.1"
   id="svg2"
   xml:space="preserve"
   width="156.74057"
   height="124.40163"
   viewBox="0 0 156.74057 124.40163"
   sodipodi:docname="scout.svg"
   inkscape:version="0.92.2 5c3e80d, 2017-08-06"><metadata
     id="metadata8"><rdf:RDF><cc:Work
         rdf:about=""><dc:format>image/svg+xml</dc:format><dc:type
           rdf:resource="http://purl.org/dc/dcmitype/StillImage" /><dc:title></dc:title></cc:Work></rdf:RDF></metadata><defs
     id="defs6" /><sodipodi:namedview
     pagecolor="#ffffff"
     bordercolor="#666666"
     borderopacity="1"
     objecttolerance="10"
     gridtolerance="10"
     guidetolerance="10"
     inkscape:pageopacity="0"
     inkscape:pageshadow="2"
     inkscape:window-width="640"
     inkscape:window-height="480"
     id="namedview4"
     showgrid="false"
     inkscape:snap-global="false"
     fit-margin-top="0"
     fit-margin-left="0"
     fit-margin-right="0"
     fit-margin-bottom="0"
     inkscape:zoom="1.532077"
     inkscape:cx="99.485659"
     inkscape:cy="49.569434"
     inkscape:current-layer="g10" /><g
     id="g10"
     inkscape:groupmode="layer"
     inkscape:label="scout"
     transform="matrix(1.3333333,0,0,-1.3333333,-142.40434,251.35422)"><g
       style="stroke-width:2.02166224"
       id="g18"
       transform="matrix(0.49016977,-0.06636847,0.06636847,0.49016977,223.82878,111.26141)"><g
         style="stroke-width:2.02166224"
         id="g20"><g
           style="stroke-width:2.02166224"
           id="g22"><g
             style="stroke-width:2.02166224"
             id="g24" /><g
             style="stroke-width:2.02166224"
             id="g26" /><g
             style="stroke-width:2.02166224"
             id="g28" /><g
             style="stroke-width:2.02166224"
             id="g30" /><g
             style="stroke-width:2.02166224"
             id="g32"><path
               inkscape:connector-curvature="0"
               id="path34"
               style="fill:#edd425;fill-opacity:1;fill-rule:nonzero;stroke:none;stroke-width:2.02166224"
               d="M -14.54192,32.4572 C -7.56854,31.23831 3.54333,18.62376 -8.19225,7.39856 -19.956,-3.82664 -81.15709,3.68521 -51.53429,40.22429 c 24.9449,-13.40825 16.3841,-1.13411 36.99237,-7.76709 z" /></g><g
             style="stroke-width:2.02166224"
             id="g36"><path
               inkscape:connector-curvature="0"
               id="path38"
               style="fill:#f3e390;fill-opacity:1;fill-rule:nonzero;stroke:none;stroke-width:2.02166224"
               d="m -39.68533,42.5202 c 0,9.78481 6.34555,17.71675 14.1734,17.71675 7.82785,0 14.17338,-7.93194 14.17338,-17.71675 0,-9.78482 -6.34553,-17.71675 -14.17338,-17.71675 -7.82785,0 -14.1734,7.93193 -14.1734,17.71675 z" /></g><g
             style="stroke-width:2.02166224"
             id="g40"><path
               inkscape:connector-curvature="0"
               id="path42"
               style="fill:#df8020;fill-opacity:1;fill-rule:nonzero;stroke:none;stroke-width:2.02166224"
               d="m -11.50896,41.72649 c -6.71817,1.64408 -3.82667,-4.79078 -14.28672,-2.89151 23.44313,-14.74004 18.17048,-0.02813 14.28672,2.89151 z" /></g><g
             style="stroke-width:2.02166224"
             id="g44"><path
               inkscape:connector-curvature="0"
               id="path46"
               style="fill:#fffdd9;fill-opacity:1;fill-rule:nonzero;stroke:none;stroke-width:2.02166224"
               d="m -25.64157,43.98607 c -0.66931,1.83893 -0.14699,3.71725 1.16667,4.19537 1.31365,0.47812 2.92114,-0.625 3.59045,-2.46393 0.66932,-1.83894 0.14699,-3.71727 -1.16665,-4.19538 -1.31365,-0.47813 -2.92114,0.625 -3.59047,2.46394 z" /></g><g
             style="stroke-width:2.02166224"
             id="g48"><path
               inkscape:connector-curvature="0"
               id="path50"
               style="fill:#000000;fill-opacity:1;fill-rule:nonzero;stroke:none;stroke-width:2.02166224"
               d="m -24.91628,43.94853 c -0.38229,1.05034 -0.26637,2.05677 0.2589,2.24794 0.52528,0.19119 1.26102,-0.50527 1.6433,-1.55562 0.38228,-1.05032 0.26637,-2.05676 -0.25892,-2.24794 -0.52526,-0.19117 -1.261,0.50529 -1.64328,1.55562 z" /></g><g
             style="stroke-width:2.02166224"
             id="g52"><path
               inkscape:connector-curvature="0"
               id="path54"
               style="fill:#fffdd9;fill-opacity:1;fill-rule:nonzero;stroke:none;stroke-width:2.02166224"
               d="m -17.36542,46.16888 c -0.61204,1.68158 -0.17085,3.38593 0.98545,3.80678 1.15629,0.42085 2.58981,-0.60113 3.20185,-2.28271 0.61205,-1.68158 0.17086,-3.38593 -0.98544,-3.80678 -1.15628,-0.42085 -2.5898,0.60113 -3.20186,2.28271 z" /></g><g
             style="stroke-width:2.02166224"
             id="g56"><path
               inkscape:connector-curvature="0"
               id="path58"
               style="fill:#000000;fill-opacity:1;fill-rule:nonzero;stroke:none;stroke-width:2.02166224"
               d="m -16.73549,46.09622 c -0.34428,0.94594 -0.28239,1.8369 0.13828,1.99001 0.42067,0.15309 1.04078,-0.48961 1.38508,-1.43556 0.3443,-0.94594 0.2824,-1.8369 -0.13827,-1.98999 -0.42067,-0.15311 -1.04079,0.4896 -1.38509,1.43554 z" /></g><g
             style="stroke-width:2.02166224"
             id="g60"><path
               inkscape:connector-curvature="0"
               id="path62"
               style="fill:#e0ccb8;fill-opacity:1;fill-rule:nonzero;stroke:none;stroke-width:2.02166224"
               d="M -13.89008,32.4572 C -7.56854,31.23831 3.54333,18.62376 -8.19225,7.39856 -19.956,-3.82664 -81.15709,3.68521 -51.53429,40.22429 c 24.9449,-12.55788 16.3841,-3.96854 34.8098,-11.87749 z" /></g><g
             style="stroke-width:2.02166224"
             id="g64"><path
               inkscape:connector-curvature="0"
               id="path66"
               style="fill:#ffbf00;fill-opacity:1;fill-rule:nonzero;stroke:none;stroke-width:2.02166224"
               d="m -10.34673,30.87541 c -1.35211,1.97583 -3.54335,1.58179 -3.54335,1.58179 -4.53515,-6.0949 -18.32879,2.69299 -24.87396,3.39845 -1.29286,-0.32872 -1.0688,-0.57527 -1.20202,-1.48793 3.03598,-3.725 18.94688,-9.05388 20.67056,-8.64036 -4.11041,-4.78778 1.30366,-5.40846 -0.97537,-13.18117 3.09567,3.53211 4.64329,6.12863 3.43867,11.23128 0.18988,-4.06803 4.09613,-2.3331 3.46378,-9.69751 2.9313,4.90368 2.53985,8.55215 -1.71503,12.42726 1.94469,0.98618 3.41878,2.44902 4.73672,4.36819 z" /></g><g
             style="stroke-width:2.02166224"
             id="g68"><path
               inkscape:connector-curvature="0"
               id="path70"
               style="fill:#bf8040;fill-opacity:1;fill-rule:nonzero;stroke:none;stroke-width:2.02166224"
               d="m -14.20767,26.70578 -0.0018,0.01001 c 0.09563,-0.54245 -0.26655,-1.05971 -0.809,-1.15535 l -4.17729,-0.73657 c -0.54245,-0.09564 -1.05974,0.26657 -1.15537,0.80902 l 0.0018,-0.01003 c -0.09563,0.54245 0.26655,1.05973 0.809,1.15535 l 4.17729,0.73659 c 0.54245,0.09563 1.05974,-0.26657 1.15537,-0.80902 z" /></g><g
             style="stroke-width:2.02166224"
             id="g72"><path
               inkscape:connector-curvature="0"
               id="path74"
               style="fill:#ffbf00;fill-opacity:1;fill-rule:nonzero;stroke:none;stroke-width:2.02166224"
               d="m -39.68535,49.6069 c 0,7.82785 6.34555,14.1734 14.1734,14.1734 5.06307,0 9.74312,-2.70207 12.27454,-7.0867" /></g><g
             style="stroke-width:2.02166224"
             id="g76"><path
               inkscape:connector-curvature="0"
               id="path78"
               style="fill:#ffbf00;fill-opacity:1;fill-rule:nonzero;stroke:none;stroke-width:2.02166224"
               d="m -39.68333,49.52792 c -0.60776,2.26824 6.25483,6.07781 15.32826,8.50904 9.07344,2.43121 16.92142,2.56334 17.52917,0.29509 0.60776,-2.26824 -6.25482,-6.07781 -15.32826,-8.50904 -9.07342,-2.43121 -16.9214,-2.56334 -17.52917,-0.29509 z" /></g></g></g></g><g
       style="stroke-width:2.02166224"
       id="g146"
       transform="matrix(0.49016977,-0.06636847,0.06636847,0.49016977,186.91064,125.37319)"><g
         style="stroke-width:2.02166224"
         id="g148"><g
           style="stroke-width:2.02166224"
           id="g150"><g
             style="stroke-width:2.02166224"
             id="g152" /><g
             style="stroke-width:2.02166224"
             id="g154" /><g
             style="stroke-width:2.02166224"
             id="g156" /><g
             style="stroke-width:2.02166224"
             id="g158" /><g
             style="stroke-width:2.02166224"
             id="g160"><path
               inkscape:connector-curvature="0"
               id="path162"
               style="fill:#edd425;fill-opacity:1;fill-rule:nonzero;stroke:none;stroke-width:2.02166224"
               d="m -13.08763,29.21127 c 6.276,-1.097 16.27659,-12.45001 5.71466,-22.55262 -10.5873,-10.1026 -65.66791,-3.342 -39.00757,29.54295 22.45026,-12.06734 14.74559,-1.02069 33.29291,-6.99033 z" /></g><g
             style="stroke-width:2.02166224"
             id="g164"><path
               inkscape:connector-curvature="0"
               id="path166"
               style="fill:#ecd454;fill-opacity:1;fill-rule:nonzero;stroke:none;stroke-width:2.02166224"
               d="m -35.71654,38.26791 c 0,8.80626 5.71096,15.94497 12.75597,15.94497 7.045,0 12.75597,-7.13871 12.75597,-15.94497 0,-8.80626 -5.71097,-15.94496 -12.75597,-15.94496 -7.04501,0 -12.75597,7.1387 -12.75597,15.94496 z" /></g><g
             style="stroke-width:2.02166224"
             id="g168"><path
               inkscape:connector-curvature="0"
               id="path170"
               style="fill:#df8020;fill-opacity:1;fill-rule:nonzero;stroke:none;stroke-width:2.02166224"
               d="m -10.35799,37.55357 c -6.04631,1.47966 -3.44397,-4.31167 -12.85797,-2.60232 21.09868,-13.26595 16.35333,-0.02532 12.85797,2.60232 z" /></g><g
             style="stroke-width:2.02166224"
             id="g172"><path
               inkscape:connector-curvature="0"
               id="path174"
               style="fill:#fffdd9;fill-opacity:1;fill-rule:nonzero;stroke:none;stroke-width:2.02166224"
               d="m -23.07693,39.58707 c -0.60236,1.65503 -0.13227,3.34549 1.05,3.77578 1.18228,0.43032 2.629,-0.5625 3.23137,-2.21751 0.60236,-1.65503 0.13226,-3.34549 -1.05001,-3.7758 -1.18228,-0.4303 -2.62899,0.5625 -3.23136,2.21753 z" /></g><g
             style="stroke-width:2.02166224"
             id="g176"><path
               inkscape:connector-curvature="0"
               id="path178"
               style="fill:#000000;fill-opacity:1;fill-rule:nonzero;stroke:none;stroke-width:2.02166224"
               d="m -22.4242,39.55328 c -0.34403,0.9453 -0.23971,1.85109 0.23302,2.02315 0.47275,0.17206 1.13489,-0.45476 1.47895,-1.40004 0.34405,-0.94529 0.23971,-1.85109 -0.23302,-2.02315 -0.47273,-0.17205 -1.13489,0.45476 -1.47895,1.40004 z" /></g><g
             style="stroke-width:2.02166224"
             id="g180"><path
               inkscape:connector-curvature="0"
               id="path182"
               style="fill:#fffdd9;fill-opacity:1;fill-rule:nonzero;stroke:none;stroke-width:2.02166224"
               d="m -15.62848,41.55156 c -0.55082,1.5134 -0.15375,3.04729 0.8869,3.42604 1.04065,0.37875 2.33078,-0.54103 2.88161,-2.05443 0.55083,-1.5134 0.15375,-3.04728 -0.8869,-3.42604 -1.04065,-0.37875 -2.33078,0.54103 -2.88161,2.05443 z" /></g><g
             style="stroke-width:2.02166224"
             id="g184"><path
               inkscape:connector-curvature="0"
               id="path186"
               style="fill:#000000;fill-opacity:1;fill-rule:nonzero;stroke:none;stroke-width:2.02166224"
               d="m -15.06155,41.48615 c -0.30985,0.85135 -0.25414,1.65318 0.12446,1.79096 0.37859,0.13781 0.93669,-0.44064 1.24654,-1.29197 0.30986,-0.85135 0.25413,-1.65319 -0.12445,-1.79099 -0.37859,-0.13778 -0.93671,0.44066 -1.24655,1.292 z" /></g><g
             style="stroke-width:2.02166224"
             id="g188"><path
               inkscape:connector-curvature="0"
               id="path190"
               style="fill:#e0ccb8;fill-opacity:1;fill-rule:nonzero;stroke:none;stroke-width:2.02166224"
               d="m -12.50098,29.21127 c 5.68935,-1.097 15.68994,-12.45001 5.12801,-22.55262 -10.5873,-10.1026 -65.66791,-3.342 -39.00757,29.54295 22.45026,-11.30202 14.74559,-3.57166 31.32861,-10.68967 z" /></g><g
             style="stroke-width:2.02166224"
             id="g192"><path
               inkscape:connector-curvature="0"
               id="path194"
               style="fill:#ffbf00;fill-opacity:1;fill-rule:nonzero;stroke:none;stroke-width:2.02166224"
               d="m -9.312,27.78767 c -1.21688,1.77823 -3.18898,1.4236 -3.18898,1.4236 -4.0816,-5.48537 -16.4958,2.42368 -22.38641,3.05858 -1.16356,-0.29584 -0.96191,-0.51773 -1.08182,-1.33911 2.73238,-3.35249 17.0521,-8.14844 18.6034,-7.77629 -3.69936,-4.30896 1.17327,-4.86757 -0.87784,-11.86298 2.78607,3.1789 4.17892,5.51573 3.09479,10.1081 0.17089,-3.6612 3.68649,-2.09978 3.11736,-8.72769 2.63816,4.41328 2.28585,7.69686 -1.54351,11.18444 1.75023,0.88755 3.07689,2.2041 4.26301,3.93135 z" /></g><g
             style="stroke-width:2.02166224"
             id="g196"><path
               inkscape:connector-curvature="0"
               id="path198"
               style="fill:#bf8040;fill-opacity:1;fill-rule:nonzero;stroke:none;stroke-width:2.02166224"
               d="m -12.78636,24.03494 -0.0015,0.009 c 0.08604,-0.4882 -0.23993,-0.95373 -0.72812,-1.03978 L -17.2755,22.3413 c -0.48819,-0.08606 -0.95372,0.23992 -1.03976,0.72812 l 0.0015,-0.009 c -0.08604,0.48819 0.23993,0.95372 0.72812,1.03978 l 3.75952,0.66286 c 0.48819,0.08606 0.95373,-0.23993 1.03977,-0.72812 z" /></g><g
             style="stroke-width:2.02166224"
             id="g200"><path
               inkscape:connector-curvature="0"
               id="path202"
               style="fill:#ffbf00;fill-opacity:1;fill-rule:nonzero;stroke:none;stroke-width:2.02166224"
               d="m -35.71657,44.6459 c 0,7.04502 5.71095,12.75597 12.75597,12.75597 4.55672,0 8.76875,-2.43185 11.04701,-6.37799" /></g><g
             style="stroke-width:2.02166224"
             id="g204"><path
               inkscape:connector-curvature="0"
               id="path206"
               style="fill:#ffbf00;fill-opacity:1;fill-rule:nonzero;stroke:none;stroke-width:2.02166224"
               d="m -35.71402,44.57483 c -0.54695,2.04138 5.62933,5.46989 13.79533,7.65787 8.166,2.18797 15.22907,2.3068 15.77602,0.26542 0.54695,-2.04138 -5.62932,-5.46989 -13.79532,-7.65786 -8.166,-2.18799 -15.22908,-2.30681 -15.77603,-0.26543 z" /></g></g></g></g><g
       id="g82"
       style="stroke-width:2.02166224"
       transform="matrix(0.49016977,-0.06636847,0.06636847,0.49016977,168.91003,105.223)"><g
         id="g84"
         style="stroke-width:2.02166224"><g
           id="g86"
           style="stroke-width:2.02166224"><g
             id="g88"
             style="stroke-width:2.02166224" /><g
             id="g90"
             style="stroke-width:2.02166224" /><g
             id="g92"
             style="stroke-width:2.02166224" /><g
             id="g94"
             style="stroke-width:2.02166224" /><g
             id="g96"
             style="stroke-width:2.02166224"><path
               d="M -15.99619,35.70311 C -8.32544,34.36234 3.89767,20.48625 -9.0115,8.13844 -21.9517,-4.20934 -89.27328,4.05376 -56.68802,44.24696 c 27.43953,-14.74916 18.0226,-1.24754 40.69183,-8.54385 z"
               style="fill:#edd425;fill-opacity:1;fill-rule:nonzero;stroke:none;stroke-width:2.02166224"
               id="path98"
               inkscape:connector-curvature="0" /></g><g
             id="g100"
             style="stroke-width:2.02166224"><path
               d="m -43.6541,46.77246 c 0,10.76335 6.98013,19.48853 15.59082,19.48853 8.61068,0 15.59081,-8.72518 15.59081,-19.48853 0,-10.76335 -6.98013,-19.48852 -15.59081,-19.48852 -8.61069,0 -15.59082,8.72517 -15.59082,19.48852 z"
               style="fill:#ead49a;fill-opacity:1;fill-rule:nonzero;stroke:none;stroke-width:2.02166224"
               id="path102"
               inkscape:connector-curvature="0" /></g><g
             id="g104"
             style="stroke-width:2.02166224"><path
               d="m -12.65991,45.89938 c -7.39005,1.80851 -4.20937,-5.26988 -15.71549,-3.18068 25.78757,-16.21412 19.98764,-0.03093 15.71549,3.18068 z"
               style="fill:#df8020;fill-opacity:1;fill-rule:nonzero;stroke:none;stroke-width:2.02166224"
               id="path106"
               inkscape:connector-curvature="0" /></g><g
             id="g108"
             style="stroke-width:2.02166224"><path
               d="m -28.20528,48.38443 c -0.73623,2.02281 -0.16168,4.08894 1.28333,4.61487 1.44501,0.52594 3.21323,-0.68749 3.94948,-2.71031 0.73623,-2.02282 0.16168,-4.08895 -1.28333,-4.61489 -1.445,-0.52592 -3.21322,0.6875 -3.94948,2.71033 z"
               style="fill:#fffdd9;fill-opacity:1;fill-rule:nonzero;stroke:none;stroke-width:2.02166224"
               id="path110"
               inkscape:connector-curvature="0" /></g><g
             id="g112"
             style="stroke-width:2.02166224"><path
               d="m -27.40749,48.34314 c -0.42051,1.15536 -0.293,2.26245 0.28479,2.47273 0.57781,0.2103 1.38709,-0.55581 1.8076,-1.71118 0.42052,-1.15536 0.29302,-2.26245 -0.28478,-2.47273 -0.57779,-0.2103 -1.38709,0.55581 -1.80761,1.71118 z"
               style="fill:#000000;fill-opacity:1;fill-rule:nonzero;stroke:none;stroke-width:2.02166224"
               id="path114"
               inkscape:connector-curvature="0" /></g><g
             id="g116"
             style="stroke-width:2.02166224"><path
               d="m -19.10156,50.7855 c -0.67324,1.84974 -0.18793,3.72446 1.08398,4.1874 1.27193,0.46294 2.84877,-0.66125 3.52201,-2.51099 0.67323,-1.84973 0.18792,-3.72447 -1.084,-4.18741 -1.27192,-0.46292 -2.84876,0.66128 -3.52199,2.511 z"
               style="fill:#fffdd9;fill-opacity:1;fill-rule:nonzero;stroke:none;stroke-width:2.02166224"
               id="path118"
               inkscape:connector-curvature="0" /></g><g
             id="g120"
             style="stroke-width:2.02166224"><path
               d="m -18.40866,50.70554 c -0.37871,1.04052 -0.31062,2.02058 0.15211,2.18899 0.46273,0.16841 1.14485,-0.53856 1.52358,-1.57909 0.37871,-1.04052 0.31062,-2.02058 -0.15212,-2.18899 -0.46273,-0.16841 -1.14486,0.53856 -1.52357,1.57909 z"
               style="fill:#000000;fill-opacity:1;fill-rule:nonzero;stroke:none;stroke-width:2.02166224"
               id="path122"
               inkscape:connector-curvature="0" /></g><g
             id="g124"
             style="stroke-width:2.02166224"><path
               d="M -15.27914,35.70311 C -8.32544,34.36234 3.89767,20.48625 -9.0115,8.13844 -21.9517,-4.20934 -89.27328,4.05376 -56.68802,44.24696 c 27.43953,-13.81375 18.0226,-4.36541 38.29097,-13.0653 z"
               style="fill:#e0ccb8;fill-opacity:1;fill-rule:nonzero;stroke:none;stroke-width:2.02166224"
               id="path126"
               inkscape:connector-curvature="0" /></g><g
             id="g128"
             style="stroke-width:2.02166224"><path
               d="m -11.38145,33.96313 c -1.48734,2.17342 -3.89769,1.73998 -3.89769,1.73998 -4.98873,-6.70442 -20.16181,2.96231 -27.36152,3.73833 -1.42218,-0.36162 -1.1757,-0.63282 -1.32224,-1.63674 3.3396,-4.09755 20.84168,-9.95933 22.73774,-9.50447 -4.52148,-5.26658 1.43404,-5.94934 -1.07291,-14.49936 3.40527,3.88533 5.10766,6.74153 3.78255,12.35448 0.20888,-4.47484 4.50577,-2.56644 3.81017,-10.66733 3.22445,5.39409 2.79387,9.40743 -1.88654,13.67006 2.13918,1.08482 3.7607,2.69396 5.21044,4.80505 z"
               style="fill:#ffbf00;fill-opacity:1;fill-rule:nonzero;stroke:none;stroke-width:2.02166224"
               id="path130"
               inkscape:connector-curvature="0" /></g><g
             id="g132"
             style="stroke-width:2.02166224"><path
               d="m -15.62845,29.37631 -0.0019,0.01102 c 0.1052,-0.5967 -0.29324,-1.16568 -0.88992,-1.27089 l -4.595,-0.81023 c -0.5967,-0.10519 -1.1657,0.29323 -1.27089,0.88993 l 0.0019,-0.01102 c -0.10521,0.59668 0.29323,1.16568 0.88993,1.27088 l 4.59498,0.81024 c 0.5967,0.10519 1.1657,-0.29324 1.27089,-0.88993 z"
               style="fill:#bf8040;fill-opacity:1;fill-rule:nonzero;stroke:none;stroke-width:2.02166224"
               id="path134"
               inkscape:connector-curvature="0" /></g><g
             id="g136"
             style="stroke-width:2.02166224"><path
               d="m -43.65411,54.56789 c 0,8.61067 6.98013,15.59081 15.59081,15.59081 5.5694,0 10.7175,-2.97228 13.50208,-7.7954"
               style="fill:#ffbf00;fill-opacity:1;fill-rule:nonzero;stroke:none;stroke-width:2.02166224"
               id="path138"
               inkscape:connector-curvature="0" /></g><g
             id="g140"
             style="stroke-width:2.02166224"><path
               d="m -43.65138,54.48055 c -0.66854,2.49504 6.88028,6.68553 16.86104,9.35983 9.98074,2.6743 18.61346,2.81962 19.28199,0.32458 0.66855,-2.49504 -6.88028,-6.68554 -16.86102,-9.35985 -9.98076,-2.6743 -18.61346,-2.81961 -19.28201,-0.32456 z"
               style="fill:#ffbf00;fill-opacity:1;fill-rule:nonzero;stroke:none;stroke-width:2.02166224"
               id="path142"
               inkscape:connector-curvature="0" /></g></g></g></g><g
       style="stroke-width:2.02166224"
       id="g274"
       transform="matrix(0.49016977,-0.06636847,0.06636847,0.49016977,208.40145,92.136078)"><g
         style="stroke-width:2.02166224"
         id="g276"><g
           style="stroke-width:2.02166224"
           id="g278"><g
             style="stroke-width:2.02166224"
             id="g280" /><g
             style="stroke-width:2.02166224"
             id="g282" /><g
             style="stroke-width:2.02166224"
             id="g284" /><g
             style="stroke-width:2.02166224"
             id="g286" /><g
             style="stroke-width:2.02166224"
             id="g288"><path
               inkscape:connector-curvature="0"
               id="path290"
               style="fill:#edd425;fill-opacity:1;fill-rule:nonzero;stroke:none;stroke-width:2.02166224"
               d="M -15.99619,35.70311 C -8.32544,34.36234 3.89767,20.48625 -9.0115,8.13844 -21.9517,-4.20934 -89.27328,4.05376 -56.68802,44.24696 c 27.43953,-14.74916 18.0226,-1.24754 40.69183,-8.54385 z" /></g><g
             style="stroke-width:2.02166224"
             id="g292"><path
               inkscape:connector-curvature="0"
               id="path294"
               style="fill:#f6e98c;fill-opacity:1;fill-rule:nonzero;stroke:none;stroke-width:2.02166224"
               d="m -43.6541,46.77246 c 0,10.76335 6.98013,19.48853 15.59082,19.48853 8.61068,0 15.59081,-8.72518 15.59081,-19.48853 0,-10.76335 -6.98013,-19.48852 -15.59081,-19.48852 -8.61069,0 -15.59082,8.72517 -15.59082,19.48852 z" /></g><g
             style="stroke-width:2.02166224"
             id="g296"><path
               inkscape:connector-curvature="0"
               id="path298"
               style="fill:#df8020;fill-opacity:1;fill-rule:nonzero;stroke:none;stroke-width:2.02166224"
               d="m -12.65991,45.89938 c -7.39005,1.80851 -4.20937,-5.26988 -15.71549,-3.18068 25.78757,-16.21412 19.98764,-0.03093 15.71549,3.18068 z" /></g><g
             style="stroke-width:2.02166224"
             id="g300"><path
               inkscape:connector-curvature="0"
               id="path302"
               style="fill:#fffdd9;fill-opacity:1;fill-rule:nonzero;stroke:none;stroke-width:2.02166224"
               d="m -28.20528,48.38443 c -0.73623,2.02281 -0.16168,4.08894 1.28333,4.61487 1.44501,0.52594 3.21323,-0.68749 3.94948,-2.71031 0.73623,-2.02282 0.16168,-4.08895 -1.28333,-4.61489 -1.445,-0.52592 -3.21322,0.6875 -3.94948,2.71033 z" /></g><g
             style="stroke-width:2.02166224"
             id="g304"><path
               inkscape:connector-curvature="0"
               id="path306"
               style="fill:#000000;fill-opacity:1;fill-rule:nonzero;stroke:none;stroke-width:2.02166224"
               d="m -27.40749,48.34314 c -0.42051,1.15536 -0.293,2.26245 0.28479,2.47273 0.57781,0.2103 1.38709,-0.55581 1.8076,-1.71118 0.42052,-1.15536 0.29302,-2.26245 -0.28478,-2.47273 -0.57779,-0.2103 -1.38709,0.55581 -1.80761,1.71118 z" /></g><g
             style="stroke-width:2.02166224"
             id="g308"><path
               inkscape:connector-curvature="0"
               id="path310"
               style="fill:#fffdd9;fill-opacity:1;fill-rule:nonzero;stroke:none;stroke-width:2.02166224"
               d="m -19.10156,50.7855 c -0.67324,1.84974 -0.18793,3.72446 1.08398,4.1874 1.27193,0.46294 2.84877,-0.66125 3.52201,-2.51099 0.67323,-1.84973 0.18792,-3.72447 -1.084,-4.18741 -1.27192,-0.46292 -2.84876,0.66128 -3.52199,2.511 z" /></g><g
             style="stroke-width:2.02166224"
             id="g312"><path
               inkscape:connector-curvature="0"
               id="path314"
               style="fill:#000000;fill-opacity:1;fill-rule:nonzero;stroke:none;stroke-width:2.02166224"
               d="m -18.40866,50.70554 c -0.37871,1.04052 -0.31062,2.02058 0.15211,2.18899 0.46273,0.16841 1.14485,-0.53856 1.52358,-1.57909 0.37871,-1.04052 0.31062,-2.02058 -0.15212,-2.18899 -0.46273,-0.16841 -1.14486,0.53856 -1.52357,1.57909 z" /></g><g
             style="stroke-width:2.02166224"
             id="g316"><path
               inkscape:connector-curvature="0"
               id="path318"
               style="fill:#e0ccb8;fill-opacity:1;fill-rule:nonzero;stroke:none;stroke-width:2.02166224"
               d="M -15.27914,35.70311 C -8.32544,34.36234 3.89767,20.48625 -9.0115,8.13844 -21.9517,-4.20934 -89.27328,4.05376 -56.68802,44.24696 c 27.43953,-13.81375 18.0226,-4.36541 38.29097,-13.0653 z" /></g><g
             style="stroke-width:2.02166224"
             id="g320"><path
               inkscape:connector-curvature="0"
               id="path322"
               style="fill:#ffbf00;fill-opacity:1;fill-rule:nonzero;stroke:none;stroke-width:2.02166224"
               d="m -11.38145,33.96313 c -1.48734,2.17342 -3.89769,1.73998 -3.89769,1.73998 -4.98873,-6.70442 -20.16181,2.96231 -27.36152,3.73833 -1.42218,-0.36162 -1.1757,-0.63282 -1.32224,-1.63674 3.3396,-4.09755 20.84168,-9.95933 22.73774,-9.50447 -4.52148,-5.26658 1.43404,-5.94934 -1.07291,-14.49936 3.40527,3.88533 5.10766,6.74153 3.78255,12.35448 0.20888,-4.47484 4.50577,-2.56644 3.81017,-10.66733 3.22445,5.39409 2.79387,9.40743 -1.88654,13.67006 2.13918,1.08482 3.7607,2.69396 5.21044,4.80505 z" /></g><g
             style="stroke-width:2.02166224"
             id="g324"><path
               inkscape:connector-curvature="0"
               id="path326"
               style="fill:#bf8040;fill-opacity:1;fill-rule:nonzero;stroke:none;stroke-width:2.02166224"
               d="m -15.62845,29.37631 -0.0019,0.01102 c 0.1052,-0.5967 -0.29324,-1.16568 -0.88992,-1.27089 l -4.595,-0.81023 c -0.5967,-0.10519 -1.1657,0.29323 -1.27089,0.88993 l 0.0019,-0.01102 c -0.10521,0.59668 0.29323,1.16568 0.88993,1.27088 l 4.59498,0.81024 c 0.5967,0.10519 1.1657,-0.29324 1.27089,-0.88993 z" /></g><g
             style="stroke-width:2.02166224"
             id="g328"><path
               inkscape:connector-curvature="0"
               id="path330"
               style="fill:#ffbf00;fill-opacity:1;fill-rule:nonzero;stroke:none;stroke-width:2.02166224"
               d="m -43.65411,54.56789 c 0,8.61067 6.98013,15.59081 15.59081,15.59081 5.5694,0 10.7175,-2.97228 13.50208,-7.7954" /></g><g
             style="stroke-width:2.02166224"
             id="g332"><path
               inkscape:connector-curvature="0"
               id="path334"
               style="fill:#ffbf00;fill-opacity:1;fill-rule:nonzero;stroke:none;stroke-width:2.02166224"
               d="m -43.65138,54.48055 c -0.66854,2.49504 6.88028,6.68553 16.86104,9.35983 9.98074,2.6743 18.61346,2.81962 19.28199,0.32458 0.66855,-2.49504 -6.88028,-6.68554 -16.86102,-9.35985 -9.98076,-2.6743 -18.61346,-2.81961 -19.28201,-0.32456 z" /></g></g></g></g><g
       style="stroke-width:2.02166224"
       transform="matrix(0.49016977,-0.06636847,0.06636847,0.49016977,158.72536,139.16)"
       id="g336"><g
         style="stroke-width:2.02166224"
         id="g338"><g
           style="stroke-width:2.02166224"
           id="g340"><g
             style="stroke-width:2.02166224"
             id="g342"><g
               style="stroke-width:2.02166224"
               id="g344" /><g
               style="stroke-width:2.02166224"
               id="g346" /><g
               style="stroke-width:2.02166224"
               id="g348" /><g
               style="stroke-width:2.02166224"
               id="g350" /><g
               style="stroke-width:2.02166224"
               id="g352"><path
                 inkscape:connector-curvature="0"
                 id="path354"
                 style="fill:#edd425;fill-opacity:1;fill-rule:nonzero;stroke:none;stroke-width:2.02166224"
                 d="M -20.35858,45.43988 C -10.5959,43.73344 4.96065,26.07317 -11.4691,10.35793 -27.93826,-5.35727 -113.61943,5.15927 -72.14769,56.31377 -37.22499,37.54228 -49.21004,54.726 -20.35858,45.43988 Z" /></g><g
               style="stroke-width:2.02166224"
               id="g356"><path
                 inkscape:connector-curvature="0"
                 id="path358"
                 style="fill:#ecd454;fill-opacity:1;fill-rule:nonzero;stroke:none;stroke-width:2.02166224"
                 d="m -55.5592,59.52802 c 0,13.69866 8.88372,24.80334 19.84265,24.80334 10.95892,0 19.84265,-11.10468 19.84265,-24.80334 0,-13.69867 -8.88373,-24.80333 -19.84265,-24.80333 -10.95893,0 -19.84265,11.10466 -19.84265,24.80333 z" /></g><g
               style="stroke-width:2.02166224"
               id="g360"><path
                 inkscape:connector-curvature="0"
                 id="path362"
                 style="fill:#df8020;fill-opacity:1;fill-rule:nonzero;stroke:none;stroke-width:2.02166224"
                 d="m -16.11246,58.41684 c -9.40541,2.30168 -5.35731,-6.70708 -20.00134,-4.04811 32.82024,-20.63596 25.43857,-0.03937 20.00134,4.04811 z" /></g><g
               style="stroke-width:2.02166224"
               id="g364"><path
                 inkscape:connector-curvature="0"
                 id="path366"
                 style="fill:#fffdd9;fill-opacity:1;fill-rule:nonzero;stroke:none;stroke-width:2.02166224"
                 d="m -35.89734,61.58017 c -0.93701,2.57449 -0.20575,5.2041 1.63335,5.87347 1.83911,0.66938 4.08957,-0.87498 5.02658,-3.44949 0.93703,-2.57449 0.20576,-5.2041 -1.63335,-5.87347 -1.83909,-0.66938 -4.08955,0.87498 -5.02658,3.44949 z" /></g><g
               style="stroke-width:2.02166224"
               id="g368"><path
                 inkscape:connector-curvature="0"
                 id="path370"
                 style="fill:#000000;fill-opacity:1;fill-rule:nonzero;stroke:none;stroke-width:2.02166224"
                 d="m -34.88194,61.52762 c -0.53519,1.47046 -0.37291,2.87945 0.36247,3.14711 0.73538,0.26764 1.76538,-0.70741 2.30057,-2.17787 0.53518,-1.47046 0.3729,-2.87947 -0.36248,-3.14711 -0.73538,-0.26765 -1.76539,0.70741 -2.30056,2.17787 z" /></g><g
               style="stroke-width:2.02166224"
               id="g372"><path
                 inkscape:connector-curvature="0"
                 id="path374"
                 style="fill:#fffdd9;fill-opacity:1;fill-rule:nonzero;stroke:none;stroke-width:2.02166224"
                 d="m -24.31079,64.63602 c -0.85686,2.3542 -0.23917,4.74022 1.37964,5.3294 1.61879,0.58919 3.62567,-0.84161 4.48251,-3.1958 0.85684,-2.3542 0.23915,-4.74022 -1.37964,-5.3294 -1.6188,-0.58919 -3.62567,0.84161 -4.48251,3.1958 z" /></g><g
               style="stroke-width:2.02166224"
               id="g376"><path
                 inkscape:connector-curvature="0"
                 id="path378"
                 style="fill:#000000;fill-opacity:1;fill-rule:nonzero;stroke:none;stroke-width:2.02166224"
                 d="m -23.42892,64.53426 c -0.48201,1.32432 -0.39534,2.57164 0.1936,2.78599 0.58894,0.21434 1.45709,-0.68545 1.9391,-2.00978 0.48201,-1.32431 0.39532,-2.57164 -0.1936,-2.78598 -0.58895,-0.21436 -1.45711,0.68546 -1.9391,2.00977 z" /></g><g
               style="stroke-width:2.02166224"
               id="g380"><path
                 inkscape:connector-curvature="0"
                 id="path382"
                 style="fill:#e0ccb8;fill-opacity:1;fill-rule:nonzero;stroke:none;stroke-width:2.02166224"
                 d="M -19.44601,45.43988 C -10.5959,43.73344 4.96065,26.07317 -11.4691,10.35793 -27.93826,-5.35727 -113.61943,5.15927 -72.14769,56.31377 -37.22499,38.73279 -49.21004,50.75783 -23.41418,39.68535 Z" /></g><g
               style="stroke-width:2.02166224"
               id="g384"><path
                 inkscape:connector-curvature="0"
                 id="path386"
                 style="fill:#ffbf00;fill-opacity:1;fill-rule:nonzero;stroke:none;stroke-width:2.02166224"
                 d="m -14.48537,43.22537 c -1.89293,2.76616 -4.96064,2.21451 -4.96064,2.21451 -6.3492,-8.53281 -25.66019,3.77016 -34.8234,4.7578 -1.80999,-0.46021 -1.49632,-0.80536 -1.68283,-2.08307 4.25035,-5.215 26.52553,-12.67539 28.93866,-12.09648 -5.75455,-6.70285 1.82512,-7.5718 -1.36551,-18.45355 4.33391,4.94492 6.50058,8.58004 4.81412,15.72373 0.26584,-5.6952 5.73454,-3.26634 4.84926,-13.57646 4.1038,6.86513 3.55577,11.97296 -2.40103,17.39807 2.72256,1.38067 4.78628,3.42862 6.63137,6.11545 z" /></g><g
               style="stroke-width:2.02166224"
               id="g388"><path
                 inkscape:connector-curvature="0"
                 id="path390"
                 style="fill:#bf8040;fill-opacity:1;fill-rule:nonzero;stroke:none;stroke-width:2.02166224"
                 d="m -19.89026,37.38806 -0.0025,0.01401 c 0.1339,-0.75942 -0.37319,-1.48358 -1.13261,-1.61748 l -5.84819,-1.03111 c -0.75941,-0.13388 -1.4836,0.37322 -1.61748,1.13263 l 0.0025,-0.01402 c -0.1339,0.75941 0.3732,1.48359 1.13261,1.61747 l 5.84819,1.03112 c 0.75942,0.13389 1.4836,-0.3732 1.61748,-1.13262 z" /></g><g
               style="stroke-width:2.02166224"
               id="g392"><path
                 inkscape:connector-curvature="0"
                 id="path394"
                 style="fill:#e0ccb8;fill-opacity:1;fill-rule:nonzero;stroke:none;stroke-width:2.02166224"
                 d="m -66.1582,64.44305 c -0.56728,2.11719 11.8443,7.28232 27.72245,11.53678 15.87816,4.25445 29.20948,5.98698 29.77675,3.86978 0.56728,-2.11719 -11.84428,-7.28232 -27.72244,-11.53677 -15.87817,-4.25446 -29.20949,-5.98699 -29.77676,-3.86979 z" /></g><g
               style="stroke-width:2.02166224"
               id="g396"><path
                 inkscape:connector-curvature="0"
                 id="path398"
                 style="fill:#e0ccb8;fill-opacity:1;fill-rule:nonzero;stroke:none;stroke-width:2.02166224"
                 d="M -24.88916,77.5552 -29.5111,94.80487 -55.57713,87.82062 -50.9552,70.57097 Z" /></g><g
               style="stroke-width:2.02166224"
               id="g400"><path
                 inkscape:connector-curvature="0"
                 id="path402"
                 style="fill:#e0ccb8;fill-opacity:1;fill-rule:nonzero;stroke:none;stroke-width:2.02166224"
                 d="m -55.57712,87.82063 c -0.45381,1.6937 5.01329,4.63013 12.21131,6.5588 7.19801,1.92866 13.40089,2.11912 13.8547,0.42543 0.45381,-1.69371 -5.01329,-4.63013 -12.2113,-6.5588 -7.19802,-1.92866 -13.40089,-2.11912 -13.85471,-0.42543 z" /></g><g
               style="stroke-width:2.02166224"
               id="g404"><path
                 inkscape:connector-curvature="0"
                 id="path406"
                 style="fill:#e0ccb8;fill-opacity:1;fill-rule:nonzero;stroke:none;stroke-width:2.02166224"
                 d="M -9.2476,80.51376 -65.97997,65.31268 -52.4958,76.32066 -26.42976,83.3049 Z" /></g><g
               style="stroke-width:2.02166224"
               id="g408"><path
                 inkscape:connector-curvature="0"
                 id="path410"
                 style="fill:#bf8040;fill-opacity:1;fill-rule:nonzero;stroke:none;stroke-width:2.02166224"
                 d="m -52.49579,76.32068 c -0.45381,1.69369 5.01331,4.63012 12.21132,6.55878 7.19801,1.92866 13.40089,2.11912 13.85469,0.42543 0.45381,-1.6937 -5.01329,-4.63013 -12.2113,-6.55879 -7.19802,-1.92866 -13.4009,-2.11913 -13.85471,-0.42542 z" /></g><g
               style="stroke-width:2.02166224"
               id="g412"><path
                 inkscape:connector-curvature="0"
                 id="path414"
                 style="fill:#bf8040;fill-opacity:1;fill-rule:nonzero;stroke:none;stroke-width:2.02166224"
                 d="m -26.42976,83.3049 -1.02716,3.83351 -26.06604,-6.98424 1.02716,-3.83351 z" /></g><g
               style="stroke-width:2.02166224"
               id="g416"><path
                 inkscape:connector-curvature="0"
                 id="path418"
                 style="fill:#e0ccb8;fill-opacity:1;fill-rule:nonzero;stroke:none;stroke-width:2.02166224"
                 d="m -53.52295,80.15419 c -0.45381,1.6937 5.01329,4.63013 12.2113,6.55878 7.19802,1.92866 13.4009,2.11912 13.85471,0.42543 0.45381,-1.6937 -5.01329,-4.63013 -12.2113,-6.55878 -7.19802,-1.92866 -13.4009,-2.11912 -13.85471,-0.42543 z" /></g></g></g></g></g><g
       id="g210"
       style="stroke-width:2.02166224"
       transform="matrix(0.49016977,-0.06636847,0.06636847,0.49016977,134.57389,122.16145)"><g
         id="g212"
         style="stroke-width:2.02166224"><g
           id="g214"
           style="stroke-width:2.02166224"><g
             id="g216"
             style="stroke-width:2.02166224" /><g
             id="g218"
             style="stroke-width:2.02166224" /><g
             id="g220"
             style="stroke-width:2.02166224" /><g
             id="g222"
             style="stroke-width:2.02166224" /><g
             id="g224"
             style="stroke-width:2.02166224"><path
               d="M -14.54192,32.4572 C -7.56854,31.23831 3.54333,18.62376 -8.19225,7.39856 -19.956,-3.82664 -81.15709,3.68521 -51.53429,40.22429 c 24.9449,-13.40825 16.3841,-1.13411 36.99237,-7.76709 z"
               style="fill:#edd425;fill-opacity:1;fill-rule:nonzero;stroke:none;stroke-width:2.02166224"
               id="path226"
               inkscape:connector-curvature="0" /></g><g
             id="g228"
             style="stroke-width:2.02166224"><path
               d="m -39.68533,42.5202 c 0,9.78481 6.34555,17.71675 14.1734,17.71675 7.82785,0 14.17338,-7.93194 14.17338,-17.71675 0,-9.78482 -6.34553,-17.71675 -14.17338,-17.71675 -7.82785,0 -14.1734,7.93193 -14.1734,17.71675 z"
               style="fill:#e4ca9f;fill-opacity:1;fill-rule:nonzero;stroke:none;stroke-width:2.02166224"
               id="path230"
               inkscape:connector-curvature="0" /></g><g
             id="g232"
             style="stroke-width:2.02166224"><path
               d="m -11.50896,41.72649 c -6.71817,1.64408 -3.82667,-4.79078 -14.28672,-2.89151 23.44313,-14.74004 18.17048,-0.02813 14.28672,2.89151 z"
               style="fill:#df8020;fill-opacity:1;fill-rule:nonzero;stroke:none;stroke-width:2.02166224"
               id="path234"
               inkscape:connector-curvature="0" /></g><g
             id="g236"
             style="stroke-width:2.02166224"><path
               d="m -25.64157,43.98607 c -0.66931,1.83893 -0.14699,3.71725 1.16667,4.19537 1.31365,0.47812 2.92114,-0.625 3.59045,-2.46393 0.66932,-1.83894 0.14699,-3.71727 -1.16665,-4.19538 -1.31365,-0.47813 -2.92114,0.625 -3.59047,2.46394 z"
               style="fill:#fffdd9;fill-opacity:1;fill-rule:nonzero;stroke:none;stroke-width:2.02166224"
               id="path238"
               inkscape:connector-curvature="0" /></g><g
             id="g240"
             style="stroke-width:2.02166224"><path
               d="m -24.91628,43.94853 c -0.38229,1.05034 -0.26637,2.05677 0.2589,2.24794 0.52528,0.19119 1.26102,-0.50527 1.6433,-1.55562 0.38228,-1.05032 0.26637,-2.05676 -0.25892,-2.24794 -0.52526,-0.19117 -1.261,0.50529 -1.64328,1.55562 z"
               style="fill:#000000;fill-opacity:1;fill-rule:nonzero;stroke:none;stroke-width:2.02166224"
               id="path242"
               inkscape:connector-curvature="0" /></g><g
             id="g244"
             style="stroke-width:2.02166224"><path
               d="m -17.36542,46.16888 c -0.61204,1.68158 -0.17085,3.38593 0.98545,3.80678 1.15629,0.42085 2.58981,-0.60113 3.20185,-2.28271 0.61205,-1.68158 0.17086,-3.38593 -0.98544,-3.80678 -1.15628,-0.42085 -2.5898,0.60113 -3.20186,2.28271 z"
               style="fill:#fffdd9;fill-opacity:1;fill-rule:nonzero;stroke:none;stroke-width:2.02166224"
               id="path246"
               inkscape:connector-curvature="0" /></g><g
             id="g248"
             style="stroke-width:2.02166224"><path
               d="m -16.73549,46.09622 c -0.34428,0.94594 -0.28239,1.8369 0.13828,1.99001 0.42067,0.15309 1.04078,-0.48961 1.38508,-1.43556 0.3443,-0.94594 0.2824,-1.8369 -0.13827,-1.98999 -0.42067,-0.15311 -1.04079,0.4896 -1.38509,1.43554 z"
               style="fill:#000000;fill-opacity:1;fill-rule:nonzero;stroke:none;stroke-width:2.02166224"
               id="path250"
               inkscape:connector-curvature="0" /></g><g
             id="g252"
             style="stroke-width:2.02166224"><path
               d="M -13.89008,32.4572 C -7.56854,31.23831 3.54333,18.62376 -8.19225,7.39856 -19.956,-3.82664 -81.15709,3.68521 -51.53429,40.22429 c 24.9449,-12.55788 16.3841,-3.96854 34.8098,-11.87749 z"
               style="fill:#e0ccb8;fill-opacity:1;fill-rule:nonzero;stroke:none;stroke-width:2.02166224"
               id="path254"
               inkscape:connector-curvature="0" /></g><g
             id="g256"
             style="stroke-width:2.02166224"><path
               d="m -10.34673,30.87541 c -1.35211,1.97583 -3.54335,1.58179 -3.54335,1.58179 -4.53515,-6.0949 -18.32879,2.69299 -24.87396,3.39845 -1.29286,-0.32872 -1.0688,-0.57527 -1.20202,-1.48793 3.03598,-3.725 18.94688,-9.05388 20.67056,-8.64036 -4.11041,-4.78778 1.30366,-5.40846 -0.97537,-13.18117 3.09567,3.53211 4.64329,6.12863 3.43867,11.23128 0.18988,-4.06803 4.09613,-2.3331 3.46378,-9.69751 2.9313,4.90368 2.53985,8.55215 -1.71503,12.42726 1.94469,0.98618 3.41878,2.44902 4.73672,4.36819 z"
               style="fill:#ffbf00;fill-opacity:1;fill-rule:nonzero;stroke:none;stroke-width:2.02166224"
               id="path258"
               inkscape:connector-curvature="0" /></g><g
             id="g260"
             style="stroke-width:2.02166224"><path
               d="m -14.20767,26.70578 -0.0018,0.01001 c 0.09563,-0.54245 -0.26655,-1.05971 -0.809,-1.15535 l -4.17729,-0.73657 c -0.54245,-0.09564 -1.05974,0.26657 -1.15537,0.80902 l 0.0018,-0.01003 c -0.09563,0.54245 0.26655,1.05973 0.809,1.15535 l 4.17729,0.73659 c 0.54245,0.09563 1.05974,-0.26657 1.15537,-0.80902 z"
               style="fill:#bf8040;fill-opacity:1;fill-rule:nonzero;stroke:none;stroke-width:2.02166224"
               id="path262"
               inkscape:connector-curvature="0" /></g><g
             id="g264"
             style="stroke-width:2.02166224"><path
               d="m -39.68535,49.6069 c 0,7.82785 6.34555,14.1734 14.1734,14.1734 5.06307,0 9.74312,-2.70207 12.27454,-7.0867"
               style="fill:#ffbf00;fill-opacity:1;fill-rule:nonzero;stroke:none;stroke-width:2.02166224"
               id="path266"
               inkscape:connector-curvature="0" /></g><g
             id="g268"
             style="stroke-width:2.02166224"><path
               d="m -39.68333,49.52792 c -0.60776,2.26824 6.25483,6.07781 15.32826,8.50904 9.07344,2.43121 16.92142,2.56334 17.52917,0.29509 0.60776,-2.26824 -6.25482,-6.07781 -15.32826,-8.50904 -9.07342,-2.43121 -16.9214,-2.56334 -17.52917,-0.29509 z"
               style="fill:#ffbf00;fill-opacity:1;fill-rule:nonzero;stroke:none;stroke-width:2.02166224"
               id="path270"
               inkscape:connector-curvature="0" /></g></g></g></g></g></svg>