<?xml version="1.0" encoding="UTF-8" standalone="no"?>
<!-- Created with Inkscape (http://www.inkscape.org/) -->

<svg
   xmlns:dc="http://purl.org/dc/elements/1.1/"
   xmlns:cc="http://creativecommons.org/ns#"
   xmlns:rdf="http://www.w3.org/1999/02/22-rdf-syntax-ns#"
   xmlns:svg="http://www.w3.org/2000/svg"
   xmlns="http://www.w3.org/2000/svg"
   xmlns:xlink="http://www.w3.org/1999/xlink"
   xmlns:sodipodi="http://sodipodi.sourceforge.net/DTD/sodipodi-0.dtd"
   xmlns:inkscape="http://www.inkscape.org/namespaces/inkscape"
   version="1.1"
   id="svg2"
   xml:space="preserve"
   width="202.10201"
   height="160.90701"
   viewBox="0 0 202.10201 160.90701"
   sodipodi:docname="chef.svg"
   inkscape:version="0.92.2 5c3e80d, 2017-08-06"><metadata
     id="metadata8"><rdf:RDF><cc:Work
         rdf:about=""><dc:format>image/svg+xml</dc:format><dc:type
           rdf:resource="http://purl.org/dc/dcmitype/StillImage" /><dc:title /></cc:Work></rdf:RDF></metadata><defs
     id="defs6"><pattern
       inkscape:collect="always"
       xlink:href="#pattern3074"
       id="pattern3078"
       patternTransform="matrix(3.0010467,0.47091918,-0.47091918,3.0010467,120.9297,0.2608729)" /><pattern
       inkscape:collect="always"
       xlink:href="#Checkerboardwhite"
       id="pattern3074"
       patternTransform="matrix(3.0377699,0,0,3.0377699,109.95626,-5.6357938)" /><pattern
       inkscape:stockid="Checkerboard white"
       id="Checkerboardwhite"
       patternTransform="translate(0,0) scale(10,10)"
       height="2"
       width="2"
       patternUnits="userSpaceOnUse"
       inkscape:collect="always"><rect
         id="rect2410"
         height="1"
         width="1"
         y="0"
         x="0"
         style="fill:white;stroke:none" /><rect
         id="rect2412"
         height="1"
         width="1"
         y="1"
         x="1"
         style="fill:white;stroke:none" /></pattern><clipPath
       id="clipPath3751"
       clipPathUnits="userSpaceOnUse"><path
         inkscape:connector-curvature="0"
         id="path3749"
         d="M 18.6527,11.10326 21.26149,25.89896 33.5448,23.73314 30.936,8.93745 Z" /></clipPath><clipPath
       id="clipPath3763"
       clipPathUnits="userSpaceOnUse"><path
         inkscape:connector-curvature="0"
         id="path3761"
         d="M 18.6527,11.10326 20.4739,21.4322 32.75722,19.2664 30.936,8.93745 Z" /></clipPath></defs><sodipodi:namedview
     pagecolor="#ffffff"
     bordercolor="#666666"
     borderopacity="1"
     objecttolerance="10"
     gridtolerance="10"
     guidetolerance="10"
     inkscape:pageopacity="0"
     inkscape:pageshadow="2"
     inkscape:window-width="640"
     inkscape:window-height="480"
     id="namedview4"
     showgrid="false"
     fit-margin-top="0"
     fit-margin-left="0"
     fit-margin-right="0"
     fit-margin-bottom="0"
     inkscape:zoom="2.0711187"
     inkscape:cx="176.81622"
     inkscape:cy="36.953941"
     inkscape:current-layer="g10"
     inkscape:snap-global="true" /><g
     id="g10"
     inkscape:groupmode="layer"
     inkscape:label="document"
     transform="matrix(1.3333333,0,0,-1.3333333,-158.79444,85.20678)"><rect
       style="opacity:1;fill:#778899;fill-opacity:1;fill-rule:nonzero;stroke:none;stroke-width:0.1875;stroke-linecap:butt;stroke-linejoin:miter;stroke-miterlimit:0;stroke-dasharray:none;stroke-dashoffset:0;stroke-opacity:1"
       id="rect76"
       width="151.57651"
       height="120.68026"
       x="119.09583"
       y="-63.905087"
       transform="scale(1,-1)" /><rect
       style="opacity:1;fill:#502d16;fill-opacity:1;fill-rule:nonzero;stroke:none;stroke-width:1.125;stroke-linecap:butt;stroke-linejoin:miter;stroke-miterlimit:0;stroke-dasharray:none;stroke-dashoffset:0;stroke-opacity:1"
       id="rect783"
       width="3.5921566"
       height="29.151731"
       x="135.67502"
       y="16.156179"
       transform="scale(1,-1)" /><rect
       style="opacity:1;fill:#502d16;fill-opacity:1;fill-rule:nonzero;stroke:none;stroke-width:1.125;stroke-linecap:butt;stroke-linejoin:miter;stroke-miterlimit:0;stroke-dasharray:none;stroke-dashoffset:0;stroke-opacity:1"
       id="rect789"
       width="3.5921566"
       height="29.151731"
       x="144.79356"
       y="9.2481871"
       transform="scale(1,-1)" /><rect
       transform="scale(1,-1)"
       y="16.156179"
       x="172.42502"
       height="29.151731"
       width="3.5921566"
       id="rect791"
       style="opacity:1;fill:#502d16;fill-opacity:1;fill-rule:nonzero;stroke:none;stroke-width:1.125;stroke-linecap:butt;stroke-linejoin:miter;stroke-miterlimit:0;stroke-dasharray:none;stroke-dashoffset:0;stroke-opacity:1" /><rect
       transform="scale(1,-1)"
       y="9.2481871"
       x="181.54356"
       height="29.151731"
       width="3.5921566"
       id="rect793"
       style="opacity:1;fill:#502d16;fill-opacity:1;fill-rule:nonzero;stroke:none;stroke-width:1.125;stroke-linecap:butt;stroke-linejoin:miter;stroke-miterlimit:0;stroke-dasharray:none;stroke-dashoffset:0;stroke-opacity:1" /><path
       inkscape:connector-curvature="0"
       id="path3054"
       d="m 128.44504,-36.042453 -6.3856,3.993156 5.71203,25.6856006 10.87091,8.6672033 46.75158,-0.2510864 6.32602,-17.0654725 -2.06483,-4.819746 -0.86792,1.669339 -2.15726,-1.313866 3.67528,-13.222938 -1.03712,-2.526423 -10.80036,10.47508 0.8225,3.002032 -48.88063,-0.363485 -1.03712,-2.526423 z"
       style="fill:#b30000;fill-rule:evenodd;stroke:none;stroke-width:0.75px;stroke-linecap:butt;stroke-linejoin:miter;stroke-opacity:1;fill-opacity:1" /><path
       id="path745"
       style="fill:#b30000;fill-rule:evenodd;stroke:none;stroke-width:0.75px;stroke-linecap:butt;stroke-linejoin:miter;stroke-opacity:1"
       d="m 119.7591,45.36897 c 22.9025,12.532294 21.94647,-18.479785 45.05131,0 22.85119,12.532294 21.89516,-18.479785 44.625,0 22.47619,12.532294 21.52016,-18.479785 44.625,0 20.21615,8.308693 17.17635,-6.537249 16.61192,18.536117 h -151.5765 z"
       inkscape:connector-curvature="0"
       sodipodi:nodetypes="ccccccc" /><text
       xml:space="preserve"
       style="font-style:normal;font-variant:normal;font-weight:normal;font-stretch:normal;font-size:6px;line-height:125%;font-family:Arial;-inkscape-font-specification:Arial;letter-spacing:0px;word-spacing:0px;fill:#000000;fill-opacity:1;stroke:#ffeeaa;stroke-width:0.75px;stroke-linecap:butt;stroke-linejoin:miter;stroke-opacity:1;"
       x="166.62282"
       y="-51.265831"
       id="text750"
       transform="scale(1,-1)"><tspan
         sodipodi:role="line"
         id="tspan748"
         x="166.62282"
         y="-51.265831"
         style="font-style:normal;font-variant:normal;font-weight:normal;font-stretch:normal;font-size:10px;font-family:'.Savoye LET CC.';-inkscape-font-specification:'.Savoye LET CC.';stroke:#ffeeaa;stroke-width:0.75px;">La Barchetta</tspan></text>
<g
       id="g769"
       transform="matrix(0.8503516,0,0,0.8503516,29.034473,4.3427533)"
       style="stroke-width:1.17598414"><path
         d="m 212.32615,-16.223033 c -9.47798,-1.498182 -24.81623,-18.349757 -9.15843,-33.822217 15.69598,-15.473082 98.80817,-6.641943 59.46591,43.5331952 -34.10382,-17.6222062 -22.23057,-1.17573 -50.30748,-9.7109782 z"
         style="fill:#ffe680;fill-opacity:1;fill-rule:nonzero;stroke:none;stroke-width:1.17598414"
         id="path113"
         inkscape:connector-curvature="0" /><path
         d="m 246.62523,-3.1390602 c 0.2158,13.2614622 -8.20946,24.1516572 -18.81863,24.3242962 -10.60917,0.172639 -19.38428,-10.437662 -19.60007,-23.6991241 -0.2158,-13.2614759 8.20943,-24.1516569 18.8186,-24.3242959 10.60918,-0.172638 19.3843,10.437648 19.6001,23.6991238 z"
         style="fill:#ffe680;fill-opacity:1;fill-rule:nonzero;stroke:none;stroke-width:1.17598414"
         id="path117"
         inkscape:connector-curvature="0" /><path
         d="m 208.41998,-3.5933705 c 9.14147,2.0800747 5.08067,-6.5773925 19.29918,-4.2339813 -32.09782,-19.4603162 -24.62728,0.3626147 -19.29918,4.2339813 z"
         style="fill:#df8020;fill-opacity:1;fill-rule:nonzero;stroke:none;stroke-width:1.17598414"
         id="path121"
         inkscape:connector-curvature="0" /><path
         d="m 227.6239,-0.84262304 c 0.94768,2.47756114 0.2812,5.03478874 -1.48868,5.71176224 -1.76986,0.6769731 -3.97283,-0.7826455 -4.92051,-3.2602066 -0.9477,-2.47757455 -0.2812,-5.0348159 1.48864,-5.7117753 1.76986,-0.6769868 3.97284,0.7826454 4.92055,3.26021966 z"
         style="fill:#fffdd9;fill-opacity:1;fill-rule:nonzero;stroke:none;stroke-width:1.17598414"
         id="path125"
         inkscape:connector-curvature="0" /><path
         d="m 226.64008,-0.87750556 c 0.54128,1.41510638 0.40637,2.78168876 -0.30132,3.05236816 -0.7077,0.2707067 -1.72022,-0.656987 -2.26149,-2.07210717 -0.54127,-1.41507953 -0.40637,-2.78167523 0.30134,-3.05236863 0.70768,-0.2706791 1.72019,0.6570146 2.26147,2.07210764 z"
         style="fill:#000000;fill-opacity:1;fill-rule:nonzero;stroke:none;stroke-width:1.17598414"
         id="path129"
         inkscape:connector-curvature="0" /><path
         d="m 216.45528,2.2982896 c 0.86659,2.265566 0.30623,4.5852208 -1.25164,5.1811051 -1.55785,0.595884 -3.52325,-0.7576015 -4.38984,-3.0231675 -0.86661,-2.2655658 -0.30625,-4.5852206 1.25162,-5.18110486 1.55784,-0.59588384 3.52324,0.75760166 4.38986,3.02316726 z"
         style="fill:#fffdd9;fill-opacity:1;fill-rule:nonzero;stroke:none;stroke-width:1.17598414"
         id="path133"
         inkscape:connector-curvature="0" /><path
         d="m 215.59993,2.2137054 c 0.48746,1.2744502 0.42323,2.4833432 -0.14353,2.7001325 -0.56676,0.2167623 -1.42138,-0.6406201 -1.90887,-1.9150834 -0.4875,-1.2744497 -0.42325,-2.48334293 0.14351,-2.70010516 0.56676,-0.21678933 1.42139,0.64060633 1.90889,1.91505606 z"
         style="fill:#000000;fill-opacity:1;fill-rule:nonzero;stroke:none;stroke-width:1.17598414"
         id="path137"
         inkscape:connector-curvature="0" /><path
         d="m 211.82668,-16.214905 c -8.97851,-1.50631 -24.31676,-18.357885 -8.65896,-33.830345 15.69598,-15.473082 98.80817,-6.641943 59.46591,43.5331952 -34.10382,-17.6222062 -22.23119,-1.2138413 -50.58568,-26.8075922 z"
         style="fill:#fffef2;fill-opacity:1;fill-rule:nonzero;stroke:none;stroke-width:1.17598414"
         id="path141"
         inkscape:connector-curvature="0" /><path
         d="m 213.02304,-37.178066 c 0.0173,1.060965 -0.82882,1.935041 -1.88979,1.952305 -1.06099,0.01727 -1.93504,-0.82882 -1.9523,-1.889784 -0.0173,-1.060965 0.82879,-1.935041 1.88978,-1.952306 1.06096,-0.01727 1.93504,0.82882 1.95231,1.889785 z m -1.24632,-5.744422 c 0.0173,1.060992 -0.8288,1.935041 -1.88978,1.952306 -1.06097,0.01726 -1.93504,-0.828793 -1.95231,-1.889785 -0.0173,-1.060965 0.82882,-1.935014 1.88979,-1.952278 1.06098,-0.01727 1.93504,0.828793 1.9523,1.889757 z m -0.47834,-5.756295 c 0.0173,1.060965 -0.82879,1.935041 -1.88978,1.952306 -1.06097,0.01727 -1.93502,-0.828821 -1.95228,-1.889785 -0.0173,-1.060992 0.82879,-1.935041 1.88976,-1.952305 1.06099,-0.01727 1.93504,0.828793 1.9523,1.889784 z"
         style="fill:#000099;fill-opacity:1;fill-rule:nonzero;stroke:none;stroke-width:1.17598414"
         id="path145"
         inkscape:connector-curvature="0" /><path
         d="m 243.97876,9.1555343 c 0.46602,1.6324927 -5.27662,4.7030737 -12.82674,6.8583677 -7.55013,2.155294 -14.04832,2.57909 -14.51431,0.946597 -0.46602,-1.632493 5.27661,-4.703073 12.82673,-6.858367 7.55013,-2.1552812 14.04833,-2.5790774 14.51432,-0.9465977 z"
         style="fill:#fffef2;fill-opacity:1;fill-rule:nonzero;stroke:none;stroke-width:1.17598414"
         id="path149"
         inkscape:connector-curvature="0" /><path
         d="m 216.63771,16.960499 4.74627,16.626438 27.34108,-7.804979 -4.7463,-16.6264508 z"
         style="fill:#fffef2;fill-opacity:1;fill-rule:nonzero;stroke:none;stroke-width:1.17598414"
         id="path153"
         inkscape:connector-curvature="0" /><path
         d="m 238.77948,34.264725 c 0.0587,3.60708 -2.81773,6.578677 -6.42481,6.637374 -3.6071,0.0587 -6.57871,-2.817738 -6.6374,-6.424818 -0.0587,-3.607093 2.81775,-6.578704 6.42484,-6.637401 3.60708,-0.0587 6.57868,2.817752 6.63737,6.424845 z"
         style="fill:#fffef2;fill-opacity:1;fill-rule:nonzero;stroke:none;stroke-width:1.17598414"
         id="path157"
         inkscape:connector-curvature="0" /><path
         d="m 246.77266,29.523371 c 0.0518,3.182609 -2.48617,5.804535 -5.66878,5.856324 -3.18261,0.05179 -5.80455,-2.486171 -5.85634,-5.668781 -0.0518,-3.182609 2.48619,-5.804549 5.6688,-5.856338 3.18261,-0.05179 5.80453,2.486185 5.85632,5.668795 z"
         style="fill:#fffef2;fill-opacity:1;fill-rule:nonzero;stroke:none;stroke-width:1.17598414"
         id="path161"
         inkscape:connector-curvature="0" /><path
         d="m 227.59454,31.756433 c 0.0414,2.546088 -1.98894,4.643636 -4.53503,4.685068 -2.54609,0.04143 -4.64365,-1.988945 -4.68508,-4.535033 -0.0414,-2.546101 1.98896,-4.64365 4.53505,-4.685081 2.54608,-0.04143 4.64363,1.988945 4.68506,4.535046 z"
         style="fill:#fffef2;fill-opacity:1;fill-rule:nonzero;stroke:none;stroke-width:1.17598414"
         id="path165"
         inkscape:connector-curvature="0" /><path
         d="m 251.28894,23.685177 c 0.0414,2.546101 -1.98896,4.64365 -4.53504,4.685081 -2.54606,0.04143 -4.64363,-1.988945 -4.68506,-4.535046 -0.0414,-2.546088 1.98896,-4.643637 4.53502,-4.685068 2.54609,-0.04143 4.64365,1.988945 4.68508,4.535033 z"
         style="fill:#fffef2;fill-opacity:1;fill-rule:nonzero;stroke:none;stroke-width:1.17598414"
         id="path169"
         inkscape:connector-curvature="0" /><path
         d="m 219.45643,-36.662738 25.48928,14.16822 c 1.3079,0.72702 2.95757,0.256139 3.68465,-1.051767 l 2.22063,-3.995316 c 0.72706,-1.307919 0.25618,-2.95759 -1.05175,-3.684596 l -25.48928,-14.168234 c -1.30792,-0.727034 -2.95758,-0.25614 -3.68464,1.05178 l -2.22063,3.995316 c -0.72707,1.307919 -0.25619,2.957564 1.05174,3.684597 z"
         style="fill:#996633;fill-opacity:1;fill-rule:nonzero;stroke:none;stroke-width:1.17598414"
         id="path173"
         inkscape:connector-curvature="0" /><path
         d="m 213.04825,-43.741058 41.29151,22.952 c 0.65395,0.36351 1.47878,0.12807 1.84227,-0.525896 l 0.55054,-0.990423 c 0.36348,-0.653966 0.12803,-1.478802 -0.52593,-1.842311 l -41.29149,-22.952001 c -0.65396,-0.363523 -1.47881,-0.128083 -1.84229,0.525883 l -0.55053,0.990436 c -0.36348,0.653966 -0.12804,1.478788 0.52592,1.842312 z"
         style="fill:#996633;fill-opacity:1;fill-rule:nonzero;stroke:none;stroke-width:1.17598414"
         id="path177"
         inkscape:connector-curvature="0" /></g><path
       style="fill:url(#pattern3074);fill-opacity:1;fill-rule:nonzero;stroke:none;stroke-width:0.75px;stroke-linecap:butt;stroke-linejoin:miter;stroke-opacity:1"
       d="m 128.44504,-36.042453 -6.3856,3.993156 5.71203,25.6856006 60.62304,0.3456811 3.32547,-8.9950367 -2.06483,-4.819746 -0.86792,1.669339 -2.15726,-1.313866 3.67528,-13.222938 -1.03712,-2.526423 -10.80036,10.47508 0.8225,3.002032 -48.88063,-0.363485 -1.03712,-2.526423 z"
       id="path785"
       inkscape:connector-curvature="0"
       sodipodi:nodetypes="ccccccccccccccc"
       inkscape:transform-center-x="4.352252"
       inkscape:transform-center-y="1.1762847" /><path
       inkscape:transform-center-y="1.5204993"
       inkscape:transform-center-x="2.7041787"
       sodipodi:nodetypes="ccccc"
       inkscape:connector-curvature="0"
       id="path3076"
       d="m 127.77147,-6.3636964 10.87091,8.6672033 46.75158,-0.2510864 3.00055,-8.0704358 z"
       style="fill:url(#pattern3078);fill-opacity:1;fill-rule:nonzero;stroke:none;stroke-width:0.75px;stroke-linecap:butt;stroke-linejoin:miter;stroke-opacity:1" /><g
       id="g3117"
       transform="translate(295.2044,-25.540687)" /><g
       id="g3119"
       transform="translate(295.2044,-25.540687)" /><g
       id="g3121"
       transform="translate(295.2044,-25.540687)" /><g
       id="g3123"
       transform="translate(295.2044,-25.540687)" /><g
       id="g3697"
       transform="translate(280.82221,-18.416714)" /><g
       id="g3699"
       transform="translate(280.82221,-18.416714)" /><g
       id="g3701"
       transform="translate(280.82221,-18.416714)" /><g
       id="g3703"
       transform="translate(280.82221,-18.416714)" /><g
       id="g3994"
       transform="matrix(0.5949094,0.08315791,-0.08315791,0.5949094,-17.897091,-21.150642)"
       style="stroke-width:1.66474307"><g
         transform="translate(280.82221,-18.416714)"
         id="g3733"
         style="stroke-width:1.66474307"><path
           inkscape:connector-curvature="0"
           id="path3735"
           style="fill:#e6f7fd;fill-opacity:1;fill-rule:nonzero;stroke:none;stroke-width:1.66474307"
           d="m 29.54008,9.18358 c 0.13592,0.77095 -1.8786,1.77054 -4.49961,2.23268 -2.62102,0.46213 -4.85595,0.21182 -4.99187,-0.55913 -0.13591,-0.77093 1.8786,-1.77052 4.49962,-2.23266 2.62102,-0.46215 4.85594,-0.21183 4.99186,0.55911 z" /></g><g
         transform="translate(280.82221,-18.416714)"
         id="g3737"
         style="stroke-width:1.66474307"><path
           inkscape:connector-curvature="0"
           id="path3739"
           style="fill:#e6f7fd;fill-opacity:1;fill-rule:nonzero;stroke:none;stroke-width:1.66474307"
           d="m 28.39027,10.82564 c 0.08155,0.46251 -1.35207,1.10188 -3.20214,1.42808 -1.85007,0.32622 -3.41594,0.21572 -3.49749,-0.24679 -0.08154,-0.46251 1.3521,-1.10189 3.20216,-1.42809 1.85007,-0.3262 3.41593,-0.21571 3.49747,0.2468 z" /></g><g
         transform="translate(280.82221,-18.416714)"
         id="g3741"
         style="stroke-width:1.66474307"><path
           inkscape:connector-curvature="0"
           id="path3743"
           style="fill:#e6f7fd;fill-opacity:1;fill-rule:nonzero;stroke:none;stroke-width:1.66474307"
           d="m 26.61623,15.4559 c 0.54368,3.08354 0.60949,5.64931 0.14698,5.73085 -0.46251,0.08155 -1.27819,-2.35199 -1.82188,-5.43553 -0.54369,-3.08354 -0.6095,-5.64931 -0.14699,-5.73085 0.46251,-0.08154 1.2782,2.35199 1.82189,5.43553 z" /></g><g
         transform="translate(280.82221,-18.416714)"
         id="g3745"
         style="stroke-width:1.66474307"><g
           clip-path="url(#clipPath3751)"
           id="g3747"
           style="stroke-width:1.66474307"><g
             id="g3753"
             style="stroke-width:1.66474307"><path
               inkscape:connector-curvature="0"
               id="path3755"
               style="fill:#e6f7fd;fill-opacity:1;fill-rule:nonzero;stroke:none;stroke-width:1.66474307"
               d="m 32.77248,25.88443 c 1.08738,6.1671 -0.28075,11.56305 -3.05587,12.05235 -2.77513,0.48931 -5.90623,-4.11331 -6.99362,-10.28041 -1.08737,-6.16708 0.28076,-11.56305 3.05588,-12.05235 2.77512,-0.4893 5.90622,4.11331 6.99361,10.28041 z" /></g></g></g><g
         transform="translate(280.82221,-18.416714)"
         id="g3757"
         style="stroke-width:1.66474307"><g
           clip-path="url(#clipPath3763)"
           id="g3759"
           style="stroke-width:1.66474307"><g
             id="g3765"
             style="stroke-width:1.66474307"><path
               inkscape:connector-curvature="0"
               id="path3767"
               style="fill:#b30000;fill-opacity:1;fill-rule:nonzero;stroke:none;stroke-width:1.66474307"
               d="m 31.93501,26.0321 c 0.97867,5.5505 -0.10267,10.38048 -2.41525,10.78823 -2.31259,0.40774 -4.98064,-3.76114 -5.9593,-9.31163 -0.97866,-5.55048 0.10267,-10.38047 2.41526,-10.78823 2.31258,-0.40774 4.98064,3.76114 5.95929,9.31163 z" /></g></g></g></g><g
       style="stroke-width:1.66474307"
       transform="matrix(0.5949094,0.08315791,-0.08315791,0.5949094,-25.871461,-23.387363)"
       id="g4024"><g
         style="stroke-width:1.66474307"
         id="g3998"
         transform="translate(280.82221,-18.416714)"><path
           d="m 29.54008,9.18358 c 0.13592,0.77095 -1.8786,1.77054 -4.49961,2.23268 -2.62102,0.46213 -4.85595,0.21182 -4.99187,-0.55913 -0.13591,-0.77093 1.8786,-1.77052 4.49962,-2.23266 2.62102,-0.46215 4.85594,-0.21183 4.99186,0.55911 z"
           style="fill:#e6f7fd;fill-opacity:1;fill-rule:nonzero;stroke:none;stroke-width:1.66474307"
           id="path3996"
           inkscape:connector-curvature="0" /></g><g
         style="stroke-width:1.66474307"
         id="g4002"
         transform="translate(280.82221,-18.416714)"><path
           d="m 28.39027,10.82564 c 0.08155,0.46251 -1.35207,1.10188 -3.20214,1.42808 -1.85007,0.32622 -3.41594,0.21572 -3.49749,-0.24679 -0.08154,-0.46251 1.3521,-1.10189 3.20216,-1.42809 1.85007,-0.3262 3.41593,-0.21571 3.49747,0.2468 z"
           style="fill:#e6f7fd;fill-opacity:1;fill-rule:nonzero;stroke:none;stroke-width:1.66474307"
           id="path4000"
           inkscape:connector-curvature="0" /></g><g
         style="stroke-width:1.66474307"
         id="g4006"
         transform="translate(280.82221,-18.416714)"><path
           d="m 26.61623,15.4559 c 0.54368,3.08354 0.60949,5.64931 0.14698,5.73085 -0.46251,0.08155 -1.27819,-2.35199 -1.82188,-5.43553 -0.54369,-3.08354 -0.6095,-5.64931 -0.14699,-5.73085 0.46251,-0.08154 1.2782,2.35199 1.82189,5.43553 z"
           style="fill:#e6f7fd;fill-opacity:1;fill-rule:nonzero;stroke:none;stroke-width:1.66474307"
           id="path4004"
           inkscape:connector-curvature="0" /></g><g
         style="stroke-width:1.66474307"
         id="g4014"
         transform="translate(280.82221,-18.416714)"><g
           style="stroke-width:1.66474307"
           id="g4012"
           clip-path="url(#clipPath3751)"><g
             style="stroke-width:1.66474307"
             id="g4010"><path
               d="m 32.77248,25.88443 c 1.08738,6.1671 -0.28075,11.56305 -3.05587,12.05235 -2.77513,0.48931 -5.90623,-4.11331 -6.99362,-10.28041 -1.08737,-6.16708 0.28076,-11.56305 3.05588,-12.05235 2.77512,-0.4893 5.90622,4.11331 6.99361,10.28041 z"
               style="fill:#e6f7fd;fill-opacity:1;fill-rule:nonzero;stroke:none;stroke-width:1.66474307"
               id="path4008"
               inkscape:connector-curvature="0" /></g></g></g><g
         style="stroke-width:1.66474307"
         id="g4022"
         transform="translate(280.82221,-18.416714)"><g
           style="stroke-width:1.66474307"
           id="g4020"
           clip-path="url(#clipPath3763)"><g
             style="stroke-width:1.66474307"
             id="g4018"><path
               d="m 31.93501,26.0321 c 0.97867,5.5505 -0.10267,10.38048 -2.41525,10.78823 -2.31259,0.40774 -4.98064,-3.76114 -5.9593,-9.31163 -0.97866,-5.55048 0.10267,-10.38047 2.41526,-10.78823 2.31258,-0.40774 4.98064,3.76114 5.95929,9.31163 z"
               style="fill:#b30000;fill-opacity:1;fill-rule:nonzero;stroke:none;stroke-width:1.66474307"
               id="path4016"
               inkscape:connector-curvature="0" /></g></g></g></g><g
       id="g3616"
       transform="matrix(0.82991345,0,0,0.82991345,-94.342211,3.8960515)"
       style="stroke-width:1.20494497"><g
         transform="translate(295.2044,-25.540687)"
         id="g3193"
         style="stroke-width:1.20494497"><path
           inkscape:connector-curvature="0"
           id="path3195"
           style="fill:#bf8040;fill-opacity:1;fill-rule:nonzero;stroke:none;stroke-width:1.20494497"
           d="m 39.68535,17.00824 c 0,3.13109 -5.07637,5.66928 -11.33855,5.66928 -6.26217,0 -11.33854,-2.53819 -11.33854,-5.66928 0,-3.13109 5.07637,-5.66928 11.33854,-5.66928 6.26218,0 11.33855,2.53819 11.33855,5.66928 z" /></g><g
         transform="translate(295.2044,-25.540687)"
         id="g3197"
         style="stroke-width:1.20494497"><path
           inkscape:connector-curvature="0"
           id="path3199"
           style="fill:#b30000;fill-opacity:1;fill-rule:nonzero;stroke:none;stroke-width:1.20494497"
           d="m 37.98462,17.00824 c 0,2.50496 -4.31494,4.53558 -9.63782,4.53558 -5.32287,0 -9.63782,-2.03062 -9.63782,-4.53558 0,-2.50497 4.31495,-4.53558 9.63782,-4.53558 5.32288,0 9.63782,2.03061 9.63782,4.53558 z" /></g><g
         transform="translate(295.2044,-25.540687)"
         id="g3201"
         style="stroke-width:1.20494497"><path
           inkscape:connector-curvature="0"
           id="path3203"
           style="fill:#fffdd9;fill-opacity:1;fill-rule:nonzero;stroke:none;stroke-width:1.20494497"
           d="m 34.44124,18.42523 c 0,0.62612 -0.82495,1.13367 -1.84259,1.13367 -1.01765,0 -1.84261,-0.50755 -1.84261,-1.13367 0,-0.62611 0.82496,-1.13367 1.84261,-1.13367 1.01764,0 1.84259,0.50756 1.84259,1.13367 z" /></g><g
         transform="translate(295.2044,-25.540687)"
         id="g3205"
         style="stroke-width:1.20494497"><path
           inkscape:connector-curvature="0"
           id="path3207"
           style="fill:#fffdd9;fill-opacity:1;fill-rule:nonzero;stroke:none;stroke-width:1.20494497"
           d="m 24.80344,16.15787 c 0,0.62611 -0.82495,1.13368 -1.84261,1.13368 -1.01765,0 -1.8426,-0.50757 -1.8426,-1.13368 0,-0.6261 0.82495,-1.13367 1.8426,-1.13367 1.01766,0 1.84261,0.50757 1.84261,1.13367 z" /></g><g
         transform="translate(295.2044,-25.540687)"
         id="g3209"
         style="stroke-width:1.20494497"><path
           inkscape:connector-curvature="0"
           id="path3211"
           style="fill:#fffdd9;fill-opacity:1;fill-rule:nonzero;stroke:none;stroke-width:1.20494497"
           d="m 28.77197,19.27562 c 0,0.6261 -0.82495,1.13367 -1.8426,1.13367 -1.01766,0 -1.84261,-0.50757 -1.84261,-1.13367 0,-0.62612 0.82495,-1.13368 1.84261,-1.13368 1.01765,0 1.8426,0.50756 1.8426,1.13368 z" /></g><g
         transform="translate(295.2044,-25.540687)"
         id="g3213"
         style="stroke-width:1.20494497"><path
           inkscape:connector-curvature="0"
           id="path3215"
           style="fill:#fffdd9;fill-opacity:1;fill-rule:nonzero;stroke:none;stroke-width:1.20494497"
           d="m 30.75645,15.30708 c 0,0.6261 -0.82495,1.13367 -1.8426,1.13367 -1.01765,0 -1.84261,-0.50757 -1.84261,-1.13367 0,-0.62611 0.82496,-1.13368 1.84261,-1.13368 1.01765,0 1.8426,0.50757 1.8426,1.13368 z" /></g><g
         transform="translate(295.2044,-25.540687)"
         id="g3217"
         style="stroke-width:1.20494497"><path
           inkscape:connector-curvature="0"
           id="path3219"
           style="fill:#73b326;fill-opacity:1;fill-rule:nonzero;stroke:none;stroke-width:1.20494497"
           d="m 32.88239,15.30708 c 0,0.31317 -0.88848,0.56705 -1.98449,0.56705 -1.09599,0 -1.98448,-0.25388 -1.98448,-0.56705 0,-0.31318 0.88849,-0.56706 1.98448,-0.56706 1.09601,0 1.98449,0.25388 1.98449,0.56706 z" /></g><g
         transform="translate(295.2044,-25.540687)"
         id="g3221"
         style="stroke-width:1.20494497"><path
           inkscape:connector-curvature="0"
           id="path3223"
           style="fill:#73b326;fill-opacity:1;fill-rule:nonzero;stroke:none;stroke-width:1.20494497"
           d="m 25.20584,19.4307 c -0.10709,0.29428 -1.02882,0.22895 -2.05874,-0.14591 -1.02991,-0.37485 -1.77797,-0.91729 -1.67087,-1.21158 0.10708,-0.29428 1.02882,-0.22896 2.05874,0.14589 1.02991,0.37486 1.77797,0.91731 1.67087,1.2116 z" /></g><g
         transform="translate(295.2044,-25.540687)"
         id="g3225"
         style="stroke-width:1.20494497"><path
           inkscape:connector-curvature="0"
           id="path3227"
           style="fill:#73b326;fill-opacity:1;fill-rule:nonzero;stroke:none;stroke-width:1.20494497"
           d="m 36.01843,18.56488 c 0.1071,0.29428 -0.64096,0.83673 -1.67088,1.21158 -1.02991,0.37484 -1.95165,0.44017 -2.05873,0.14589 -0.1071,-0.29428 0.64096,-0.83673 1.67087,-1.21158 1.02992,-0.37485 1.95164,-0.44017 2.05874,-0.14589 z" /></g><g
         transform="translate(295.2044,-25.540687)"
         id="g3229"
         style="stroke-width:1.20494497"><path
           inkscape:connector-curvature="0"
           id="path3231"
           style="fill:#73b326;fill-opacity:1;fill-rule:nonzero;stroke:none;stroke-width:1.20494497"
           d="m 29.19717,17.00824 c 0,0.9393 -0.38072,1.70073 -0.85037,1.70073 -0.46965,0 -0.85037,-0.76143 -0.85037,-1.70073 0,-0.9393 0.38072,-1.70073 0.85037,-1.70073 0.46965,0 0.85037,0.76143 0.85037,1.70073 z" /></g></g><g
       style="stroke-width:1.20494497"
       transform="matrix(0.82991345,0,0,0.82991345,-123.6209,4.2466945)"
       id="g3658"><g
         style="stroke-width:1.20494497"
         id="g3620"
         transform="translate(295.2044,-25.540687)"><path
           d="m 39.68535,17.00824 c 0,3.13109 -5.07637,5.66928 -11.33855,5.66928 -6.26217,0 -11.33854,-2.53819 -11.33854,-5.66928 0,-3.13109 5.07637,-5.66928 11.33854,-5.66928 6.26218,0 11.33855,2.53819 11.33855,5.66928 z"
           style="fill:#bf8040;fill-opacity:1;fill-rule:nonzero;stroke:none;stroke-width:1.20494497"
           id="path3618"
           inkscape:connector-curvature="0" /></g><g
         style="stroke-width:1.20494497"
         id="g3624"
         transform="translate(295.2044,-25.540687)"><path
           d="m 37.98462,17.00824 c 0,2.50496 -4.31494,4.53558 -9.63782,4.53558 -5.32287,0 -9.63782,-2.03062 -9.63782,-4.53558 0,-2.50497 4.31495,-4.53558 9.63782,-4.53558 5.32288,0 9.63782,2.03061 9.63782,4.53558 z"
           style="fill:#b30000;fill-opacity:1;fill-rule:nonzero;stroke:none;stroke-width:1.20494497"
           id="path3622"
           inkscape:connector-curvature="0" /></g><g
         style="stroke-width:1.20494497"
         id="g3628"
         transform="translate(295.2044,-25.540687)"><path
           d="m 34.44124,18.42523 c 0,0.62612 -0.82495,1.13367 -1.84259,1.13367 -1.01765,0 -1.84261,-0.50755 -1.84261,-1.13367 0,-0.62611 0.82496,-1.13367 1.84261,-1.13367 1.01764,0 1.84259,0.50756 1.84259,1.13367 z"
           style="fill:#fffdd9;fill-opacity:1;fill-rule:nonzero;stroke:none;stroke-width:1.20494497"
           id="path3626"
           inkscape:connector-curvature="0" /></g><g
         style="stroke-width:1.20494497"
         id="g3632"
         transform="translate(295.2044,-25.540687)"><path
           d="m 24.80344,16.15787 c 0,0.62611 -0.82495,1.13368 -1.84261,1.13368 -1.01765,0 -1.8426,-0.50757 -1.8426,-1.13368 0,-0.6261 0.82495,-1.13367 1.8426,-1.13367 1.01766,0 1.84261,0.50757 1.84261,1.13367 z"
           style="fill:#fffdd9;fill-opacity:1;fill-rule:nonzero;stroke:none;stroke-width:1.20494497"
           id="path3630"
           inkscape:connector-curvature="0" /></g><g
         style="stroke-width:1.20494497"
         id="g3636"
         transform="translate(295.2044,-25.540687)"><path
           d="m 28.77197,19.27562 c 0,0.6261 -0.82495,1.13367 -1.8426,1.13367 -1.01766,0 -1.84261,-0.50757 -1.84261,-1.13367 0,-0.62612 0.82495,-1.13368 1.84261,-1.13368 1.01765,0 1.8426,0.50756 1.8426,1.13368 z"
           style="fill:#fffdd9;fill-opacity:1;fill-rule:nonzero;stroke:none;stroke-width:1.20494497"
           id="path3634"
           inkscape:connector-curvature="0" /></g><g
         style="stroke-width:1.20494497"
         id="g3640"
         transform="translate(295.2044,-25.540687)"><path
           d="m 30.75645,15.30708 c 0,0.6261 -0.82495,1.13367 -1.8426,1.13367 -1.01765,0 -1.84261,-0.50757 -1.84261,-1.13367 0,-0.62611 0.82496,-1.13368 1.84261,-1.13368 1.01765,0 1.8426,0.50757 1.8426,1.13368 z"
           style="fill:#fffdd9;fill-opacity:1;fill-rule:nonzero;stroke:none;stroke-width:1.20494497"
           id="path3638"
           inkscape:connector-curvature="0" /></g><g
         style="stroke-width:1.20494497"
         id="g3644"
         transform="translate(295.2044,-25.540687)"><path
           d="m 32.88239,15.30708 c 0,0.31317 -0.88848,0.56705 -1.98449,0.56705 -1.09599,0 -1.98448,-0.25388 -1.98448,-0.56705 0,-0.31318 0.88849,-0.56706 1.98448,-0.56706 1.09601,0 1.98449,0.25388 1.98449,0.56706 z"
           style="fill:#73b326;fill-opacity:1;fill-rule:nonzero;stroke:none;stroke-width:1.20494497"
           id="path3642"
           inkscape:connector-curvature="0" /></g><g
         style="stroke-width:1.20494497"
         id="g3648"
         transform="translate(295.2044,-25.540687)"><path
           d="m 25.20584,19.4307 c -0.10709,0.29428 -1.02882,0.22895 -2.05874,-0.14591 -1.02991,-0.37485 -1.77797,-0.91729 -1.67087,-1.21158 0.10708,-0.29428 1.02882,-0.22896 2.05874,0.14589 1.02991,0.37486 1.77797,0.91731 1.67087,1.2116 z"
           style="fill:#73b326;fill-opacity:1;fill-rule:nonzero;stroke:none;stroke-width:1.20494497"
           id="path3646"
           inkscape:connector-curvature="0" /></g><g
         style="stroke-width:1.20494497"
         id="g3652"
         transform="translate(295.2044,-25.540687)"><path
           d="m 36.01843,18.56488 c 0.1071,0.29428 -0.64096,0.83673 -1.67088,1.21158 -1.02991,0.37484 -1.95165,0.44017 -2.05873,0.14589 -0.1071,-0.29428 0.64096,-0.83673 1.67087,-1.21158 1.02992,-0.37485 1.95164,-0.44017 2.05874,-0.14589 z"
           style="fill:#73b326;fill-opacity:1;fill-rule:nonzero;stroke:none;stroke-width:1.20494497"
           id="path3650"
           inkscape:connector-curvature="0" /></g><g
         style="stroke-width:1.20494497"
         id="g3656"
         transform="translate(295.2044,-25.540687)"><path
           d="m 29.19717,17.00824 c 0,0.9393 -0.38072,1.70073 -0.85037,1.70073 -0.46965,0 -0.85037,-0.76143 -0.85037,-1.70073 0,-0.9393 0.38072,-1.70073 0.85037,-1.70073 0.46965,0 0.85037,0.76143 0.85037,1.70073 z"
           style="fill:#73b326;fill-opacity:1;fill-rule:nonzero;stroke:none;stroke-width:1.20494497"
           id="path3654"
           inkscape:connector-curvature="0" /></g></g></g></svg>