<?xml version="1.0" encoding="UTF-8" standalone="no"?>
<!-- Created with Inkscape (http://www.inkscape.org/) -->

<svg
   xmlns:dc="http://purl.org/dc/elements/1.1/"
   xmlns:cc="http://creativecommons.org/ns#"
   xmlns:rdf="http://www.w3.org/1999/02/22-rdf-syntax-ns#"
   xmlns:svg="http://www.w3.org/2000/svg"
   xmlns="http://www.w3.org/2000/svg"
   xmlns:xlink="http://www.w3.org/1999/xlink"
   xmlns:sodipodi="http://sodipodi.sourceforge.net/DTD/sodipodi-0.dtd"
   xmlns:inkscape="http://www.inkscape.org/namespaces/inkscape"
   version="1.1"
   id="svg2"
   xml:space="preserve"
   width="39.452"
   height="55.258667"
   viewBox="0 0 39.452 55.258667"
   sodipodi:docname="jodelmarmot.svg"
   inkscape:version="0.92.2 5c3e80d, 2017-08-06"><metadata
     id="metadata8"><rdf:RDF><cc:Work
         rdf:about=""><dc:format>image/svg+xml</dc:format><dc:type
           rdf:resource="http://purl.org/dc/dcmitype/StillImage" /><dc:title></dc:title></cc:Work></rdf:RDF></metadata><defs
     id="defs6"><linearGradient
       inkscape:collect="always"
       id="linearGradient1192"><stop
         style="stop-color:#000000;stop-opacity:1;"
         offset="0"
         id="stop1188" /><stop
         style="stop-color:#000000;stop-opacity:0;"
         offset="1"
         id="stop1190" /></linearGradient><clipPath
       clipPathUnits="userSpaceOnUse"
       id="clipPath30"><path
         d="M 0,0 H 34.575 V 18.852 H 0 Z"
         id="path28"
         inkscape:connector-curvature="0" /></clipPath><clipPath
       clipPathUnits="userSpaceOnUse"
       id="clipPath34"><path
         d="M 0,0 H 34.575 V 18.852 H 0 Z"
         id="path32"
         inkscape:connector-curvature="0" /></clipPath><clipPath
       clipPathUnits="userSpaceOnUse"
       id="clipPath38"><path
         d="m 5.92943,3.81425 c 7.40056,1.30491 13.02949,4.46239 12.5728,7.05255 -0.4567,2.59017 -6.8261,3.63207 -14.22666,2.32717 C -3.12495,11.88908 -8.7539,8.73158 -8.2972,6.14142 -7.8405,3.55127 -1.4711,2.50937 5.92943,3.81425 Z"
         id="path36"
         inkscape:connector-curvature="0" /></clipPath><mask
       maskUnits="userSpaceOnUse"
       x="0"
       y="0"
       width="1"
       height="1"
       id="mask40"><g
         id="g78"><g
           clip-path="url(#clipPath30)"
           id="g76"><g
             id="g74"><g
               id="g72"><g
                 clip-path="url(#clipPath34)"
                 id="g70"><g
                   id="g68"><g
                     transform="translate(12.185,0.922)"
                     id="g66"><g
                       id="g62"><path
                         d="m 5.92943,3.81425 c 7.40056,1.30491 13.02949,4.46239 12.5728,7.05255 -0.4567,2.59017 -6.8261,3.63207 -14.22666,2.32717 C -3.12495,11.88908 -8.7539,8.73158 -8.2972,6.14142 -7.8405,3.55127 -1.4711,2.50937 5.92943,3.81425 Z"
                         style="fill:none;stroke:#060606;stroke-width:3.43153;stroke-linecap:butt;stroke-linejoin:round;stroke-miterlimit:10;stroke-dasharray:none;stroke-opacity:1"
                         id="path42"
                         inkscape:connector-curvature="0" /><path
                         d="m 5.92943,3.81425 c 7.40056,1.30491 13.02949,4.46239 12.5728,7.05255 -0.4567,2.59017 -6.8261,3.63207 -14.22666,2.32717 C -3.12495,11.88908 -8.7539,8.73158 -8.2972,6.14142 -7.8405,3.55127 -1.4711,2.50937 5.92943,3.81425 Z"
                         style="fill:none;stroke:#131313;stroke-width:2.45110011;stroke-linecap:butt;stroke-linejoin:round;stroke-miterlimit:10;stroke-dasharray:none;stroke-opacity:1"
                         id="path44"
                         inkscape:connector-curvature="0" /><path
                         d="m 5.92943,3.81425 c 7.40056,1.30491 13.02949,4.46239 12.5728,7.05255 -0.4567,2.59017 -6.8261,3.63207 -14.22666,2.32717 C -3.12495,11.88908 -8.7539,8.73158 -8.2972,6.14142 -7.8405,3.55127 -1.4711,2.50937 5.92943,3.81425 Z"
                         style="fill:none;stroke:#202020;stroke-width:1.47065997;stroke-linecap:butt;stroke-linejoin:round;stroke-miterlimit:10;stroke-dasharray:none;stroke-opacity:1"
                         id="path46"
                         inkscape:connector-curvature="0" /><g
                         id="g58"><g
                           clip-path="url(#clipPath38)"
                           id="g56"><path
                             d="M -12.18544,-0.92216 H 22.39047 V 17.93041 H -12.18544 Z"
                             style="fill:#666666;fill-opacity:1;fill-rule:nonzero;stroke:none"
                             id="path48"
                             inkscape:connector-curvature="0" /><path
                             d="m 5.92943,3.81425 c 7.40056,1.30491 13.02949,4.46239 12.5728,7.05255 -0.4567,2.59017 -6.8261,3.63207 -14.22666,2.32717 C -3.12495,11.88908 -8.7539,8.73158 -8.2972,6.14142 -7.8405,3.55127 -1.4711,2.50937 5.92943,3.81425 Z"
                             style="fill:none;stroke:#606060;stroke-width:3.43153;stroke-linecap:butt;stroke-linejoin:round;stroke-miterlimit:10;stroke-dasharray:none;stroke-opacity:1"
                             id="path50"
                             inkscape:connector-curvature="0" /><path
                             d="m 5.92943,3.81425 c 7.40056,1.30491 13.02949,4.46239 12.5728,7.05255 -0.4567,2.59017 -6.8261,3.63207 -14.22666,2.32717 C -3.12495,11.88908 -8.7539,8.73158 -8.2972,6.14142 -7.8405,3.55127 -1.4711,2.50937 5.92943,3.81425 Z"
                             style="fill:none;stroke:#535353;stroke-width:2.45110011;stroke-linecap:butt;stroke-linejoin:round;stroke-miterlimit:10;stroke-dasharray:none;stroke-opacity:1"
                             id="path52"
                             inkscape:connector-curvature="0" /><path
                             d="m 5.92943,3.81425 c 7.40056,1.30491 13.02949,4.46239 12.5728,7.05255 -0.4567,2.59017 -6.8261,3.63207 -14.22666,2.32717 C -3.12495,11.88908 -8.7539,8.73158 -8.2972,6.14142 -7.8405,3.55127 -1.4711,2.50937 5.92943,3.81425 Z"
                             style="fill:none;stroke:#464646;stroke-width:1.47065997;stroke-linecap:butt;stroke-linejoin:round;stroke-miterlimit:10;stroke-dasharray:none;stroke-opacity:1"
                             id="path54"
                             inkscape:connector-curvature="0" /></g></g><path
                         d="m 5.92943,3.81425 c 7.40056,1.30491 13.02949,4.46239 12.5728,7.05255 -0.4567,2.59017 -6.8261,3.63207 -14.22666,2.32717 C -3.12495,11.88908 -8.7539,8.73158 -8.2972,6.14142 -7.8405,3.55127 -1.4711,2.50937 5.92943,3.81425 Z"
                         style="fill:none;stroke:#333333;stroke-width:0.49020001;stroke-linecap:butt;stroke-linejoin:round;stroke-miterlimit:10;stroke-dasharray:none;stroke-opacity:1"
                         id="path60"
                         inkscape:connector-curvature="0" /></g><g
                       transform="translate(22.39,-0.922)"
                       id="g64" /></g></g></g></g></g></g></g></mask><radialGradient
       inkscape:collect="always"
       xlink:href="#linearGradient1192"
       id="radialGradient1194"
       cx="18.652861"
       cy="-2.9989638"
       fx="18.652861"
       fy="-2.9989638"
       r="14.362992"
       gradientTransform="matrix(1,0,0,0.53901302,0,-1.3824833)"
       gradientUnits="userSpaceOnUse" /></defs><sodipodi:namedview
     pagecolor="#ffffff"
     bordercolor="#666666"
     borderopacity="1"
     objecttolerance="10"
     gridtolerance="10"
     guidetolerance="10"
     inkscape:pageopacity="0"
     inkscape:pageshadow="2"
     inkscape:window-width="640"
     inkscape:window-height="480"
     id="namedview4"
     showgrid="false"
     inkscape:zoom="17.591072"
     inkscape:cx="15.206131"
     inkscape:cy="30.153563"
     inkscape:current-layer="g10" /><g
     id="g10"
     inkscape:groupmode="layer"
     inkscape:label="jodelmarmot"
     transform="matrix(1.3333333,0,0,-1.3333333,0,55.258667)"><ellipse
       style="opacity:0.728;fill:url(#radialGradient1194);fill-opacity:1;fill-rule:evenodd;stroke:none;stroke-width:6.05426264;stroke-linecap:round;stroke-linejoin:round;stroke-miterlimit:4;stroke-dasharray:none;stroke-dashoffset:0;stroke-opacity:1"
       id="path381"
       cx="18.652861"
       cy="-2.9989638"
       transform="matrix(0.99241383,0.12294225,-0.06589936,-0.99782627,0,0)"
       rx="14.362992"
       ry="7.7418399" /><g
       id="g86"
       transform="translate(10.63,-1.701)"><path
         inkscape:connector-curvature="0"
         id="path88"
         style="fill:#000000;fill-opacity:0;fill-rule:nonzero;stroke:none"
         d="m 5.92943,3.81425 c 7.40056,1.30491 13.02949,4.46239 12.5728,7.05255 -0.4567,2.59017 -6.8261,3.63207 -14.22666,2.32717 C -3.12495,11.88908 -8.7539,8.73158 -8.2972,6.14142 -7.8405,3.55127 -1.4711,2.50937 5.92943,3.81425 Z" /></g><g
       id="g90"
       transform="translate(10.63,-1.701)"><path
         inkscape:connector-curvature="0"
         id="path92"
         style="fill:#604020;fill-opacity:1;fill-rule:nonzero;stroke:none"
         d="m -0.42535,3.40158 c 0,0.84537 -1.75136,1.53069 -3.91182,1.53069 -2.16046,0 -3.91183,-0.68532 -3.91183,-1.53069 0,-0.84537 1.75137,-1.53067 3.91183,-1.53067 2.16046,0 3.91182,0.6853 3.91182,1.53067 z" /></g><g
       id="g94"
       transform="translate(10.63,-1.701)"><path
         inkscape:connector-curvature="0"
         id="path96"
         style="fill:#604020;fill-opacity:1;fill-rule:nonzero;stroke:none"
         d="m 8.249,3.40158 c 0,0.84537 -1.75137,1.53069 -3.91183,1.53069 -2.16046,0 -3.91182,-0.68532 -3.91182,-1.53069 0,-0.84537 1.75136,-1.53067 3.91182,-1.53067 2.16046,0 3.91183,0.6853 3.91183,1.53067 z" /></g><g
       id="g98"
       transform="translate(10.63,-1.701)"><path
         inkscape:connector-curvature="0"
         id="path100"
         style="fill:#604020;fill-opacity:1;fill-rule:nonzero;stroke:none"
         d="m 5.86784,34.52672 c 0,1.22119 -0.6853,2.21115 -1.53067,2.21115 -0.84537,0 -1.53067,-0.98996 -1.53067,-2.21115 0,-1.22118 0.6853,-2.21114 1.53067,-2.21114 0.84537,0 1.53067,0.98996 1.53067,2.21114 z" /></g><g
       id="g102"
       transform="translate(10.63,-1.701)"><path
         inkscape:connector-curvature="0"
         id="path104"
         style="fill:#604020;fill-opacity:1;fill-rule:nonzero;stroke:none"
         d="m -2.8065,34.52672 c 0,1.22119 -0.6853,2.21115 -1.53067,2.21115 -0.84537,0 -1.53067,-0.98996 -1.53067,-2.21115 0,-1.22118 0.6853,-2.21114 1.53067,-2.21114 0.84537,0 1.53067,0.98996 1.53067,2.21114 z" /></g><g
       id="g106"
       transform="translate(10.63,-1.701)"><path
         inkscape:connector-curvature="0"
         id="path108"
         style="fill:#604020;fill-opacity:1;fill-rule:nonzero;stroke:none"
         d="M 15.0522,11.3955 C 14.71222,6.80318 5.86784,4.08206 5.69786,7.48366 5.35762,9.52457 7.56879,8.6741 9.77966,9.01434 c 2.04117,0.16999 5.27254,3.2316 5.27254,2.38116 z" /></g><g
       id="g110"
       transform="translate(10.63,-1.701)"><path
         inkscape:connector-curvature="0"
         id="path112"
         style="fill:#bf8040;fill-opacity:1;fill-rule:nonzero;stroke:none"
         d="M 10.11992,15.64755 C 10.11992,4.42203 6.03784,3.06134 0,3.06134 c -6.03784,0 -10.11992,1.36069 -10.11992,12.58621 C -10.2899,26.87306 -5.69786,35.8874 0,35.8874 c 5.69786,0 10.2899,-9.01434 10.11992,-20.23985 z" /></g><g
       id="g114"
       transform="translate(10.63,-1.701)"><path
         inkscape:connector-curvature="0"
         id="path116"
         style="fill:#dfbf9f;fill-opacity:1;fill-rule:nonzero;stroke:none"
         d="M 7.22855,12.07596 C 7.22855,6.97343 4.16692,6.29295 0,6.29295 c -4.16692,0 -7.22855,0.68048 -7.22855,5.78301 0,5.10226 3.40162,9.35434 7.22855,9.35434 3.82693,0 7.22855,-4.25208 7.22855,-9.35434 z" /></g><g
       id="g118"
       transform="translate(10.63,-1.701)"><path
         inkscape:connector-curvature="0"
         id="path120"
         style="fill:#604020;fill-opacity:1;fill-rule:nonzero;stroke:none"
         d="M 7.94421,19.65335 C 6.79669,20.07101 5.24138,18.69228 4.4703,16.57378 3.69923,14.45529 4.0044,12.39937 5.15192,11.9817 c 1.14752,-0.41766 2.70283,0.9611 3.4739,3.07958 0.77108,2.11848 0.46592,4.17441 -0.68161,4.59207 z" /></g><g
       id="g122"
       transform="translate(10.63,-1.701)"><path
         inkscape:connector-curvature="0"
         id="path124"
         style="fill:#604020;fill-opacity:1;fill-rule:nonzero;stroke:none"
         d="m -5.15192,11.9817 c 1.14752,0.41767 1.45269,2.47359 0.68162,4.59208 -0.77108,2.1185 -2.32639,3.49723 -3.47391,3.07957 -1.14753,-0.41766 -1.45269,-2.47359 -0.68161,-4.59207 0.77107,-2.11848 2.32638,-3.49724 3.4739,-3.07958 z" /></g><g
       id="g126"
       transform="translate(10.63,-1.701)"><path
         inkscape:connector-curvature="0"
         id="path128"
         style="fill:#dfbf9f;fill-opacity:1;fill-rule:nonzero;stroke:none"
         d="m 3.9118,25.00214 c 0,1.22119 -1.75135,2.21115 -3.9118,2.21115 -2.16045,0 -3.9118,-0.98996 -3.9118,-2.21115 0,-1.2212 1.75135,-2.21114 3.9118,-2.21114 2.16045,0 3.9118,0.98994 3.9118,2.21114 z" /></g><g
       id="g130"
       transform="translate(10.63,-1.701)"><path
         inkscape:connector-curvature="0"
         id="path132"
         style="fill:#604020;fill-opacity:1;fill-rule:nonzero;stroke:none"
         d="m 1.36067,27.2133 c 0,0.75148 -0.60921,1.36067 -1.36067,1.36067 -0.75146,0 -1.36067,-0.60919 -1.36067,-1.36067 0,-0.75148 0.60921,-1.36068 1.36067,-1.36068 0.75146,0 1.36067,0.6092 1.36067,1.36068 z" /></g><g
       id="g134"
       transform="translate(10.63,-1.701)"><path
         inkscape:connector-curvature="0"
         id="path136"
         style="fill:#604020;fill-opacity:1;fill-rule:nonzero;stroke:none"
         d="m -1.78578,30.10468 c 0,0.46966 -0.38077,0.85043 -0.85045,0.85043 -0.46968,0 -0.85045,-0.38077 -0.85045,-0.85043 0,-0.46968 0.38077,-0.85045 0.85045,-0.85045 0.46968,0 0.85045,0.38077 0.85045,0.85045 z" /></g><g
       id="g138"
       transform="translate(10.63,-1.701)"><path
         inkscape:connector-curvature="0"
         id="path140"
         style="fill:#604020;fill-opacity:1;fill-rule:nonzero;stroke:none"
         d="m 3.48668,30.10468 c 0,0.46966 -0.38077,0.85043 -0.85045,0.85043 -0.46968,0 -0.85045,-0.38077 -0.85045,-0.85043 0,-0.46968 0.38077,-0.85045 0.85045,-0.85045 0.46968,0 0.85045,0.38077 0.85045,0.85045 z" /></g><path
       inkscape:connector-curvature="0"
       id="path152"
       style="fill:#26190d;fill-opacity:1;fill-rule:nonzero;stroke:none"
       d="m 17.51036,33.98877 -1.05445,0.23128 H 4.80249 L 3.62554,33.98197 v -2.72118 h 12.9256 z" /><path
       d="M 7.95904,41.29512 C 7.75157,41.21349 7.56446,41.06386 7.43524,40.87674 7.38421,40.79853 7.23794,40.47539 7.11209,40.15561 6.85018,39.49573 6.55761,38.80527 5.68005,36.78818 4.69702,34.52959 4.66302,34.42414 4.80249,34.22005 5.25828,33.53634 6.67668,33.00573 8.67337,32.7744 c 1.04422,-0.12243 2.68374,-0.12922 3.7926,-0.01696 1.96605,0.19728 3.53076,0.77209 3.98994,1.46261 0.09188,0.13268 0.06804,0.31635 -0.07821,0.67691 -0.07485,0.18025 -0.1361,0.34691 -0.1361,0.36394 0,0.01703 0.1701,0.20071 0.3776,0.40478 0.20408,0.20751 0.4558,0.48302 0.55784,0.61225 0.46599,0.6055 0.74153,1.51025 0.78913,2.59877 l 0.0204,0.48979 -0.14284,-0.08163 C 17.70764,39.21001 17.43557,38.94811 17.19744,38.659 l -0.11226,-0.1361 0.0136,0.2109 c 0.01364,0.20413 0.01022,0.2075 -0.05438,0.1735 -0.2177,-0.11225 -0.59187,-0.40478 -0.79256,-0.61907 -0.49661,-0.52045 -0.74834,-1.06125 -0.95242,-2.02727 -0.07822,-0.36737 -0.09187,-0.51026 -0.09187,-1.05446 -0.0034,-0.34697 0.01023,-0.75174 0.02383,-0.90138 l 0.02719,-0.27212 -0.08501,0.13604 c -0.10546,0.16666 -0.30612,0.67691 -0.37417,0.95239 -0.19385,0.77553 -0.17345,1.85381 0.05102,2.81644 0.04085,0.16667 0.06462,0.33337 0.05446,0.37418 -0.01024,0.04078 -0.14627,0.37415 -0.30612,0.73809 -0.15991,0.364 -0.37418,0.88781 -0.47965,1.16335 -0.2619,0.70747 -0.43878,0.93538 -0.82997,1.08163 -0.39456,0.14971 -0.56121,0.07822 -1.12587,-0.45916 -0.68713,-0.65309 -0.94223,-0.7824 -1.53406,-0.7824 -0.59184,0 -0.84695,0.12931 -1.53408,0.7824 -0.23128,0.2211 -0.47957,0.42856 -0.55442,0.4626 -0.17687,0.08159 -0.36737,0.07821 -0.58166,-0.0034 z"
       style="fill:#556b2f;fill-opacity:1;fill-rule:nonzero;stroke:none"
       id="path154"
       inkscape:connector-curvature="0"
       sodipodi:nodetypes="cccccccccsccccccccccccccccccccccscccc" /><path
       inkscape:connector-curvature="0"
       id="path158"
       style="fill:#556b2f;fill-opacity:1;fill-rule:nonzero;stroke:none"
       d="M 3.33302,33.92072 C 2.81602,33.74385 2.32958,33.26427 2.05067,32.66558 1.79556,32.12133 1.95542,31.60433 2.54048,31.0771 c 0.77557,-0.70411 2.43208,-1.2722 4.51715,-1.55111 2.00688,-0.26871 4.67024,-0.28572 6.73491,-0.04759 2.89807,0.33337 4.88796,1.14631 5.41177,2.21094 0.10204,0.20071 0.11563,0.26533 0.11226,0.48985 0,0.21425 -0.0204,0.29252 -0.10884,0.48639 -0.31635,0.68707 -1.15651,1.26538 -1.69737,1.32319 -0.55394,-1.277695 -2.728368,-2.063463 -4.44913,-2.28241 -1.35039,-0.15649 -3.51367,-0.15649 -4.86408,0 -1.31639,0.14969 -2.42525,0.42519 -3.20419,0.79256 -0.74834,0.35713 -1.17352,0.80614 -1.22453,1.29594 l -0.0204,0.18711 H 3.62554 C 3.55755,33.97857 3.42488,33.95473 3.33302,33.92072 Z"
       sodipodi:nodetypes="cccccccccccccccc" /></g></svg>